NotoSansKhmer-Condensed.ufo
<glyph name="quotesingle" format="2">
  <advance width="208"/>
  <unicode hex="0027"/>
  <note>
quotesingle
</note>
  <outline>
    <contour>
      <point x="75" y="456" type="line"/>
      <point x="136" y="456" type="line"/>
      <point x="152" y="714" type="line"/>
      <point x="58" y="714" type="line"/>
    </contour>
  </outline>
</glyph>
<glyph name="uni00AD" format="2">
  <advance width="274"/>
  <unicode hex="00AD"/>
  <note>
uni00AD
</note>
  <outline>
    <contour>
      <point x="27" y="229" type="line"/>
      <point x="247" y="229" type="line"/>
      <point x="247" y="310" type="line"/>
      <point x="27" y="310" type="line"/>
    </contour>
  </outline>
</glyph>
<glyph name="uni1780" format="2">
  <advance width="523"/>
  <unicode hex="1780"/>
  <note>
uni1780
</note>
  <outline>
    <contour>
      <point x="78" y="519" type="line"/>
      <point x="445" y="519" type="line"/>
      <point x="445" y="586" type="line"/>
      <point x="78" y="586" type="line"/>
    </contour>
    <contour>
      <point x="78" y="0" type="line"/>
      <point x="155" y="0" type="line"/>
      <point x="155" y="293" type="line" smooth="yes"/>
      <point x="155" y="353"/>
      <point x="191" y="383"/>
      <point x="261" y="383" type="curve" smooth="yes"/>
      <point x="333" y="383"/>
      <point x="368" y="353"/>
      <point x="368" y="293" type="curve" smooth="yes"/>
      <point x="368" y="0" type="line"/>
      <point x="445" y="0" type="line"/>
      <point x="445" y="293" type="line" smooth="yes"/>
      <point x="445" y="398"/>
      <point x="384" y="451"/>
      <point x="261" y="451" type="curve" smooth="yes"/>
      <point x="140" y="451"/>
      <point x="78" y="398"/>
      <point x="78" y="293" type="curve" smooth="yes"/>
    </contour>
  </outline>
</glyph>
<glyph name="uni1781" format="2">
  <advance width="526"/>
  <unicode hex="1781"/>
  <note>
uni1781
</note>
  <outline>
    <contour>
      <point x="263" y="0" type="curve" smooth="yes"/>
      <point x="398" y="0"/>
      <point x="446" y="68"/>
      <point x="446" y="158" type="curve" smooth="yes"/>
      <point x="446" y="234" type="line"/>
      <point x="369" y="234" type="line"/>
      <point x="369" y="158" type="line" smooth="yes"/>
      <point x="369" y="98"/>
      <point x="342" y="67"/>
      <point x="263" y="67" type="curve" smooth="yes"/>
      <point x="184" y="67"/>
      <point x="156" y="98"/>
      <point x="156" y="158" type="curve" smooth="yes"/>
      <point x="156" y="231" type="line"/>
      <point x="228" y="244" type="line" smooth="yes"/>
      <point x="373" y="270"/>
      <point x="446" y="330"/>
      <point x="446" y="428" type="curve" smooth="yes"/>
      <point x="446" y="518"/>
      <point x="398" y="586"/>
      <point x="263" y="586" type="curve" smooth="yes"/>
      <point x="128" y="586"/>
      <point x="80" y="515"/>
      <point x="80" y="446" type="curve" smooth="yes"/>
      <point x="80" y="386"/>
      <point x="118" y="351"/>
      <point x="170" y="351" type="curve" smooth="yes"/>
      <point x="197" y="351" type="line"/>
      <point x="197" y="421" type="line"/>
      <point x="170" y="421"/>
      <point x="156" y="435"/>
      <point x="156" y="464" type="curve" smooth="yes"/>
      <point x="156" y="493"/>
      <point x="184" y="519"/>
      <point x="263" y="519" type="curve" smooth="yes"/>
      <point x="342" y="519"/>
      <point x="369" y="488"/>
      <point x="369" y="428" type="curve" smooth="yes"/>
      <point x="369" y="366"/>
      <point x="321" y="328"/>
      <point x="224" y="311" type="curve" smooth="yes"/>
      <point x="79" y="286" type="line"/>
      <point x="79" y="158" type="line" smooth="yes"/>
      <point x="79" y="68"/>
      <point x="128" y="0"/>
    </contour>
  </outline>
</glyph>
<glyph name="uni1782" format="2">
  <advance width="523"/>
  <unicode hex="1782"/>
  <note>
uni1782
</note>
  <outline>
    <contour>
      <point x="78" y="519" type="line"/>
      <point x="445" y="519" type="line"/>
      <point x="445" y="586" type="line"/>
      <point x="78" y="586" type="line"/>
    </contour>
    <contour>
      <point x="78" y="0" type="line"/>
      <point x="155" y="0" type="line"/>
      <point x="155" y="42" type="line"/>
      <point x="167" y="97"/>
      <point x="184" y="128"/>
      <point x="240" y="128" type="curve" smooth="yes"/>
      <point x="282" y="128" type="line"/>
      <point x="282" y="195" type="line"/>
      <point x="231" y="195" type="line" smooth="yes"/>
      <point x="199" y="195"/>
      <point x="174" y="182"/>
      <point x="155" y="156" type="curve"/>
      <point x="155" y="293" type="line" smooth="yes"/>
      <point x="155" y="353"/>
      <point x="191" y="383"/>
      <point x="262" y="383" type="curve" smooth="yes"/>
      <point x="333" y="383"/>
      <point x="368" y="353"/>
      <point x="368" y="293" type="curve" smooth="yes"/>
      <point x="368" y="0" type="line"/>
      <point x="445" y="0" type="line"/>
      <point x="445" y="293" type="line" smooth="yes"/>
      <point x="445" y="398"/>
      <point x="384" y="451"/>
      <point x="262" y="451" type="curve" smooth="yes"/>
      <point x="140" y="451"/>
      <point x="78" y="398"/>
      <point x="78" y="293" type="curve" smooth="yes"/>
    </contour>
  </outline>
</glyph>
<glyph name="uni1787" format="2">
  <advance width="535"/>
  <unicode hex="1787"/>
  <note>
uni1787
</note>
  <outline>
    <contour>
      <point x="91" y="0" type="line"/>
      <point x="180" y="0" type="line"/>
      <point x="274" y="103" type="line"/>
      <point x="368" y="0" type="line"/>
      <point x="457" y="0" type="line"/>
      <point x="457" y="451" type="line"/>
      <point x="380" y="451" type="line"/>
      <point x="380" y="82" type="line"/>
      <point x="274" y="198" type="line"/>
      <point x="168" y="81" type="line"/>
      <point x="168" y="400" type="line"/>
      <point x="124" y="460"/>
      <point x="106" y="485"/>
      <point x="106" y="500" type="curve" smooth="yes"/>
      <point x="106" y="503"/>
      <point x="109" y="510"/>
      <point x="116" y="519" type="curve"/>
      <point x="347" y="519" type="line" smooth="yes"/>
      <point x="416" y="519"/>
      <point x="457" y="549"/>
      <point x="457" y="610" type="curve" smooth="yes"/>
      <point x="457" y="674" type="line"/>
      <point x="380" y="674" type="line"/>
      <point x="380" y="610" type="line" smooth="yes"/>
      <point x="380" y="594"/>
      <point x="365" y="586"/>
      <point x="347" y="586" type="curve" smooth="yes"/>
      <point x="114" y="586" type="line"/>
      <point x="56" y="493"/>
      <point x="50" y="493"/>
      <point x="50" y="466" type="curve" smooth="yes"/>
      <point x="50" y="449"/>
      <point x="62" y="428"/>
      <point x="91" y="384" type="curve"/>
    </contour>
  </outline>
</glyph>
<glyph name="uni1788" format="2">
  <advance width="1048"/>
  <unicode hex="1788"/>
  <note>
uni1788
</note>
  <outline>
    <contour>
      <point x="959" y="375" type="line"/>
      <point x="882" y="375" type="line"/>
      <point x="882" y="158" type="line" smooth="yes"/>
      <point x="882" y="98"/>
      <point x="851" y="67"/>
      <point x="788" y="67" type="curve" smooth="yes"/>
      <point x="726" y="67"/>
      <point x="694" y="98"/>
      <point x="694" y="158" type="curve" smooth="yes"/>
      <point x="694" y="375" type="line"/>
      <point x="617" y="375" type="line"/>
      <point x="617" y="158" type="line" smooth="yes"/>
      <point x="617" y="98"/>
      <point x="586" y="67"/>
      <point x="521" y="67" type="curve" smooth="yes"/>
      <point x="457" y="67"/>
      <point x="425" y="98"/>
      <point x="425" y="158" type="curve" smooth="yes"/>
      <point x="425" y="428" type="line" smooth="yes"/>
      <point x="425" y="533"/>
      <point x="367" y="586"/>
      <point x="252" y="586" type="curve" smooth="yes"/>
      <point x="137" y="586"/>
      <point x="78" y="533"/>
      <point x="78" y="428" type="curve" smooth="yes"/>
      <point x="78" y="229" type="line"/>
      <point x="155" y="229" type="line"/>
      <point x="155" y="428" type="line" smooth="yes"/>
      <point x="155" y="488"/>
      <point x="187" y="519"/>
      <point x="252" y="519" type="curve" smooth="yes"/>
      <point x="316" y="519"/>
      <point x="348" y="488"/>
      <point x="348" y="428" type="curve" smooth="yes"/>
      <point x="348" y="158" type="line" smooth="yes"/>
      <point x="348" y="53"/>
      <point x="406" y="0"/>
      <point x="521" y="0" type="curve" smooth="yes"/>
      <point x="582" y="0"/>
      <point x="627" y="16"/>
      <point x="656" y="48" type="curve"/>
      <point x="685" y="16"/>
      <point x="728" y="0"/>
      <point x="788" y="0" type="curve" smooth="yes"/>
      <point x="902" y="0"/>
      <point x="959" y="53"/>
      <point x="959" y="158" type="curve" smooth="yes"/>
    </contour>
    <contour>
      <point x="78" y="260" type="line"/>
      <point x="78" y="60" type="line" smooth="yes"/>
      <point x="78" y="20"/>
      <point x="104" y="0"/>
      <point x="144" y="0" type="curve" smooth="yes"/>
      <point x="160" y="0" type="line" smooth="yes"/>
      <point x="213" y="0"/>
      <point x="256" y="44"/>
      <point x="256" y="113" type="curve" smooth="yes"/>
      <point x="256" y="187"/>
      <point x="206" y="219"/>
      <point x="155" y="219" type="curve"/>
      <point x="155" y="260" type="line" smooth="yes"/>
    </contour>
    <contour>
      <point x="155" y="67" type="curve"/>
      <point x="155" y="151" type="line"/>
      <point x="180" y="150"/>
      <point x="193" y="138"/>
      <point x="193" y="111" type="curve" smooth="yes"/>
      <point x="193" y="83"/>
      <point x="180" y="67"/>
    </contour>
    <contour>
      <point x="882" y="356" type="line"/>
      <point x="959" y="356" type="line"/>
      <point x="959" y="410" type="line"/>
      <point x="877" y="518" type="line"/>
      <point x="877" y="519" type="line"/>
      <point x="978" y="519" type="line"/>
      <point x="978" y="586" type="line"/>
      <point x="877" y="586" type="line"/>
      <point x="832" y="515"/>
      <point x="824" y="502"/>
      <point x="824" y="491" type="curve" smooth="yes"/>
      <point x="824" y="478"/>
      <point x="829" y="471"/>
      <point x="882" y="394" type="curve"/>
    </contour>
    <contour>
      <point x="617" y="356" type="line"/>
      <point x="694" y="356" type="line"/>
      <point x="694" y="410" type="line"/>
      <point x="612" y="518" type="line"/>
      <point x="612" y="519" type="line"/>
      <point x="713" y="519" type="line"/>
      <point x="713" y="586" type="line"/>
      <point x="612" y="586" type="line"/>
      <point x="567" y="515"/>
      <point x="559" y="502"/>
      <point x="559" y="491" type="curve" smooth="yes"/>
      <point x="559" y="478"/>
      <point x="564" y="471"/>
      <point x="617" y="394" type="curve"/>
    </contour>
  </outline>
</glyph>
<glyph name="uni178A" format="2">
  <advance width="522"/>
  <unicode hex="178A"/>
  <note>
uni178A
</note>
  <outline>
    <contour>
      <point x="78" y="470" type="line"/>
      <point x="333" y="470" type="line" smooth="yes"/>
      <point x="414" y="470"/>
      <point x="444" y="500"/>
      <point x="444" y="562" type="curve" smooth="yes"/>
      <point x="444" y="674" type="line"/>
      <point x="367" y="674" type="line"/>
      <point x="367" y="562" type="line" smooth="yes"/>
      <point x="367" y="545"/>
      <point x="352" y="537"/>
      <point x="322" y="537" type="curve" smooth="yes"/>
      <point x="155" y="537" type="line"/>
      <point x="155" y="610" type="line"/>
      <point x="78" y="610" type="line"/>
    </contour>
    <contour>
      <point x="78" y="0" type="line"/>
      <point x="166" y="0" type="line"/>
      <point x="261" y="103" type="line"/>
      <point x="356" y="0" type="line"/>
      <point x="444" y="0" type="line"/>
      <point x="444" y="402" type="line"/>
      <point x="367" y="402" type="line"/>
      <point x="367" y="82" type="line"/>
      <point x="261" y="198" type="line"/>
      <point x="155" y="81" type="line"/>
      <point x="155" y="402" type="line"/>
      <point x="78" y="402" type="line"/>
    </contour>
  </outline>
</glyph>
<glyph name="uni178B" format="2">
  <advance width="563"/>
  <unicode hex="178B"/>
  <note>
uni178B
</note>
  <outline>
    <contour>
      <point x="272" y="0" type="curve" smooth="yes"/>
      <point x="394" y="0"/>
      <point x="455" y="53"/>
      <point x="455" y="158" type="curve" smooth="yes"/>
      <point x="455" y="400" type="line"/>
      <point x="353" y="517" type="line"/>
      <point x="354" y="519" type="line"/>
      <point x="422" y="519" type="line" smooth="yes"/>
      <point x="471" y="519"/>
      <point x="485" y="542"/>
      <point x="485" y="594" type="curve" smooth="yes"/>
      <point x="485" y="674" type="line"/>
      <point x="408" y="674" type="line"/>
      <point x="408" y="613" type="line" smooth="yes"/>
      <point x="408" y="594"/>
      <point x="399" y="586"/>
      <point x="378" y="586" type="curve" smooth="yes"/>
      <point x="339" y="586" type="line"/>
      <point x="290" y="510"/>
      <point x="288" y="505"/>
      <point x="288" y="494" type="curve" smooth="yes"/>
      <point x="288" y="476"/>
      <point x="298" y="470"/>
      <point x="378" y="364" type="curve"/>
      <point x="378" y="158" type="line" smooth="yes"/>
      <point x="378" y="98"/>
      <point x="343" y="67"/>
      <point x="272" y="67" type="curve" smooth="yes"/>
      <point x="201" y="67"/>
      <point x="166" y="98"/>
      <point x="166" y="158" type="curve" smooth="yes"/>
      <point x="166" y="536" type="line" smooth="yes"/>
      <point x="166" y="569"/>
      <point x="145" y="586"/>
      <point x="104" y="586" type="curve" smooth="yes"/>
      <point x="40" y="586" type="line"/>
      <point x="40" y="519" type="line"/>
      <point x="73" y="519"/>
      <point x="89" y="511"/>
      <point x="89" y="496" type="curve" smooth="yes"/>
      <point x="89" y="158" type="line" smooth="yes"/>
      <point x="89" y="53"/>
      <point x="150" y="0"/>
    </contour>
  </outline>
</glyph>
<glyph name="uni178C" format="2">
  <advance width="523"/>
  <unicode hex="178C"/>
  <note>
uni178C
</note>
  <outline>
    <contour>
      <point x="368" y="-10" type="line"/>
      <point x="445" y="-10" type="line"/>
      <point x="445" y="234" type="line"/>
      <point x="368" y="234" type="line"/>
      <point x="368" y="197" type="line" smooth="yes"/>
      <point x="368" y="146"/>
      <point x="269" y="67"/>
      <point x="217" y="67" type="curve" smooth="yes"/>
      <point x="179" y="67"/>
      <point x="155" y="98"/>
      <point x="155" y="158" type="curve" smooth="yes"/>
      <point x="155" y="231" type="line"/>
      <point x="227" y="244" type="line" smooth="yes"/>
      <point x="372" y="270"/>
      <point x="445" y="334"/>
      <point x="445" y="456" type="curve" smooth="yes"/>
      <point x="445" y="525"/>
      <point x="417" y="586"/>
      <point x="357" y="586" type="curve" smooth="yes"/>
      <point x="322" y="586"/>
      <point x="292" y="564"/>
      <point x="263" y="525" type="curve"/>
      <point x="262" y="525" type="line"/>
      <point x="232" y="566"/>
      <point x="213" y="586"/>
      <point x="178" y="586" type="curve" smooth="yes"/>
      <point x="127" y="586"/>
      <point x="79" y="536"/>
      <point x="79" y="467" type="curve" smooth="yes"/>
      <point x="79" y="383"/>
      <point x="120" y="351"/>
      <point x="172" y="351" type="curve" smooth="yes"/>
      <point x="196" y="351" type="line"/>
      <point x="196" y="421" type="line"/>
      <point x="169" y="421"/>
      <point x="155" y="433"/>
      <point x="155" y="466" type="curve" smooth="yes"/>
      <point x="155" y="492"/>
      <point x="167" y="513"/>
      <point x="185" y="513" type="curve" smooth="yes"/>
      <point x="216" y="513"/>
      <point x="236" y="452"/>
      <point x="262" y="452" type="curve" smooth="yes"/>
      <point x="276" y="452"/>
      <point x="287" y="469"/>
      <point x="298" y="485" type="curve" smooth="yes"/>
      <point x="309" y="499"/>
      <point x="320" y="513"/>
      <point x="336" y="513" type="curve" smooth="yes"/>
      <point x="355" y="513"/>
      <point x="368" y="491"/>
      <point x="368" y="449" type="curve" smooth="yes"/>
      <point x="368" y="366"/>
      <point x="320" y="328"/>
      <point x="223" y="311" type="curve" smooth="yes"/>
      <point x="78" y="286" type="line"/>
      <point x="78" y="158" type="line" smooth="yes"/>
      <point x="78" y="68"/>
      <point x="124" y="0"/>
      <point x="214" y="0" type="curve" smooth="yes"/>
      <point x="271" y="0"/>
      <point x="307" y="32"/>
      <point x="367" y="75" type="curve"/>
      <point x="368" y="75" type="line"/>
    </contour>
  </outline>
</glyph>
<glyph name="uni178D" format="2">
  <advance width="787"/>
  <unicode hex="178D"/>
  <note>
uni178D
</note>
  <outline>
    <contour>
      <point x="698" y="379" type="line"/>
      <point x="621" y="379" type="line"/>
      <point x="621" y="145" type="line" smooth="yes"/>
      <point x="621" y="106"/>
      <point x="606" y="64"/>
      <point x="575" y="64" type="curve" smooth="yes"/>
      <point x="546" y="64"/>
      <point x="513" y="92"/>
      <point x="497" y="184" type="curve"/>
      <point x="439" y="184" type="line"/>
      <point x="439" y="117" type="line"/>
      <point x="459" y="117" type="line"/>
      <point x="482" y="50"/>
      <point x="517" y="0"/>
      <point x="582" y="0" type="curve" smooth="yes"/>
      <point x="652" y="0"/>
      <point x="698" y="68"/>
      <point x="698" y="158" type="curve" smooth="yes"/>
    </contour>
    <contour>
      <point x="78" y="242" type="line"/>
      <point x="155" y="242" type="line"/>
      <point x="155" y="451" type="line" smooth="yes"/>
      <point x="155" y="492"/>
      <point x="165" y="513"/>
      <point x="185" y="513" type="curve" smooth="yes"/>
      <point x="218" y="513"/>
      <point x="234" y="452"/>
      <point x="262" y="452" type="curve" smooth="yes"/>
      <point x="289" y="452"/>
      <point x="305" y="513"/>
      <point x="339" y="513" type="curve" smooth="yes"/>
      <point x="359" y="513"/>
      <point x="368" y="492"/>
      <point x="368" y="451" type="curve" smooth="yes"/>
      <point x="368" y="0" type="line"/>
      <point x="445" y="0" type="line"/>
      <point x="445" y="451" type="line" smooth="yes"/>
      <point x="445" y="524"/>
      <point x="424" y="586"/>
      <point x="356" y="586" type="curve" smooth="yes"/>
      <point x="313" y="586"/>
      <point x="294" y="565"/>
      <point x="265" y="525" type="curve"/>
      <point x="262" y="525" type="line"/>
      <point x="232" y="566"/>
      <point x="204" y="586"/>
      <point x="170" y="586" type="curve" smooth="yes"/>
      <point x="102" y="586"/>
      <point x="78" y="524"/>
      <point x="78" y="451" type="curve" smooth="yes"/>
    </contour>
    <contour>
      <point x="78" y="260" type="line"/>
      <point x="78" y="60" type="line" smooth="yes"/>
      <point x="78" y="20"/>
      <point x="104" y="0"/>
      <point x="144" y="0" type="curve" smooth="yes"/>
      <point x="160" y="0" type="line" smooth="yes"/>
      <point x="213" y="0"/>
      <point x="256" y="44"/>
      <point x="256" y="113" type="curve" smooth="yes"/>
      <point x="256" y="187"/>
      <point x="206" y="219"/>
      <point x="155" y="219" type="curve"/>
      <point x="155" y="260" type="line" smooth="yes"/>
    </contour>
    <contour>
      <point x="155" y="67" type="curve"/>
      <point x="155" y="151" type="line"/>
      <point x="180" y="150"/>
      <point x="193" y="138"/>
      <point x="193" y="111" type="curve" smooth="yes"/>
      <point x="193" y="83"/>
      <point x="180" y="67"/>
    </contour>
    <contour>
      <point x="621" y="356" type="line"/>
      <point x="698" y="356" type="line"/>
      <point x="698" y="410" type="line"/>
      <point x="616" y="518" type="line"/>
      <point x="616" y="519" type="line"/>
      <point x="717" y="519" type="line"/>
      <point x="717" y="586" type="line"/>
      <point x="616" y="586" type="line"/>
      <point x="571" y="515"/>
      <point x="563" y="502"/>
      <point x="563" y="491" type="curve" smooth="yes"/>
      <point x="563" y="478"/>
      <point x="568" y="471"/>
      <point x="621" y="394" type="curve"/>
    </contour>
  </outline>
</glyph>
<glyph name="uni178F" format="2">
  <advance width="523"/>
  <unicode hex="178F"/>
  <note>
uni178F
</note>
  <outline>
    <contour>
      <point x="79" y="519" type="line"/>
      <point x="445" y="519" type="line"/>
      <point x="445" y="586" type="line"/>
      <point x="79" y="586" type="line"/>
    </contour>
    <contour>
      <point x="78" y="260" type="line"/>
      <point x="78" y="60" type="line" smooth="yes"/>
      <point x="78" y="20"/>
      <point x="104" y="0"/>
      <point x="144" y="0" type="curve" smooth="yes"/>
      <point x="160" y="0" type="line" smooth="yes"/>
      <point x="213" y="0"/>
      <point x="256" y="44"/>
      <point x="256" y="113" type="curve" smooth="yes"/>
      <point x="256" y="187"/>
      <point x="206" y="219"/>
      <point x="155" y="219" type="curve"/>
      <point x="155" y="260" type="line" smooth="yes"/>
    </contour>
    <contour>
      <point x="155" y="67" type="curve"/>
      <point x="155" y="151" type="line"/>
      <point x="180" y="150"/>
      <point x="193" y="138"/>
      <point x="193" y="111" type="curve" smooth="yes"/>
      <point x="193" y="83"/>
      <point x="180" y="67"/>
    </contour>
    <contour>
      <point x="78" y="240" type="line"/>
      <point x="155" y="240" type="line"/>
      <point x="155" y="293" type="line" smooth="yes"/>
      <point x="155" y="353"/>
      <point x="191" y="383"/>
      <point x="262" y="383" type="curve" smooth="yes"/>
      <point x="333" y="383"/>
      <point x="368" y="353"/>
      <point x="368" y="293" type="curve" smooth="yes"/>
      <point x="368" y="0" type="line"/>
      <point x="445" y="0" type="line"/>
      <point x="445" y="293" type="line" smooth="yes"/>
      <point x="445" y="398"/>
      <point x="384" y="451"/>
      <point x="262" y="451" type="curve" smooth="yes"/>
      <point x="140" y="451"/>
      <point x="78" y="398"/>
      <point x="78" y="293" type="curve" smooth="yes"/>
    </contour>
    <contour>
      <point x="78" y="260" type="line"/>
      <point x="78" y="60" type="line" smooth="yes"/>
      <point x="78" y="20"/>
      <point x="104" y="0"/>
      <point x="144" y="0" type="curve" smooth="yes"/>
      <point x="160" y="0" type="line" smooth="yes"/>
      <point x="213" y="0"/>
      <point x="256" y="44"/>
      <point x="256" y="113" type="curve" smooth="yes"/>
      <point x="256" y="187"/>
      <point x="206" y="219"/>
      <point x="155" y="219" type="curve"/>
      <point x="155" y="260" type="line" smooth="yes"/>
    </contour>
    <contour>
      <point x="155" y="67" type="curve"/>
      <point x="155" y="151" type="line"/>
      <point x="180" y="150"/>
      <point x="193" y="138"/>
      <point x="193" y="111" type="curve" smooth="yes"/>
      <point x="193" y="83"/>
      <point x="180" y="67"/>
    </contour>
  </outline>
</glyph>
<glyph name="uni1790" format="2">
  <advance width="517"/>
  <unicode hex="1790"/>
  <note>
uni1790
</note>
  <outline>
    <contour>
      <point x="446" y="228" type="line"/>
      <point x="369" y="228" type="line"/>
      <point x="369" y="158" type="line" smooth="yes"/>
      <point x="369" y="98"/>
      <point x="335" y="67"/>
      <point x="263" y="67" type="curve" smooth="yes"/>
      <point x="193" y="67"/>
      <point x="158" y="98"/>
      <point x="158" y="158" type="curve" smooth="yes"/>
      <point x="158" y="400" type="line"/>
      <point x="114" y="460"/>
      <point x="96" y="485"/>
      <point x="96" y="500" type="curve" smooth="yes"/>
      <point x="96" y="503"/>
      <point x="98" y="507"/>
      <point x="106" y="519" type="curve"/>
      <point x="363" y="519" type="line" smooth="yes"/>
      <point x="418" y="519"/>
      <point x="447" y="549"/>
      <point x="447" y="610" type="curve" smooth="yes"/>
      <point x="447" y="674" type="line"/>
      <point x="370" y="674" type="line"/>
      <point x="370" y="610" type="line" smooth="yes"/>
      <point x="370" y="594"/>
      <point x="363" y="586"/>
      <point x="340" y="586" type="curve" smooth="yes"/>
      <point x="104" y="586" type="line"/>
      <point x="46" y="493"/>
      <point x="40" y="493"/>
      <point x="40" y="466" type="curve" smooth="yes"/>
      <point x="40" y="449"/>
      <point x="52" y="428"/>
      <point x="81" y="384" type="curve"/>
      <point x="81" y="158" type="line" smooth="yes"/>
      <point x="81" y="53"/>
      <point x="142" y="0"/>
      <point x="263" y="0" type="curve" smooth="yes"/>
      <point x="386" y="0"/>
      <point x="446" y="53"/>
      <point x="446" y="158" type="curve" smooth="yes"/>
    </contour>
    <contour>
      <point x="446" y="207" type="line"/>
      <point x="446" y="380" type="line" smooth="yes"/>
      <point x="446" y="419"/>
      <point x="421" y="439"/>
      <point x="379" y="439" type="curve" smooth="yes"/>
      <point x="323" y="439"/>
      <point x="277" y="403"/>
      <point x="277" y="337" type="curve" smooth="yes"/>
      <point x="277" y="277"/>
      <point x="313" y="245"/>
      <point x="369" y="245" type="curve"/>
      <point x="369" y="207" type="line"/>
    </contour>
    <contour>
      <point x="370" y="313" type="line"/>
      <point x="346" y="313"/>
      <point x="333" y="322"/>
      <point x="333" y="342" type="curve" smooth="yes"/>
      <point x="333" y="362"/>
      <point x="346" y="372"/>
      <point x="370" y="372" type="curve"/>
    </contour>
  </outline>
</glyph>
<glyph name="uni1791" format="2">
  <advance width="522"/>
  <unicode hex="1791"/>
  <note>
uni1791
</note>
  <outline>
    <contour>
      <point x="258" y="0" type="curve" smooth="yes"/>
      <point x="366" y="0"/>
      <point x="419" y="53"/>
      <point x="419" y="158" type="curve" smooth="yes"/>
      <point x="419" y="230" type="line"/>
      <point x="431" y="236"/>
      <point x="444" y="257"/>
      <point x="444" y="286" type="curve" smooth="yes"/>
      <point x="444" y="314"/>
      <point x="424" y="343"/>
      <point x="393" y="343" type="curve" smooth="yes"/>
      <point x="370" y="343"/>
      <point x="352" y="329"/>
      <point x="346" y="303" type="curve"/>
      <point x="210" y="326"/>
      <point x="154" y="354"/>
      <point x="154" y="428" type="curve" smooth="yes"/>
      <point x="154" y="488"/>
      <point x="182" y="519"/>
      <point x="261" y="519" type="curve" smooth="yes"/>
      <point x="340" y="519"/>
      <point x="367" y="485"/>
      <point x="367" y="438" type="curve" smooth="yes"/>
      <point x="367" y="414" type="line"/>
      <point x="444" y="414" type="line"/>
      <point x="444" y="438" type="line" smooth="yes"/>
      <point x="444" y="515"/>
      <point x="396" y="586"/>
      <point x="261" y="586" type="curve" smooth="yes"/>
      <point x="126" y="586"/>
      <point x="78" y="518"/>
      <point x="78" y="428" type="curve" smooth="yes"/>
      <point x="78" y="318"/>
      <point x="155" y="268"/>
      <point x="342" y="235" type="curve"/>
      <point x="342" y="158" type="line" smooth="yes"/>
      <point x="342" y="98"/>
      <point x="314" y="67"/>
      <point x="258" y="67" type="curve" smooth="yes"/>
      <point x="203" y="67"/>
      <point x="175" y="98"/>
      <point x="175" y="158" type="curve" smooth="yes"/>
      <point x="175" y="234" type="line"/>
      <point x="98" y="234" type="line"/>
      <point x="98" y="158" type="line" smooth="yes"/>
      <point x="98" y="53"/>
      <point x="151" y="0"/>
    </contour>
  </outline>
</glyph>
<glyph name="uni1793" format="2">
  <advance width="514"/>
  <unicode hex="1793"/>
  <note>
uni1793
</note>
  <outline>
    <contour>
      <point x="73" y="0" type="line"/>
      <point x="150" y="0" type="line"/>
      <point x="150" y="104" type="line"/>
      <point x="192" y="104"/>
      <point x="207" y="92"/>
      <point x="237" y="52" type="curve" smooth="yes"/>
      <point x="260" y="22"/>
      <point x="288" y="0"/>
      <point x="330" y="0" type="curve" smooth="yes"/>
      <point x="394" y="0"/>
      <point x="454" y="55"/>
      <point x="454" y="146" type="curve" smooth="yes"/>
      <point x="454" y="243"/>
      <point x="405" y="292"/>
      <point x="295" y="311" type="curve" smooth="yes"/>
      <point x="199" y="327"/>
      <point x="150" y="366"/>
      <point x="150" y="428" type="curve" smooth="yes"/>
      <point x="150" y="488"/>
      <point x="178" y="519"/>
      <point x="257" y="519" type="curve" smooth="yes"/>
      <point x="336" y="519"/>
      <point x="363" y="489"/>
      <point x="363" y="459" type="curve" smooth="yes"/>
      <point x="363" y="431"/>
      <point x="350" y="411"/>
      <point x="322" y="411" type="curve"/>
      <point x="322" y="351" type="line"/>
      <point x="328" y="351" type="line" smooth="yes"/>
      <point x="411" y="351"/>
      <point x="440" y="402"/>
      <point x="440" y="456" type="curve" smooth="yes"/>
      <point x="440" y="525"/>
      <point x="392" y="586"/>
      <point x="257" y="586" type="curve" smooth="yes"/>
      <point x="122" y="586"/>
      <point x="74" y="518"/>
      <point x="74" y="428" type="curve" smooth="yes"/>
      <point x="74" y="330"/>
      <point x="147" y="269"/>
      <point x="291" y="244" type="curve" smooth="yes"/>
      <point x="347" y="234"/>
      <point x="377" y="210"/>
      <point x="377" y="143" type="curve" smooth="yes"/>
      <point x="377" y="96"/>
      <point x="350" y="67"/>
      <point x="327" y="67" type="curve" smooth="yes"/>
      <point x="306" y="67"/>
      <point x="289" y="91"/>
      <point x="274" y="112" type="curve" smooth="yes"/>
      <point x="256" y="137"/>
      <point x="232" y="171"/>
      <point x="150" y="171" type="curve"/>
      <point x="150" y="246" type="line"/>
      <point x="73" y="246" type="line"/>
    </contour>
  </outline>
</glyph>
<glyph name="uni1795" format="2">
  <advance width="525"/>
  <unicode hex="1795"/>
  <note>
uni1795
</note>
  <outline>
    <contour>
      <point x="446" y="227" type="line"/>
      <point x="369" y="227" type="line"/>
      <point x="369" y="82" type="line"/>
      <point x="264" y="198" type="line"/>
      <point x="158" y="81" type="line"/>
      <point x="158" y="400" type="line"/>
      <point x="113" y="460"/>
      <point x="96" y="483"/>
      <point x="96" y="497" type="curve" smooth="yes"/>
      <point x="96" y="503"/>
      <point x="98" y="507"/>
      <point x="106" y="519" type="curve"/>
      <point x="339" y="519" type="line" smooth="yes"/>
      <point x="420" y="519"/>
      <point x="447" y="549"/>
      <point x="447" y="610" type="curve" smooth="yes"/>
      <point x="447" y="674" type="line"/>
      <point x="370" y="674" type="line"/>
      <point x="370" y="610" type="line" smooth="yes"/>
      <point x="370" y="594"/>
      <point x="363" y="586"/>
      <point x="333" y="586" type="curve" smooth="yes"/>
      <point x="104" y="586" type="line"/>
      <point x="46" y="493"/>
      <point x="40" y="493"/>
      <point x="40" y="466" type="curve" smooth="yes"/>
      <point x="40" y="449"/>
      <point x="52" y="428"/>
      <point x="81" y="384" type="curve"/>
      <point x="81" y="0" type="line"/>
      <point x="169" y="0" type="line"/>
      <point x="264" y="103" type="line"/>
      <point x="358" y="0" type="line"/>
      <point x="446" y="0" type="line"/>
    </contour>
    <contour>
      <point x="446" y="207" type="line"/>
      <point x="446" y="380" type="line" smooth="yes"/>
      <point x="446" y="419"/>
      <point x="421" y="439"/>
      <point x="379" y="439" type="curve" smooth="yes"/>
      <point x="323" y="439"/>
      <point x="277" y="403"/>
      <point x="277" y="337" type="curve" smooth="yes"/>
      <point x="277" y="277"/>
      <point x="313" y="245"/>
      <point x="369" y="245" type="curve"/>
      <point x="369" y="207" type="line"/>
    </contour>
    <contour>
      <point x="370" y="313" type="line"/>
      <point x="346" y="313"/>
      <point x="333" y="322"/>
      <point x="333" y="342" type="curve" smooth="yes"/>
      <point x="333" y="362"/>
      <point x="346" y="372"/>
      <point x="370" y="372" type="curve"/>
    </contour>
  </outline>
</glyph>
<glyph name="uni1797" format="2">
  <advance width="529"/>
  <unicode hex="1797"/>
  <note>
uni1797
</note>
  <outline>
    <contour>
      <point x="85" y="519" type="line"/>
      <point x="451" y="519" type="line"/>
      <point x="451" y="586" type="line"/>
      <point x="85" y="586" type="line"/>
    </contour>
    <contour>
      <point x="108" y="-4" type="curve"/>
      <point x="160" y="-2"/>
      <point x="190" y="41"/>
      <point x="190" y="105" type="curve" smooth="yes"/>
      <point x="190" y="186"/>
      <point x="161" y="220"/>
      <point x="161" y="279" type="curve" smooth="yes"/>
      <point x="161" y="339"/>
      <point x="197" y="383"/>
      <point x="268" y="383" type="curve" smooth="yes"/>
      <point x="339" y="383"/>
      <point x="374" y="353"/>
      <point x="374" y="293" type="curve" smooth="yes"/>
      <point x="374" y="0" type="line"/>
      <point x="451" y="0" type="line"/>
      <point x="451" y="293" type="line" smooth="yes"/>
      <point x="451" y="398"/>
      <point x="390" y="451"/>
      <point x="268" y="451" type="curve" smooth="yes"/>
      <point x="146" y="451"/>
      <point x="85" y="384"/>
      <point x="85" y="279" type="curve" smooth="yes"/>
      <point x="85" y="215"/>
      <point x="113" y="151"/>
      <point x="113" y="105" type="curve" smooth="yes"/>
      <point x="113" y="89"/>
      <point x="106" y="81"/>
      <point x="97" y="81" type="curve" smooth="yes"/>
      <point x="82" y="81"/>
      <point x="73" y="96"/>
      <point x="63" y="125" type="curve"/>
      <point x="20" y="105" type="line"/>
      <point x="31" y="32"/>
      <point x="62" y="-4"/>
    </contour>
  </outline>
</glyph>
<glyph name="uni179A" format="2">
  <advance width="273"/>
  <unicode hex="179A"/>
  <note>
uni179A
</note>
  <outline>
    <contour>
      <point x="127" y="356" type="line"/>
      <point x="204" y="356" type="line"/>
      <point x="204" y="410" type="line"/>
      <point x="122" y="518" type="line"/>
      <point x="122" y="519" type="line"/>
      <point x="223" y="519" type="line"/>
      <point x="223" y="586" type="line"/>
      <point x="122" y="586" type="line"/>
      <point x="77" y="515"/>
      <point x="69" y="502"/>
      <point x="69" y="491" type="curve" smooth="yes"/>
      <point x="69" y="478"/>
      <point x="74" y="471"/>
      <point x="127" y="394" type="curve"/>
    </contour>
    <contour>
      <point x="204" y="375" type="line"/>
      <point x="127" y="375" type="line"/>
      <point x="127" y="219" type="line"/>
      <point x="76" y="219"/>
      <point x="30" y="176"/>
      <point x="30" y="108" type="curve" smooth="yes"/>
      <point x="30" y="35"/>
      <point x="72" y="0"/>
      <point x="131" y="0" type="curve" smooth="yes"/>
      <point x="146" y="0" type="line" smooth="yes"/>
      <point x="183" y="0"/>
      <point x="204" y="25"/>
      <point x="204" y="69" type="curve" smooth="yes"/>
    </contour>
    <contour>
      <point x="127" y="67" type="line"/>
      <point x="109" y="67"/>
      <point x="86" y="82"/>
      <point x="86" y="109" type="curve" smooth="yes"/>
      <point x="86" y="139"/>
      <point x="114" y="151"/>
      <point x="127" y="151" type="curve"/>
    </contour>
  </outline>
</glyph>
<glyph name="uni179B" format="2">
  <advance width="778"/>
  <unicode hex="179B"/>
  <note>
uni179B
</note>
  <outline>
    <contour>
      <point x="689" y="370" type="line"/>
      <point x="612" y="370" type="line"/>
      <point x="612" y="158" type="line" smooth="yes"/>
      <point x="612" y="98"/>
      <point x="582" y="67"/>
      <point x="518" y="67" type="curve" smooth="yes"/>
      <point x="456" y="67"/>
      <point x="425" y="98"/>
      <point x="425" y="158" type="curve" smooth="yes"/>
      <point x="425" y="428" type="line" smooth="yes"/>
      <point x="425" y="533"/>
      <point x="367" y="586"/>
      <point x="252" y="586" type="curve" smooth="yes"/>
      <point x="137" y="586"/>
      <point x="78" y="533"/>
      <point x="78" y="428" type="curve" smooth="yes"/>
      <point x="78" y="245" type="line"/>
      <point x="155" y="245" type="line"/>
      <point x="155" y="428" type="line" smooth="yes"/>
      <point x="155" y="488"/>
      <point x="187" y="519"/>
      <point x="252" y="519" type="curve" smooth="yes"/>
      <point x="316" y="519"/>
      <point x="348" y="488"/>
      <point x="348" y="428" type="curve" smooth="yes"/>
      <point x="348" y="158" type="line" smooth="yes"/>
      <point x="348" y="53"/>
      <point x="405" y="0"/>
      <point x="518" y="0" type="curve" smooth="yes"/>
      <point x="632" y="0"/>
      <point x="689" y="53"/>
      <point x="689" y="158" type="curve" smooth="yes"/>
    </contour>
    <contour>
      <point x="78" y="260" type="line"/>
      <point x="78" y="60" type="line" smooth="yes"/>
      <point x="78" y="20"/>
      <point x="104" y="0"/>
      <point x="144" y="0" type="curve" smooth="yes"/>
      <point x="160" y="0" type="line" smooth="yes"/>
      <point x="213" y="0"/>
      <point x="256" y="44"/>
      <point x="256" y="113" type="curve" smooth="yes"/>
      <point x="256" y="187"/>
      <point x="206" y="219"/>
      <point x="155" y="219" type="curve"/>
      <point x="155" y="260" type="line" smooth="yes"/>
    </contour>
    <contour>
      <point x="155" y="67" type="curve"/>
      <point x="155" y="151" type="line"/>
      <point x="180" y="150"/>
      <point x="193" y="138"/>
      <point x="193" y="111" type="curve" smooth="yes"/>
      <point x="193" y="83"/>
      <point x="180" y="67"/>
    </contour>
    <contour>
      <point x="612" y="356" type="line"/>
      <point x="689" y="356" type="line"/>
      <point x="689" y="410" type="line"/>
      <point x="607" y="518" type="line"/>
      <point x="607" y="519" type="line"/>
      <point x="708" y="519" type="line"/>
      <point x="708" y="586" type="line"/>
      <point x="607" y="586" type="line"/>
      <point x="562" y="515"/>
      <point x="554" y="502"/>
      <point x="554" y="491" type="curve" smooth="yes"/>
      <point x="554" y="478"/>
      <point x="559" y="471"/>
      <point x="612" y="394" type="curve"/>
    </contour>
  </outline>
</glyph>
<glyph name="uni179C" format="2">
  <advance width="278"/>
  <unicode hex="179C"/>
  <note>
uni179C
</note>
  <outline>
    <contour>
      <point x="127" y="356" type="line"/>
      <point x="204" y="356" type="line"/>
      <point x="204" y="410" type="line"/>
      <point x="101" y="518" type="line"/>
      <point x="102" y="519" type="line"/>
      <point x="143" y="519" type="line" smooth="yes"/>
      <point x="213" y="519"/>
      <point x="248" y="549"/>
      <point x="248" y="610" type="curve" smooth="yes"/>
      <point x="248" y="674" type="line"/>
      <point x="172" y="674" type="line"/>
      <point x="172" y="610" type="line" smooth="yes"/>
      <point x="172" y="594"/>
      <point x="163" y="586"/>
      <point x="143" y="586" type="curve" smooth="yes"/>
      <point x="102" y="586" type="line"/>
      <point x="58" y="518"/>
      <point x="50" y="506"/>
      <point x="50" y="494" type="curve" smooth="yes"/>
      <point x="50" y="476"/>
      <point x="57" y="474"/>
      <point x="127" y="394" type="curve"/>
    </contour>
    <contour>
      <point x="204" y="375" type="line"/>
      <point x="127" y="375" type="line"/>
      <point x="127" y="219" type="line"/>
      <point x="76" y="219"/>
      <point x="30" y="176"/>
      <point x="30" y="108" type="curve" smooth="yes"/>
      <point x="30" y="35"/>
      <point x="72" y="0"/>
      <point x="131" y="0" type="curve" smooth="yes"/>
      <point x="146" y="0" type="line" smooth="yes"/>
      <point x="183" y="0"/>
      <point x="204" y="25"/>
      <point x="204" y="69" type="curve" smooth="yes"/>
    </contour>
    <contour>
      <point x="127" y="67" type="line"/>
      <point x="109" y="67"/>
      <point x="86" y="82"/>
      <point x="86" y="109" type="curve" smooth="yes"/>
      <point x="86" y="139"/>
      <point x="114" y="151"/>
      <point x="127" y="151" type="curve"/>
    </contour>
  </outline>
</glyph>
<glyph name="uni179E" format="2">
  <advance width="566"/>
  <unicode hex="179E"/>
  <note>
uni179E
</note>
  <outline>
    <contour>
      <point x="327" y="259" type="line"/>
      <point x="496" y="259" type="line"/>
      <point x="496" y="326" type="line"/>
      <point x="327" y="326" type="line"/>
    </contour>
    <contour>
      <point x="175" y="375" type="line"/>
      <point x="98" y="375" type="line"/>
      <point x="98" y="158" type="line" smooth="yes"/>
      <point x="98" y="53"/>
      <point x="158" y="0"/>
      <point x="280" y="0" type="curve" smooth="yes"/>
      <point x="403" y="0"/>
      <point x="464" y="53"/>
      <point x="464" y="158" type="curve" smooth="yes"/>
      <point x="464" y="375" type="line"/>
      <point x="387" y="375" type="line"/>
      <point x="387" y="158" type="line" smooth="yes"/>
      <point x="387" y="98"/>
      <point x="352" y="67"/>
      <point x="280" y="67" type="curve" smooth="yes"/>
      <point x="209" y="67"/>
      <point x="175" y="98"/>
      <point x="175" y="158" type="curve" smooth="yes"/>
    </contour>
    <contour>
      <point x="387" y="356" type="line"/>
      <point x="464" y="356" type="line"/>
      <point x="464" y="410" type="line"/>
      <point x="382" y="518" type="line"/>
      <point x="382" y="519" type="line"/>
      <point x="483" y="519" type="line"/>
      <point x="483" y="586" type="line"/>
      <point x="382" y="586" type="line"/>
      <point x="337" y="515"/>
      <point x="329" y="502"/>
      <point x="329" y="491" type="curve" smooth="yes"/>
      <point x="329" y="478"/>
      <point x="334" y="471"/>
      <point x="387" y="394" type="curve"/>
    </contour>
    <contour>
      <point x="98" y="356" type="line"/>
      <point x="175" y="356" type="line"/>
      <point x="175" y="410" type="line"/>
      <point x="93" y="518" type="line"/>
      <point x="93" y="519" type="line"/>
      <point x="194" y="519" type="line"/>
      <point x="194" y="586" type="line"/>
      <point x="93" y="586" type="line"/>
      <point x="48" y="515"/>
      <point x="40" y="502"/>
      <point x="40" y="491" type="curve" smooth="yes"/>
      <point x="40" y="478"/>
      <point x="45" y="471"/>
      <point x="98" y="394" type="curve"/>
    </contour>
  </outline>
</glyph>
<glyph name="uni179F" format="2">
  <advance width="778"/>
  <unicode hex="179F"/>
  <note>
uni179F
</note>
  <outline>
    <contour>
      <point x="138" y="419" type="curve"/>
      <point x="207" y="444" type="line"/>
      <point x="152" y="518" type="line"/>
      <point x="152" y="519" type="line"/>
      <point x="384" y="519" type="line"/>
      <point x="384" y="586" type="line"/>
      <point x="152" y="586" type="line"/>
      <point x="107" y="515"/>
      <point x="99" y="502"/>
      <point x="99" y="491" type="curve" smooth="yes"/>
      <point x="99" y="478"/>
      <point x="103" y="472"/>
    </contour>
    <contour>
      <point x="689" y="375" type="line"/>
      <point x="612" y="375" type="line"/>
      <point x="612" y="158" type="line" smooth="yes"/>
      <point x="612" y="98"/>
      <point x="582" y="67"/>
      <point x="518" y="67" type="curve" smooth="yes"/>
      <point x="456" y="67"/>
      <point x="425" y="98"/>
      <point x="425" y="158" type="curve" smooth="yes"/>
      <point x="425" y="293" type="line" smooth="yes"/>
      <point x="425" y="398"/>
      <point x="367" y="451"/>
      <point x="252" y="451" type="curve" smooth="yes"/>
      <point x="137" y="451"/>
      <point x="78" y="405"/>
      <point x="78" y="293" type="curve" smooth="yes"/>
      <point x="78" y="238" type="line"/>
      <point x="155" y="238" type="line"/>
      <point x="155" y="293" type="line" smooth="yes"/>
      <point x="155" y="353"/>
      <point x="187" y="383"/>
      <point x="252" y="383" type="curve" smooth="yes"/>
      <point x="316" y="383"/>
      <point x="348" y="353"/>
      <point x="348" y="293" type="curve" smooth="yes"/>
      <point x="348" y="158" type="line" smooth="yes"/>
      <point x="348" y="53"/>
      <point x="405" y="0"/>
      <point x="518" y="0" type="curve" smooth="yes"/>
      <point x="632" y="0"/>
      <point x="689" y="53"/>
      <point x="689" y="158" type="curve" smooth="yes"/>
    </contour>
    <contour>
      <point x="78" y="260" type="line"/>
      <point x="78" y="60" type="line" smooth="yes"/>
      <point x="78" y="20"/>
      <point x="104" y="0"/>
      <point x="144" y="0" type="curve" smooth="yes"/>
      <point x="160" y="0" type="line" smooth="yes"/>
      <point x="213" y="0"/>
      <point x="256" y="44"/>
      <point x="256" y="113" type="curve" smooth="yes"/>
      <point x="256" y="187"/>
      <point x="206" y="219"/>
      <point x="155" y="219" type="curve"/>
      <point x="155" y="260" type="line" smooth="yes"/>
    </contour>
    <contour>
      <point x="155" y="67" type="curve"/>
      <point x="155" y="151" type="line"/>
      <point x="180" y="150"/>
      <point x="193" y="138"/>
      <point x="193" y="111" type="curve" smooth="yes"/>
      <point x="193" y="83"/>
      <point x="180" y="67"/>
    </contour>
    <contour>
      <point x="612" y="356" type="line"/>
      <point x="689" y="356" type="line"/>
      <point x="689" y="410" type="line"/>
      <point x="607" y="518" type="line"/>
      <point x="607" y="519" type="line"/>
      <point x="708" y="519" type="line"/>
      <point x="708" y="586" type="line"/>
      <point x="607" y="586" type="line"/>
      <point x="562" y="515"/>
      <point x="554" y="502"/>
      <point x="554" y="491" type="curve" smooth="yes"/>
      <point x="554" y="478"/>
      <point x="559" y="471"/>
      <point x="612" y="394" type="curve"/>
    </contour>
  </outline>
</glyph>
<glyph name="uni17A0" format="2">
  <advance width="787"/>
  <unicode hex="17A0"/>
  <note>
uni17A0
</note>
  <outline>
    <contour>
      <point x="175" y="371" type="line"/>
      <point x="98" y="371" type="line"/>
      <point x="98" y="158" type="line" smooth="yes"/>
      <point x="98" y="68"/>
      <point x="148" y="0"/>
      <point x="270" y="0" type="curve" smooth="yes"/>
      <point x="393" y="0"/>
      <point x="444" y="68"/>
      <point x="444" y="158" type="curve" smooth="yes"/>
      <point x="444" y="428" type="line" smooth="yes"/>
      <point x="444" y="488"/>
      <point x="476" y="519"/>
      <point x="538" y="519" type="curve" smooth="yes"/>
      <point x="600" y="519"/>
      <point x="632" y="488"/>
      <point x="632" y="428" type="curve" smooth="yes"/>
      <point x="632" y="0" type="line"/>
      <point x="709" y="0" type="line"/>
      <point x="709" y="428" type="line" smooth="yes"/>
      <point x="709" y="533"/>
      <point x="651" y="586"/>
      <point x="536" y="586" type="curve" smooth="yes"/>
      <point x="420" y="586"/>
      <point x="367" y="518"/>
      <point x="367" y="428" type="curve" smooth="yes"/>
      <point x="367" y="158" type="line" smooth="yes"/>
      <point x="367" y="98"/>
      <point x="335" y="67"/>
      <point x="270" y="67" type="curve" smooth="yes"/>
      <point x="205" y="67"/>
      <point x="175" y="98"/>
      <point x="175" y="158" type="curve" smooth="yes"/>
    </contour>
    <contour>
      <point x="98" y="356" type="line"/>
      <point x="175" y="356" type="line"/>
      <point x="175" y="410" type="line"/>
      <point x="93" y="518" type="line"/>
      <point x="93" y="519" type="line"/>
      <point x="194" y="519" type="line"/>
      <point x="194" y="586" type="line"/>
      <point x="93" y="586" type="line"/>
      <point x="48" y="515"/>
      <point x="40" y="502"/>
      <point x="40" y="491" type="curve" smooth="yes"/>
      <point x="40" y="478"/>
      <point x="45" y="471"/>
      <point x="98" y="394" type="curve"/>
    </contour>
  </outline>
</glyph>
<glyph name="uni17A1" format="2">
  <advance width="739"/>
  <unicode hex="17A1"/>
  <note>
uni17A1
</note>
  <outline>
    <contour>
      <point x="258" y="0" type="curve" smooth="yes"/>
      <point x="366" y="0"/>
      <point x="419" y="53"/>
      <point x="419" y="158" type="curve" smooth="yes"/>
      <point x="419" y="230" type="line"/>
      <point x="431" y="236"/>
      <point x="444" y="257"/>
      <point x="444" y="286" type="curve" smooth="yes"/>
      <point x="444" y="314"/>
      <point x="424" y="343"/>
      <point x="393" y="343" type="curve" smooth="yes"/>
      <point x="370" y="343"/>
      <point x="352" y="329"/>
      <point x="346" y="303" type="curve"/>
      <point x="210" y="326"/>
      <point x="154" y="354"/>
      <point x="154" y="428" type="curve" smooth="yes"/>
      <point x="154" y="488"/>
      <point x="182" y="519"/>
      <point x="261" y="519" type="curve" smooth="yes"/>
      <point x="340" y="519"/>
      <point x="367" y="485"/>
      <point x="367" y="438" type="curve" smooth="yes"/>
      <point x="367" y="414" type="line"/>
      <point x="444" y="414" type="line"/>
      <point x="444" y="438" type="line" smooth="yes"/>
      <point x="444" y="515"/>
      <point x="396" y="586"/>
      <point x="261" y="586" type="curve" smooth="yes"/>
      <point x="126" y="586"/>
      <point x="78" y="518"/>
      <point x="78" y="428" type="curve" smooth="yes"/>
      <point x="78" y="318"/>
      <point x="155" y="268"/>
      <point x="342" y="235" type="curve"/>
      <point x="342" y="158" type="line" smooth="yes"/>
      <point x="342" y="98"/>
      <point x="314" y="67"/>
      <point x="258" y="67" type="curve" smooth="yes"/>
      <point x="203" y="67"/>
      <point x="175" y="98"/>
      <point x="175" y="158" type="curve" smooth="yes"/>
      <point x="175" y="234" type="line"/>
      <point x="98" y="234" type="line"/>
      <point x="98" y="158" type="line" smooth="yes"/>
      <point x="98" y="53"/>
      <point x="151" y="0"/>
    </contour>
    <contour>
      <point x="650" y="375" type="line"/>
      <point x="573" y="375" type="line"/>
      <point x="573" y="-158" type="line"/>
      <point x="472" y="-53" type="line"/>
      <point x="372" y="-158" type="line"/>
      <point x="372" y="-120" type="line" smooth="yes"/>
      <point x="372" y="-73"/>
      <point x="361" y="-49"/>
      <point x="324" y="-49" type="curve" smooth="yes"/>
      <point x="263" y="-49" type="line"/>
      <point x="263" y="-120" type="line"/>
      <point x="291" y="-120"/>
      <point x="304" y="-127"/>
      <point x="304" y="-140" type="curve" smooth="yes"/>
      <point x="304" y="-239" type="line"/>
      <point x="384" y="-239" type="line"/>
      <point x="472" y="-148" type="line"/>
      <point x="561" y="-239" type="line"/>
      <point x="650" y="-239" type="line"/>
    </contour>
    <contour>
      <point x="573" y="356" type="line"/>
      <point x="650" y="356" type="line"/>
      <point x="650" y="410" type="line"/>
      <point x="568" y="518" type="line"/>
      <point x="568" y="519" type="line"/>
      <point x="669" y="519" type="line"/>
      <point x="669" y="586" type="line"/>
      <point x="568" y="586" type="line"/>
      <point x="523" y="515"/>
      <point x="515" y="502"/>
      <point x="515" y="491" type="curve" smooth="yes"/>
      <point x="515" y="478"/>
      <point x="520" y="471"/>
      <point x="573" y="394" type="curve"/>
    </contour>
  </outline>
</glyph>
<glyph name="uni17A2" format="2">
  <advance width="581"/>
  <unicode hex="17A2"/>
  <note>
uni17A2
</note>
  <outline>
    <contour>
      <point x="484" y="375" type="line"/>
      <point x="407" y="375" type="line"/>
      <point x="407" y="327" type="line"/>
      <point x="195" y="327" type="line"/>
      <point x="195" y="375" type="line"/>
      <point x="118" y="375" type="line"/>
      <point x="118" y="95" type="line" smooth="yes"/>
      <point x="118" y="75"/>
      <point x="98" y="67"/>
      <point x="60" y="67" type="curve"/>
      <point x="60" y="0" type="line"/>
      <point x="133" y="0" type="line" smooth="yes"/>
      <point x="173" y="0"/>
      <point x="195" y="17"/>
      <point x="195" y="50" type="curve" smooth="yes"/>
      <point x="195" y="259" type="line"/>
      <point x="407" y="259" type="line"/>
      <point x="407" y="95" type="line" smooth="yes"/>
      <point x="407" y="75"/>
      <point x="388" y="67"/>
      <point x="349" y="67" type="curve"/>
      <point x="349" y="0" type="line"/>
      <point x="423" y="0" type="line" smooth="yes"/>
      <point x="463" y="0"/>
      <point x="484" y="17"/>
      <point x="484" y="50" type="curve" smooth="yes"/>
    </contour>
    <contour>
      <point x="407" y="356" type="line"/>
      <point x="484" y="356" type="line"/>
      <point x="484" y="410" type="line"/>
      <point x="402" y="518" type="line"/>
      <point x="402" y="519" type="line"/>
      <point x="503" y="519" type="line"/>
      <point x="503" y="586" type="line"/>
      <point x="402" y="586" type="line"/>
      <point x="357" y="515"/>
      <point x="349" y="502"/>
      <point x="349" y="491" type="curve" smooth="yes"/>
      <point x="349" y="478"/>
      <point x="354" y="471"/>
      <point x="407" y="394" type="curve"/>
    </contour>
    <contour>
      <point x="118" y="356" type="line"/>
      <point x="195" y="356" type="line"/>
      <point x="195" y="410" type="line"/>
      <point x="113" y="518" type="line"/>
      <point x="113" y="519" type="line"/>
      <point x="214" y="519" type="line"/>
      <point x="214" y="586" type="line"/>
      <point x="113" y="586" type="line"/>
      <point x="68" y="515"/>
      <point x="60" y="502"/>
      <point x="60" y="491" type="curve" smooth="yes"/>
      <point x="60" y="478"/>
      <point x="65" y="471"/>
      <point x="118" y="394" type="curve"/>
    </contour>
  </outline>
</glyph>
<glyph name="uni17A4" format="2">
  <advance width="769"/>
  <unicode hex="17A4"/>
  <note>
uni17A4
</note>
  <outline>
    <contour>
      <point x="484" y="375" type="line"/>
      <point x="407" y="375" type="line"/>
      <point x="407" y="327" type="line"/>
      <point x="195" y="327" type="line"/>
      <point x="195" y="375" type="line"/>
      <point x="118" y="375" type="line"/>
      <point x="118" y="95" type="line" smooth="yes"/>
      <point x="118" y="75"/>
      <point x="98" y="67"/>
      <point x="60" y="67" type="curve"/>
      <point x="60" y="0" type="line"/>
      <point x="133" y="0" type="line" smooth="yes"/>
      <point x="173" y="0"/>
      <point x="195" y="17"/>
      <point x="195" y="50" type="curve" smooth="yes"/>
      <point x="195" y="259" type="line"/>
      <point x="407" y="259" type="line"/>
      <point x="407" y="95" type="line" smooth="yes"/>
      <point x="407" y="75"/>
      <point x="388" y="67"/>
      <point x="349" y="67" type="curve"/>
      <point x="349" y="0" type="line"/>
      <point x="423" y="0" type="line" smooth="yes"/>
      <point x="463" y="0"/>
      <point x="484" y="17"/>
      <point x="484" y="50" type="curve" smooth="yes"/>
    </contour>
    <contour>
      <point x="407" y="356" type="line"/>
      <point x="484" y="356" type="line"/>
      <point x="484" y="410" type="line"/>
      <point x="402" y="518" type="line"/>
      <point x="402" y="519" type="line"/>
      <point x="503" y="519" type="line"/>
      <point x="503" y="586" type="line"/>
      <point x="402" y="586" type="line"/>
      <point x="357" y="515"/>
      <point x="349" y="502"/>
      <point x="349" y="491" type="curve" smooth="yes"/>
      <point x="349" y="478"/>
      <point x="354" y="471"/>
      <point x="407" y="394" type="curve"/>
    </contour>
    <contour>
      <point x="118" y="356" type="line"/>
      <point x="195" y="356" type="line"/>
      <point x="195" y="410" type="line"/>
      <point x="113" y="518" type="line"/>
      <point x="113" y="519" type="line"/>
      <point x="214" y="519" type="line"/>
      <point x="214" y="586" type="line"/>
      <point x="113" y="586" type="line"/>
      <point x="68" y="515"/>
      <point x="60" y="502"/>
      <point x="60" y="491" type="curve" smooth="yes"/>
      <point x="60" y="478"/>
      <point x="65" y="471"/>
      <point x="118" y="394" type="curve"/>
    </contour>
    <contour>
      <point x="614" y="0" type="line"/>
      <point x="691" y="0" type="line"/>
      <point x="691" y="458" type="line" smooth="yes"/>
      <point x="691" y="543"/>
      <point x="669" y="586"/>
      <point x="573" y="586" type="curve" smooth="yes"/>
      <point x="468" y="586" type="line"/>
      <point x="468" y="519" type="line"/>
      <point x="549" y="519" type="line" smooth="yes"/>
      <point x="598" y="519"/>
      <point x="614" y="504"/>
      <point x="614" y="458" type="curve" smooth="yes"/>
    </contour>
  </outline>
</glyph>
<glyph name="uni17A5" format="2">
  <advance width="486"/>
  <unicode hex="17A5"/>
  <note>
uni17A5
</note>
  <outline>
    <contour>
      <point x="86" y="399" type="curve"/>
      <point x="152" y="443" type="line"/>
      <point x="127" y="472"/>
      <point x="115" y="490"/>
      <point x="115" y="501" type="curve" smooth="yes"/>
      <point x="115" y="506"/>
      <point x="117" y="508"/>
      <point x="127" y="520" type="curve"/>
      <point x="334" y="520" type="line" smooth="yes"/>
      <point x="415" y="520"/>
      <point x="456" y="551"/>
      <point x="456" y="612" type="curve" smooth="yes"/>
      <point x="456" y="685" type="line"/>
      <point x="379" y="685" type="line"/>
      <point x="379" y="612" type="line" smooth="yes"/>
      <point x="379" y="596"/>
      <point x="364" y="587"/>
      <point x="346" y="587" type="curve" smooth="yes"/>
      <point x="125" y="587" type="line"/>
      <point x="57" y="501"/>
      <point x="48" y="490"/>
      <point x="48" y="468" type="curve" smooth="yes"/>
      <point x="48" y="455"/>
      <point x="61" y="432"/>
    </contour>
    <contour>
      <point x="89" y="240" type="line"/>
      <point x="166" y="240" type="line"/>
      <point x="166" y="293" type="line" smooth="yes"/>
      <point x="166" y="353"/>
      <point x="202" y="383"/>
      <point x="273" y="383" type="curve" smooth="yes"/>
      <point x="344" y="383"/>
      <point x="379" y="353"/>
      <point x="379" y="293" type="curve" smooth="yes"/>
      <point x="379" y="0" type="line"/>
      <point x="456" y="0" type="line"/>
      <point x="456" y="293" type="line" smooth="yes"/>
      <point x="456" y="398"/>
      <point x="395" y="451"/>
      <point x="273" y="451" type="curve" smooth="yes"/>
      <point x="151" y="451"/>
      <point x="89" y="398"/>
      <point x="89" y="293" type="curve" smooth="yes"/>
    </contour>
    <contour>
      <point x="89" y="260" type="line"/>
      <point x="89" y="60" type="line" smooth="yes"/>
      <point x="89" y="20"/>
      <point x="115" y="0"/>
      <point x="155" y="0" type="curve" smooth="yes"/>
      <point x="171" y="0" type="line" smooth="yes"/>
      <point x="224" y="0"/>
      <point x="267" y="44"/>
      <point x="267" y="113" type="curve" smooth="yes"/>
      <point x="267" y="187"/>
      <point x="217" y="219"/>
      <point x="166" y="219" type="curve"/>
      <point x="166" y="260" type="line" smooth="yes"/>
    </contour>
    <contour>
      <point x="166" y="67" type="curve"/>
      <point x="166" y="151" type="line"/>
      <point x="191" y="150"/>
      <point x="204" y="138"/>
      <point x="204" y="111" type="curve" smooth="yes"/>
      <point x="204" y="83"/>
      <point x="191" y="67"/>
    </contour>
  </outline>
</glyph>
<glyph name="uni17A6" format="2">
  <advance width="769"/>
  <unicode hex="17A6"/>
  <note>
uni17A6
</note>
  <outline>
    <contour>
      <point x="691" y="532" type="line"/>
      <point x="614" y="532" type="line"/>
      <point x="614" y="-127" type="line" smooth="yes"/>
      <point x="614" y="-160"/>
      <point x="587" y="-176"/>
      <point x="521" y="-176" type="curve" smooth="yes"/>
      <point x="461" y="-176"/>
      <point x="426" y="-163"/>
      <point x="426" y="-138" type="curve" smooth="yes"/>
      <point x="426" y="-74"/>
      <point x="383" y="-24"/>
      <point x="263" y="-24" type="curve" smooth="yes"/>
      <point x="143" y="-24"/>
      <point x="100" y="-74"/>
      <point x="100" y="-138" type="curve" smooth="yes"/>
      <point x="100" y="-208" type="line" smooth="yes"/>
      <point x="100" y="-232"/>
      <point x="118" y="-244"/>
      <point x="154" y="-244" type="curve" smooth="yes"/>
      <point x="212" y="-244" type="line"/>
      <point x="212" y="-195" type="line"/>
      <point x="183" y="-195"/>
      <point x="168" y="-190"/>
      <point x="168" y="-176" type="curve" smooth="yes"/>
      <point x="168" y="-138" type="line" smooth="yes"/>
      <point x="168" y="-95"/>
      <point x="193" y="-73"/>
      <point x="263" y="-73" type="curve" smooth="yes"/>
      <point x="333" y="-73"/>
      <point x="358" y="-95"/>
      <point x="358" y="-138" type="curve" smooth="yes"/>
      <point x="358" y="-209"/>
      <point x="416" y="-244"/>
      <point x="521" y="-244" type="curve" smooth="yes"/>
      <point x="638" y="-244"/>
      <point x="691" y="-205"/>
      <point x="691" y="-127" type="curve" smooth="yes"/>
    </contour>
    <contour>
      <point x="77" y="240" type="line"/>
      <point x="154" y="240" type="line"/>
      <point x="154" y="423" type="line" smooth="yes"/>
      <point x="154" y="483"/>
      <point x="190" y="513"/>
      <point x="261" y="513" type="curve" smooth="yes"/>
      <point x="332" y="513"/>
      <point x="367" y="483"/>
      <point x="367" y="423" type="curve" smooth="yes"/>
      <point x="367" y="0" type="line"/>
      <point x="444" y="0" type="line"/>
      <point x="444" y="423" type="line" smooth="yes"/>
      <point x="444" y="528"/>
      <point x="383" y="581"/>
      <point x="261" y="581" type="curve" smooth="yes"/>
      <point x="139" y="581"/>
      <point x="77" y="528"/>
      <point x="77" y="423" type="curve" smooth="yes"/>
    </contour>
    <contour>
      <point x="77" y="260" type="line"/>
      <point x="77" y="60" type="line" smooth="yes"/>
      <point x="77" y="20"/>
      <point x="103" y="0"/>
      <point x="143" y="0" type="curve" smooth="yes"/>
      <point x="159" y="0" type="line" smooth="yes"/>
      <point x="212" y="0"/>
      <point x="255" y="44"/>
      <point x="255" y="113" type="curve" smooth="yes"/>
      <point x="255" y="187"/>
      <point x="205" y="219"/>
      <point x="154" y="219" type="curve"/>
      <point x="154" y="260" type="line" smooth="yes"/>
    </contour>
    <contour>
      <point x="154" y="67" type="curve"/>
      <point x="154" y="151" type="line"/>
      <point x="179" y="150"/>
      <point x="192" y="138"/>
      <point x="192" y="111" type="curve" smooth="yes"/>
      <point x="192" y="83"/>
      <point x="179" y="67"/>
    </contour>
    <contour>
      <point x="614" y="509" type="line"/>
      <point x="691" y="509" type="line"/>
      <point x="691" y="611" type="line" smooth="yes"/>
      <point x="691" y="729"/>
      <point x="641" y="787"/>
      <point x="539" y="787" type="curve" smooth="yes"/>
      <point x="500" y="787"/>
      <point x="472" y="775"/>
      <point x="451" y="759" type="curve"/>
      <point x="451" y="929" type="line"/>
      <point x="375" y="929" type="line"/>
      <point x="375" y="685" type="line"/>
      <point x="451" y="685" type="line"/>
      <point x="467" y="710"/>
      <point x="492" y="724"/>
      <point x="525" y="724" type="curve" smooth="yes"/>
      <point x="579" y="724"/>
      <point x="614" y="686"/>
      <point x="614" y="611" type="curve" smooth="yes"/>
    </contour>
  </outline>
</glyph>
<glyph name="uni17A8" format="2">
  <advance width="518"/>
  <unicode hex="17A8"/>
  <note>
uni17A8
</note>
  <outline>
    <contour>
      <point x="95" y="665" type="line"/>
      <point x="430" y="665" type="line"/>
      <point x="430" y="732" type="line"/>
      <point x="95" y="732" type="line"/>
    </contour>
    <contour>
      <point x="367" y="-4" type="line"/>
      <point x="444" y="-4" type="line"/>
      <point x="444" y="234" type="line"/>
      <point x="367" y="234" type="line"/>
      <point x="367" y="179" type="line" smooth="yes"/>
      <point x="367" y="138"/>
      <point x="275" y="67"/>
      <point x="215" y="67" type="curve" smooth="yes"/>
      <point x="168" y="67"/>
      <point x="154" y="98"/>
      <point x="154" y="158" type="curve" smooth="yes"/>
      <point x="154" y="231" type="line"/>
      <point x="227" y="244" type="line" smooth="yes"/>
      <point x="372" y="270"/>
      <point x="444" y="333"/>
      <point x="444" y="436" type="curve" smooth="yes"/>
      <point x="444" y="521"/>
      <point x="396" y="586"/>
      <point x="261" y="586" type="curve" smooth="yes"/>
      <point x="126" y="586"/>
      <point x="78" y="524"/>
      <point x="78" y="455" type="curve" smooth="yes"/>
      <point x="78" y="393"/>
      <point x="113" y="351"/>
      <point x="171" y="351" type="curve" smooth="yes"/>
      <point x="195" y="351" type="line"/>
      <point x="195" y="421" type="line"/>
      <point x="168" y="421"/>
      <point x="154" y="434"/>
      <point x="154" y="459" type="curve" smooth="yes"/>
      <point x="154" y="490"/>
      <point x="182" y="519"/>
      <point x="261" y="519" type="curve" smooth="yes"/>
      <point x="331" y="519"/>
      <point x="367" y="491"/>
      <point x="367" y="436" type="curve" smooth="yes"/>
      <point x="367" y="369"/>
      <point x="319" y="328"/>
      <point x="222" y="311" type="curve" smooth="yes"/>
      <point x="77" y="286" type="line"/>
      <point x="77" y="158" type="line" smooth="yes"/>
      <point x="77" y="68"/>
      <point x="119" y="0"/>
      <point x="207" y="0" type="curve" smooth="yes"/>
      <point x="266" y="0"/>
      <point x="327" y="37"/>
      <point x="366" y="75" type="curve"/>
      <point x="367" y="75" type="line"/>
    </contour>
  </outline>
</glyph>
<glyph name="uni17AA" format="2">
  <advance width="543"/>
  <unicode hex="17AA"/>
  <note>
uni17AA
</note>
  <outline>
    <contour>
      <point x="87" y="544" type="curve"/>
      <point x="153" y="588" type="line"/>
      <point x="128" y="617"/>
      <point x="116" y="635"/>
      <point x="116" y="646" type="curve" smooth="yes"/>
      <point x="116" y="651"/>
      <point x="118" y="653"/>
      <point x="128" y="665" type="curve"/>
      <point x="335" y="665" type="line" smooth="yes"/>
      <point x="416" y="665"/>
      <point x="457" y="696"/>
      <point x="457" y="757" type="curve" smooth="yes"/>
      <point x="457" y="830" type="line"/>
      <point x="380" y="830" type="line"/>
      <point x="380" y="757" type="line" smooth="yes"/>
      <point x="380" y="741"/>
      <point x="365" y="732"/>
      <point x="347" y="732" type="curve" smooth="yes"/>
      <point x="126" y="732" type="line"/>
      <point x="58" y="646"/>
      <point x="49" y="635"/>
      <point x="49" y="613" type="curve" smooth="yes"/>
      <point x="49" y="600"/>
      <point x="62" y="577"/>
    </contour>
    <contour>
      <point x="388" y="-4" type="line"/>
      <point x="465" y="-4" type="line"/>
      <point x="465" y="234" type="line"/>
      <point x="388" y="234" type="line"/>
      <point x="388" y="179" type="line" smooth="yes"/>
      <point x="388" y="138"/>
      <point x="296" y="67"/>
      <point x="236" y="67" type="curve" smooth="yes"/>
      <point x="189" y="67"/>
      <point x="175" y="98"/>
      <point x="175" y="158" type="curve" smooth="yes"/>
      <point x="175" y="231" type="line"/>
      <point x="248" y="244" type="line" smooth="yes"/>
      <point x="393" y="270"/>
      <point x="465" y="333"/>
      <point x="465" y="436" type="curve" smooth="yes"/>
      <point x="465" y="521"/>
      <point x="417" y="586"/>
      <point x="282" y="586" type="curve" smooth="yes"/>
      <point x="147" y="586"/>
      <point x="99" y="524"/>
      <point x="99" y="455" type="curve" smooth="yes"/>
      <point x="99" y="393"/>
      <point x="134" y="351"/>
      <point x="192" y="351" type="curve" smooth="yes"/>
      <point x="216" y="351" type="line"/>
      <point x="216" y="421" type="line"/>
      <point x="189" y="421"/>
      <point x="175" y="434"/>
      <point x="175" y="459" type="curve" smooth="yes"/>
      <point x="175" y="490"/>
      <point x="203" y="519"/>
      <point x="282" y="519" type="curve" smooth="yes"/>
      <point x="352" y="519"/>
      <point x="388" y="491"/>
      <point x="388" y="436" type="curve" smooth="yes"/>
      <point x="388" y="369"/>
      <point x="340" y="328"/>
      <point x="243" y="311" type="curve" smooth="yes"/>
      <point x="98" y="286" type="line"/>
      <point x="98" y="158" type="line" smooth="yes"/>
      <point x="98" y="68"/>
      <point x="140" y="0"/>
      <point x="228" y="0" type="curve" smooth="yes"/>
      <point x="287" y="0"/>
      <point x="348" y="37"/>
      <point x="387" y="75" type="curve"/>
      <point x="388" y="75" type="line"/>
    </contour>
  </outline>
</glyph>
<glyph name="uni17AB" format="2">
  <advance width="553"/>
  <unicode hex="17AB"/>
  <note>
uni17AB
</note>
  <outline>
    <contour>
      <point x="175" y="375" type="line"/>
      <point x="98" y="375" type="line"/>
      <point x="98" y="158" type="line" smooth="yes"/>
      <point x="98" y="53"/>
      <point x="158" y="0"/>
      <point x="280" y="0" type="curve" smooth="yes"/>
      <point x="403" y="0"/>
      <point x="464" y="53"/>
      <point x="464" y="158" type="curve" smooth="yes"/>
      <point x="464" y="375" type="line"/>
      <point x="387" y="375" type="line"/>
      <point x="387" y="158" type="line" smooth="yes"/>
      <point x="387" y="98"/>
      <point x="352" y="67"/>
      <point x="280" y="67" type="curve" smooth="yes"/>
      <point x="209" y="67"/>
      <point x="175" y="98"/>
      <point x="175" y="158" type="curve" smooth="yes"/>
    </contour>
    <contour>
      <point x="387" y="356" type="line"/>
      <point x="464" y="356" type="line"/>
      <point x="464" y="410" type="line"/>
      <point x="382" y="518" type="line"/>
      <point x="382" y="519" type="line"/>
      <point x="483" y="519" type="line"/>
      <point x="483" y="586" type="line"/>
      <point x="382" y="586" type="line"/>
      <point x="337" y="515"/>
      <point x="329" y="502"/>
      <point x="329" y="491" type="curve" smooth="yes"/>
      <point x="329" y="478"/>
      <point x="334" y="471"/>
      <point x="387" y="394" type="curve"/>
    </contour>
    <contour>
      <point x="98" y="356" type="line"/>
      <point x="175" y="356" type="line"/>
      <point x="175" y="410" type="line"/>
      <point x="93" y="518" type="line"/>
      <point x="93" y="519" type="line"/>
      <point x="194" y="519" type="line"/>
      <point x="194" y="586" type="line"/>
      <point x="93" y="586" type="line"/>
      <point x="48" y="515"/>
      <point x="40" y="502"/>
      <point x="40" y="491" type="curve" smooth="yes"/>
      <point x="40" y="478"/>
      <point x="45" y="471"/>
      <point x="98" y="394" type="curve"/>
    </contour>
    <contour>
      <point x="100" y="-244" type="line"/>
      <point x="222" y="-244" type="line" smooth="yes"/>
      <point x="384" y="-244"/>
      <point x="466" y="-192"/>
      <point x="466" y="-57" type="curve" smooth="yes"/>
      <point x="466" y="-24" type="line"/>
      <point x="344" y="-24" type="line"/>
      <point x="344" y="-88" type="line"/>
      <point x="389" y="-88" type="line"/>
      <point x="389" y="-153"/>
      <point x="333" y="-186"/>
      <point x="222" y="-186" type="curve" smooth="yes"/>
      <point x="100" y="-186" type="line"/>
    </contour>
  </outline>
</glyph>
<glyph name="uni17AC" format="2">
  <advance width="487"/>
  <unicode hex="17AC"/>
  <note>
uni17AC
</note>
  <outline>
    <contour>
      <point x="175" y="375" type="line"/>
      <point x="98" y="375" type="line"/>
      <point x="98" y="158" type="line" smooth="yes"/>
      <point x="98" y="53"/>
      <point x="158" y="0"/>
      <point x="280" y="0" type="curve" smooth="yes"/>
      <point x="403" y="0"/>
      <point x="464" y="53"/>
      <point x="464" y="158" type="curve" smooth="yes"/>
      <point x="464" y="375" type="line"/>
      <point x="387" y="375" type="line"/>
      <point x="387" y="158" type="line" smooth="yes"/>
      <point x="387" y="98"/>
      <point x="352" y="67"/>
      <point x="280" y="67" type="curve" smooth="yes"/>
      <point x="209" y="67"/>
      <point x="175" y="98"/>
      <point x="175" y="158" type="curve" smooth="yes"/>
    </contour>
    <contour>
      <point x="387" y="356" type="line"/>
      <point x="464" y="356" type="line"/>
      <point x="464" y="410" type="line"/>
      <point x="382" y="518" type="line"/>
      <point x="382" y="519" type="line"/>
      <point x="483" y="519" type="line"/>
      <point x="483" y="586" type="line"/>
      <point x="382" y="586" type="line"/>
      <point x="337" y="515"/>
      <point x="329" y="502"/>
      <point x="329" y="491" type="curve" smooth="yes"/>
      <point x="329" y="478"/>
      <point x="334" y="471"/>
      <point x="387" y="394" type="curve"/>
    </contour>
    <contour>
      <point x="98" y="356" type="line"/>
      <point x="175" y="356" type="line"/>
      <point x="175" y="410" type="line"/>
      <point x="93" y="518" type="line"/>
      <point x="93" y="519" type="line"/>
      <point x="194" y="519" type="line"/>
      <point x="194" y="586" type="line"/>
      <point x="93" y="586" type="line"/>
      <point x="48" y="515"/>
      <point x="40" y="502"/>
      <point x="40" y="491" type="curve" smooth="yes"/>
      <point x="40" y="478"/>
      <point x="45" y="471"/>
      <point x="98" y="394" type="curve"/>
    </contour>
    <contour>
      <point x="407" y="-194" type="line"/>
      <point x="434" y="-224"/>
      <point x="466" y="-244"/>
      <point x="503" y="-244" type="curve" smooth="yes"/>
      <point x="525" y="-244" type="line"/>
      <point x="525" y="-186" type="line"/>
      <point x="512" y="-186" type="line" smooth="yes"/>
      <point x="482" y="-186"/>
      <point x="464" y="-169"/>
      <point x="449" y="-141" type="curve"/>
    </contour>
    <contour>
      <point x="100" y="-244" type="line"/>
      <point x="222" y="-244" type="line" smooth="yes"/>
      <point x="384" y="-244"/>
      <point x="466" y="-192"/>
      <point x="466" y="-57" type="curve" smooth="yes"/>
      <point x="466" y="-24" type="line"/>
      <point x="344" y="-24" type="line"/>
      <point x="344" y="-88" type="line"/>
      <point x="389" y="-88" type="line"/>
      <point x="389" y="-153"/>
      <point x="333" y="-186"/>
      <point x="222" y="-186" type="curve" smooth="yes"/>
      <point x="100" y="-186" type="line"/>
    </contour>
  </outline>
</glyph>
<glyph name="uni17AE" format="2">
  <advance width="573"/>
  <unicode hex="17AE"/>
  <note>
uni17AE
</note>
  <outline>
    <contour>
      <point x="78" y="242" type="line"/>
      <point x="155" y="242" type="line"/>
      <point x="155" y="451" type="line" smooth="yes"/>
      <point x="155" y="492"/>
      <point x="165" y="513"/>
      <point x="185" y="513" type="curve" smooth="yes"/>
      <point x="218" y="513"/>
      <point x="234" y="452"/>
      <point x="262" y="452" type="curve" smooth="yes"/>
      <point x="289" y="452"/>
      <point x="305" y="513"/>
      <point x="339" y="513" type="curve" smooth="yes"/>
      <point x="359" y="513"/>
      <point x="368" y="492"/>
      <point x="368" y="451" type="curve" smooth="yes"/>
      <point x="368" y="0" type="line"/>
      <point x="445" y="0" type="line"/>
      <point x="445" y="451" type="line" smooth="yes"/>
      <point x="445" y="524"/>
      <point x="424" y="586"/>
      <point x="356" y="586" type="curve" smooth="yes"/>
      <point x="313" y="586"/>
      <point x="294" y="565"/>
      <point x="265" y="525" type="curve"/>
      <point x="262" y="525" type="line"/>
      <point x="232" y="566"/>
      <point x="204" y="586"/>
      <point x="170" y="586" type="curve" smooth="yes"/>
      <point x="102" y="586"/>
      <point x="78" y="524"/>
      <point x="78" y="451" type="curve" smooth="yes"/>
    </contour>
    <contour>
      <point x="78" y="260" type="line"/>
      <point x="78" y="60" type="line" smooth="yes"/>
      <point x="78" y="20"/>
      <point x="104" y="0"/>
      <point x="144" y="0" type="curve" smooth="yes"/>
      <point x="160" y="0" type="line" smooth="yes"/>
      <point x="213" y="0"/>
      <point x="256" y="44"/>
      <point x="256" y="113" type="curve" smooth="yes"/>
      <point x="256" y="187"/>
      <point x="206" y="219"/>
      <point x="155" y="219" type="curve"/>
      <point x="155" y="260" type="line" smooth="yes"/>
    </contour>
    <contour>
      <point x="155" y="67" type="curve"/>
      <point x="155" y="151" type="line"/>
      <point x="180" y="150"/>
      <point x="193" y="138"/>
      <point x="193" y="111" type="curve" smooth="yes"/>
      <point x="193" y="83"/>
      <point x="180" y="67"/>
    </contour>
    <contour>
      <point x="386" y="-194" type="line"/>
      <point x="413" y="-224"/>
      <point x="445" y="-244"/>
      <point x="482" y="-244" type="curve" smooth="yes"/>
      <point x="504" y="-244" type="line"/>
      <point x="504" y="-186" type="line"/>
      <point x="491" y="-186" type="line" smooth="yes"/>
      <point x="461" y="-186"/>
      <point x="443" y="-169"/>
      <point x="428" y="-141" type="curve"/>
    </contour>
    <contour>
      <point x="79" y="-244" type="line"/>
      <point x="201" y="-244" type="line" smooth="yes"/>
      <point x="363" y="-244"/>
      <point x="445" y="-192"/>
      <point x="445" y="-57" type="curve" smooth="yes"/>
      <point x="445" y="-24" type="line"/>
      <point x="323" y="-24" type="line"/>
      <point x="323" y="-88" type="line"/>
      <point x="368" y="-88" type="line"/>
      <point x="368" y="-153"/>
      <point x="312" y="-186"/>
      <point x="201" y="-186" type="curve" smooth="yes"/>
      <point x="79" y="-186" type="line"/>
    </contour>
  </outline>
</glyph>
<glyph name="uni17AF" format="2">
  <advance width="523"/>
  <unicode hex="17AF"/>
  <note>
uni17AF
</note>
  <outline>
    <contour>
      <point x="77" y="0" type="line"/>
      <point x="166" y="0" type="line"/>
      <point x="260" y="103" type="line"/>
      <point x="354" y="0" type="line"/>
      <point x="443" y="0" type="line"/>
      <point x="443" y="438" type="line" smooth="yes"/>
      <point x="443" y="537"/>
      <point x="404" y="586"/>
      <point x="327" y="586" type="curve" smooth="yes"/>
      <point x="211" y="586" type="line" smooth="yes"/>
      <point x="173" y="586"/>
      <point x="154" y="610"/>
      <point x="154" y="643" type="curve" smooth="yes"/>
      <point x="154" y="742" type="line"/>
      <point x="77" y="742" type="line"/>
      <point x="77" y="643" type="line" smooth="yes"/>
      <point x="77" y="559"/>
      <point x="135" y="519"/>
      <point x="211" y="519" type="curve" smooth="yes"/>
      <point x="289" y="519" type="line" smooth="yes"/>
      <point x="340" y="519"/>
      <point x="366" y="492"/>
      <point x="366" y="438" type="curve" smooth="yes"/>
      <point x="366" y="82" type="line"/>
      <point x="260" y="198" type="line"/>
      <point x="154" y="81" type="line"/>
      <point x="154" y="392" type="line" smooth="yes"/>
      <point x="154" y="439"/>
      <point x="134" y="462"/>
      <point x="97" y="462" type="curve" smooth="yes"/>
      <point x="36" y="462" type="line"/>
      <point x="36" y="392" type="line"/>
      <point x="64" y="392"/>
      <point x="77" y="385"/>
      <point x="77" y="372" type="curve" smooth="yes"/>
    </contour>
  </outline>
</glyph>
<glyph name="uni17B0" format="2">
  <advance width="523"/>
  <unicode hex="17B0"/>
  <note>
uni17B0
</note>
  <outline>
    <contour>
      <point x="78" y="242" type="line"/>
      <point x="155" y="242" type="line"/>
      <point x="155" y="451" type="line" smooth="yes"/>
      <point x="155" y="492"/>
      <point x="165" y="513"/>
      <point x="185" y="513" type="curve" smooth="yes"/>
      <point x="218" y="513"/>
      <point x="234" y="452"/>
      <point x="262" y="452" type="curve" smooth="yes"/>
      <point x="289" y="452"/>
      <point x="305" y="513"/>
      <point x="339" y="513" type="curve" smooth="yes"/>
      <point x="359" y="513"/>
      <point x="368" y="492"/>
      <point x="368" y="451" type="curve" smooth="yes"/>
      <point x="368" y="0" type="line"/>
      <point x="445" y="0" type="line"/>
      <point x="445" y="451" type="line" smooth="yes"/>
      <point x="445" y="524"/>
      <point x="424" y="586"/>
      <point x="356" y="586" type="curve" smooth="yes"/>
      <point x="313" y="586"/>
      <point x="294" y="565"/>
      <point x="265" y="525" type="curve"/>
      <point x="262" y="525" type="line"/>
      <point x="232" y="566"/>
      <point x="204" y="586"/>
      <point x="170" y="586" type="curve" smooth="yes"/>
      <point x="102" y="586"/>
      <point x="78" y="524"/>
      <point x="78" y="451" type="curve" smooth="yes"/>
    </contour>
    <contour>
      <point x="78" y="260" type="line"/>
      <point x="78" y="60" type="line" smooth="yes"/>
      <point x="78" y="20"/>
      <point x="104" y="0"/>
      <point x="144" y="0" type="curve" smooth="yes"/>
      <point x="160" y="0" type="line" smooth="yes"/>
      <point x="213" y="0"/>
      <point x="256" y="44"/>
      <point x="256" y="113" type="curve" smooth="yes"/>
      <point x="256" y="187"/>
      <point x="206" y="219"/>
      <point x="155" y="219" type="curve"/>
      <point x="155" y="260" type="line" smooth="yes"/>
    </contour>
    <contour>
      <point x="155" y="67" type="curve"/>
      <point x="155" y="151" type="line"/>
      <point x="180" y="150"/>
      <point x="193" y="138"/>
      <point x="193" y="111" type="curve" smooth="yes"/>
      <point x="193" y="83"/>
      <point x="180" y="67"/>
    </contour>
    <contour>
      <point x="207" y="-208" type="curve" smooth="yes"/>
      <point x="266" y="-208"/>
      <point x="302" y="-174"/>
      <point x="302" y="-143" type="curve"/>
      <point x="317" y="-151"/>
      <point x="336" y="-159"/>
      <point x="365" y="-159" type="curve" smooth="yes"/>
      <point x="406" y="-159"/>
      <point x="445" y="-132"/>
      <point x="445" y="-77" type="curve" smooth="yes"/>
      <point x="445" y="12" type="line"/>
      <point x="377" y="12" type="line"/>
      <point x="364" y="-17"/>
      <point x="279" y="-33"/>
      <point x="119" y="-79" type="curve"/>
      <point x="119" y="-141" type="line" smooth="yes"/>
      <point x="119" y="-178"/>
      <point x="147" y="-208"/>
    </contour>
    <contour>
      <point x="219" y="-156" type="curve" smooth="yes"/>
      <point x="199" y="-156"/>
      <point x="187" y="-149"/>
      <point x="187" y="-130" type="curve" smooth="yes"/>
      <point x="187" y="-114" type="line"/>
      <point x="260" y="-92" type="line"/>
      <point x="260" y="-119" type="line" smooth="yes"/>
      <point x="260" y="-142"/>
      <point x="245" y="-156"/>
    </contour>
    <contour>
      <point x="377" y="-80" type="line" smooth="yes"/>
      <point x="377" y="-103"/>
      <point x="356" y="-111"/>
      <point x="337" y="-111" type="curve" smooth="yes"/>
      <point x="319" y="-111"/>
      <point x="303" y="-103"/>
      <point x="303" y="-91" type="curve" smooth="yes"/>
      <point x="303" y="-80" type="line"/>
      <point x="377" y="-58" type="line"/>
    </contour>
  </outline>
</glyph>
<glyph name="uni17B1" format="2">
  <advance width="534"/>
  <unicode hex="17B1"/>
  <note>
uni17B1
</note>
  <outline>
    <contour>
      <point x="68" y="544" type="curve"/>
      <point x="134" y="588" type="line"/>
      <point x="109" y="617"/>
      <point x="97" y="635"/>
      <point x="97" y="646" type="curve" smooth="yes"/>
      <point x="97" y="651"/>
      <point x="99" y="653"/>
      <point x="109" y="665" type="curve"/>
      <point x="371" y="665" type="line" smooth="yes"/>
      <point x="407" y="665"/>
      <point x="434" y="632"/>
      <point x="450" y="567" type="curve"/>
      <point x="517" y="597" type="line"/>
      <point x="501" y="687"/>
      <point x="452" y="732"/>
      <point x="371" y="732" type="curve" smooth="yes"/>
      <point x="107" y="732" type="line"/>
      <point x="39" y="646"/>
      <point x="30" y="635"/>
      <point x="30" y="613" type="curve" smooth="yes"/>
      <point x="30" y="600"/>
      <point x="43" y="577"/>
    </contour>
    <contour>
      <point x="381" y="-4" type="line"/>
      <point x="458" y="-4" type="line"/>
      <point x="458" y="234" type="line"/>
      <point x="381" y="234" type="line"/>
      <point x="381" y="179" type="line" smooth="yes"/>
      <point x="381" y="138"/>
      <point x="289" y="67"/>
      <point x="229" y="67" type="curve" smooth="yes"/>
      <point x="182" y="67"/>
      <point x="168" y="98"/>
      <point x="168" y="158" type="curve" smooth="yes"/>
      <point x="168" y="231" type="line"/>
      <point x="241" y="244" type="line" smooth="yes"/>
      <point x="386" y="270"/>
      <point x="458" y="333"/>
      <point x="458" y="436" type="curve" smooth="yes"/>
      <point x="458" y="521"/>
      <point x="410" y="586"/>
      <point x="275" y="586" type="curve" smooth="yes"/>
      <point x="140" y="586"/>
      <point x="92" y="524"/>
      <point x="92" y="455" type="curve" smooth="yes"/>
      <point x="92" y="393"/>
      <point x="127" y="351"/>
      <point x="185" y="351" type="curve" smooth="yes"/>
      <point x="209" y="351" type="line"/>
      <point x="209" y="421" type="line"/>
      <point x="182" y="421"/>
      <point x="168" y="434"/>
      <point x="168" y="459" type="curve" smooth="yes"/>
      <point x="168" y="490"/>
      <point x="196" y="519"/>
      <point x="275" y="519" type="curve" smooth="yes"/>
      <point x="345" y="519"/>
      <point x="381" y="491"/>
      <point x="381" y="436" type="curve" smooth="yes"/>
      <point x="381" y="369"/>
      <point x="333" y="328"/>
      <point x="236" y="311" type="curve" smooth="yes"/>
      <point x="91" y="286" type="line"/>
      <point x="91" y="158" type="line" smooth="yes"/>
      <point x="91" y="68"/>
      <point x="133" y="0"/>
      <point x="221" y="0" type="curve" smooth="yes"/>
      <point x="280" y="0"/>
      <point x="341" y="37"/>
      <point x="380" y="75" type="curve"/>
      <point x="381" y="75" type="line"/>
    </contour>
  </outline>
</glyph>
<glyph name="uni17B2" format="2">
  <advance width="503"/>
  <unicode hex="17B2"/>
  <note>
uni17B2
</note>
  <outline>
    <contour>
      <point x="259" y="0" type="curve" smooth="yes"/>
      <point x="394" y="0"/>
      <point x="452" y="68"/>
      <point x="452" y="158" type="curve" smooth="yes"/>
      <point x="452" y="224"/>
      <point x="440" y="249"/>
      <point x="419" y="284" type="curve"/>
      <point x="456" y="326"/>
      <point x="463" y="333"/>
      <point x="463" y="348" type="curve" smooth="yes"/>
      <point x="463" y="358"/>
      <point x="459" y="364"/>
      <point x="410" y="439" type="curve"/>
      <point x="256" y="439" type="line"/>
      <point x="256" y="372" type="line"/>
      <point x="410" y="372" type="line"/>
      <point x="274" y="227" type="line"/>
      <point x="320" y="176" type="line"/>
      <point x="363" y="221" type="line"/>
      <point x="365" y="210"/>
      <point x="375" y="200"/>
      <point x="375" y="158" type="curve" smooth="yes"/>
      <point x="375" y="98"/>
      <point x="338" y="67"/>
      <point x="259" y="67" type="curve" smooth="yes"/>
      <point x="180" y="67"/>
      <point x="153" y="98"/>
      <point x="153" y="158" type="curve" smooth="yes"/>
      <point x="153" y="428" type="line" smooth="yes"/>
      <point x="153" y="488"/>
      <point x="184" y="519"/>
      <point x="249" y="519" type="curve" smooth="yes"/>
      <point x="311" y="519"/>
      <point x="359" y="506"/>
      <point x="391" y="481" type="curve"/>
      <point x="422" y="541" type="line"/>
      <point x="384" y="571"/>
      <point x="326" y="586"/>
      <point x="249" y="586" type="curve" smooth="yes"/>
      <point x="127" y="586"/>
      <point x="76" y="518"/>
      <point x="76" y="428" type="curve" smooth="yes"/>
      <point x="76" y="158" type="line" smooth="yes"/>
      <point x="76" y="68"/>
      <point x="124" y="0"/>
    </contour>
  </outline>
</glyph>
<glyph name="uni17B3" format="2">
  <advance width="526"/>
  <unicode hex="17B3"/>
  <note>
uni17B3
</note>
  <outline>
    <contour>
      <point x="68" y="544" type="curve"/>
      <point x="134" y="588" type="line"/>
      <point x="109" y="617"/>
      <point x="97" y="635"/>
      <point x="97" y="646" type="curve" smooth="yes"/>
      <point x="97" y="651"/>
      <point x="99" y="653"/>
      <point x="109" y="665" type="curve"/>
      <point x="337" y="665" type="line"/>
      <point x="425" y="560" type="line"/>
      <point x="486" y="597" type="line"/>
      <point x="472" y="675"/>
      <point x="434" y="720"/>
      <point x="371" y="730" type="curve"/>
      <point x="335" y="772"/>
      <point x="330" y="785"/>
      <point x="330" y="809" type="curve" smooth="yes"/>
      <point x="330" y="833"/>
      <point x="339" y="856"/>
      <point x="364" y="890" type="curve"/>
      <point x="299" y="923" type="line"/>
      <point x="267" y="885"/>
      <point x="252" y="849"/>
      <point x="252" y="814" type="curve" smooth="yes"/>
      <point x="252" y="787"/>
      <point x="262" y="759"/>
      <point x="282" y="732" type="curve"/>
      <point x="107" y="732" type="line"/>
      <point x="39" y="646"/>
      <point x="30" y="635"/>
      <point x="30" y="613" type="curve" smooth="yes"/>
      <point x="30" y="600"/>
      <point x="43" y="577"/>
    </contour>
    <contour>
      <point x="367" y="-4" type="line"/>
      <point x="444" y="-4" type="line"/>
      <point x="444" y="234" type="line"/>
      <point x="367" y="234" type="line"/>
      <point x="367" y="179" type="line" smooth="yes"/>
      <point x="367" y="138"/>
      <point x="275" y="67"/>
      <point x="215" y="67" type="curve" smooth="yes"/>
      <point x="168" y="67"/>
      <point x="154" y="98"/>
      <point x="154" y="158" type="curve" smooth="yes"/>
      <point x="154" y="231" type="line"/>
      <point x="227" y="244" type="line" smooth="yes"/>
      <point x="372" y="270"/>
      <point x="444" y="333"/>
      <point x="444" y="436" type="curve" smooth="yes"/>
      <point x="444" y="521"/>
      <point x="396" y="586"/>
      <point x="261" y="586" type="curve" smooth="yes"/>
      <point x="126" y="586"/>
      <point x="78" y="524"/>
      <point x="78" y="455" type="curve" smooth="yes"/>
      <point x="78" y="393"/>
      <point x="113" y="351"/>
      <point x="171" y="351" type="curve" smooth="yes"/>
      <point x="195" y="351" type="line"/>
      <point x="195" y="421" type="line"/>
      <point x="168" y="421"/>
      <point x="154" y="434"/>
      <point x="154" y="459" type="curve" smooth="yes"/>
      <point x="154" y="490"/>
      <point x="182" y="519"/>
      <point x="261" y="519" type="curve" smooth="yes"/>
      <point x="331" y="519"/>
      <point x="367" y="491"/>
      <point x="367" y="436" type="curve" smooth="yes"/>
      <point x="367" y="369"/>
      <point x="319" y="328"/>
      <point x="222" y="311" type="curve" smooth="yes"/>
      <point x="77" y="286" type="line"/>
      <point x="77" y="158" type="line" smooth="yes"/>
      <point x="77" y="68"/>
      <point x="119" y="0"/>
      <point x="207" y="0" type="curve" smooth="yes"/>
      <point x="266" y="0"/>
      <point x="327" y="37"/>
      <point x="366" y="75" type="curve"/>
      <point x="367" y="75" type="line"/>
    </contour>
  </outline>
</glyph>
<glyph name="uni17B4" format="2">
  <advance width="203"/>
  <unicode hex="17B4"/>
  <note>
uni17B4
</note>
  <outline>
    <contour>
      <point x="122" y="605" type="line"/>
      <point x="122" y="750" type="line" smooth="yes"/>
      <point x="122" y="816"/>
      <point x="120" y="854"/>
      <point x="63" y="854" type="curve" smooth="yes"/>
      <point x="-24" y="854" type="line"/>
      <point x="-24" y="787" type="line"/>
      <point x="2" y="787" type="line" smooth="yes"/>
      <point x="31" y="787"/>
      <point x="41" y="778"/>
      <point x="41" y="743" type="curve" smooth="yes"/>
      <point x="41" y="605" type="line"/>
    </contour>
    <contour>
      <point x="48" y="0" type="line"/>
      <point x="125" y="0" type="line"/>
      <point x="125" y="458" type="line" smooth="yes"/>
      <point x="125" y="543"/>
      <point x="103" y="586"/>
      <point x="7" y="586" type="curve" smooth="yes"/>
      <point x="-98" y="586" type="line"/>
      <point x="-98" y="519" type="line"/>
      <point x="-17" y="519" type="line" smooth="yes"/>
      <point x="32" y="519"/>
      <point x="48" y="504"/>
      <point x="48" y="458" type="curve" smooth="yes"/>
    </contour>
  </outline>
</glyph>
<glyph name="uni17B5" format="2">
  <advance width="203"/>
  <unicode hex="17B5"/>
  <note>
uni17B5
</note>
  <outline>
    <contour>
      <point x="48" y="0" type="line"/>
      <point x="125" y="0" type="line"/>
      <point x="125" y="458" type="line" smooth="yes"/>
      <point x="125" y="543"/>
      <point x="103" y="586"/>
      <point x="7" y="586" type="curve" smooth="yes"/>
      <point x="-98" y="586" type="line"/>
      <point x="-98" y="519" type="line"/>
      <point x="-17" y="519" type="line" smooth="yes"/>
      <point x="32" y="519"/>
      <point x="48" y="504"/>
      <point x="48" y="458" type="curve" smooth="yes"/>
    </contour>
  </outline>
</glyph>
<glyph name="uni17B6" format="2">
  <advance width="203"/>
  <unicode hex="17B6"/>
  <note>
uni17B6
</note>
  <outline>
    <contour>
      <point x="48" y="0" type="line"/>
      <point x="125" y="0" type="line"/>
      <point x="125" y="458" type="line" smooth="yes"/>
      <point x="125" y="543"/>
      <point x="103" y="586"/>
      <point x="7" y="586" type="curve" smooth="yes"/>
      <point x="-98" y="586" type="line"/>
      <point x="-98" y="519" type="line"/>
      <point x="-17" y="519" type="line" smooth="yes"/>
      <point x="32" y="519"/>
      <point x="48" y="504"/>
      <point x="48" y="458" type="curve" smooth="yes"/>
    </contour>
  </outline>
</glyph>
<glyph name="uni17B8" format="2">
  <unicode hex="17B8"/>
  <note>
uni17B8
</note>
  <outline>
    <contour>
      <point x="-120" y="684" type="line"/>
      <point x="-120" y="903" type="line"/>
      <point x="-176" y="903" type="line"/>
      <point x="-176" y="684" type="line"/>
    </contour>
    <contour>
      <point x="-411" y="684" type="curve" smooth="yes"/>
      <point x="-120" y="684" type="line"/>
      <point x="-120" y="757" type="line"/>
      <point x="-179" y="822"/>
      <point x="-259" y="879"/>
      <point x="-339" y="879" type="curve" smooth="yes"/>
      <point x="-421" y="879"/>
      <point x="-466" y="822"/>
      <point x="-466" y="757" type="curve" smooth="yes"/>
      <point x="-466" y="708"/>
      <point x="-453" y="684"/>
    </contour>
    <contour>
      <point x="-404" y="747" type="line"/>
      <point x="-404" y="792"/>
      <point x="-378" y="815"/>
      <point x="-337" y="815" type="curve" smooth="yes"/>
      <point x="-300" y="815"/>
      <point x="-259" y="799"/>
      <point x="-198" y="747" type="curve"/>
    </contour>
  </outline>
</glyph>
<glyph name="uni17B9" format="2">
  <unicode hex="17B9"/>
  <note>
uni17B9
</note>
  <outline>
    <contour>
      <point x="-281" y="865" type="curve"/>
      <point x="-138" y="769" type="line"/>
      <point x="-131" y="778"/>
      <point x="-114" y="813"/>
      <point x="-114" y="847" type="curve" smooth="yes"/>
      <point x="-114" y="897"/>
      <point x="-151" y="927"/>
      <point x="-192" y="927" type="curve" smooth="yes"/>
      <point x="-230" y="927"/>
      <point x="-266" y="902"/>
    </contour>
    <contour>
      <point x="-235" y="848" type="line"/>
      <point x="-223" y="864"/>
      <point x="-211" y="872"/>
      <point x="-197" y="872" type="curve" smooth="yes"/>
      <point x="-176" y="872"/>
      <point x="-165" y="856"/>
      <point x="-165" y="839" type="curve" smooth="yes"/>
      <point x="-165" y="830"/>
      <point x="-168" y="811"/>
      <point x="-173" y="805" type="curve"/>
    </contour>
    <contour>
      <point x="-411" y="684" type="curve" smooth="yes"/>
      <point x="-120" y="684" type="line"/>
      <point x="-120" y="757" type="line"/>
      <point x="-179" y="822"/>
      <point x="-259" y="879"/>
      <point x="-339" y="879" type="curve" smooth="yes"/>
      <point x="-421" y="879"/>
      <point x="-466" y="822"/>
      <point x="-466" y="757" type="curve" smooth="yes"/>
      <point x="-466" y="708"/>
      <point x="-453" y="684"/>
    </contour>
    <contour>
      <point x="-404" y="747" type="line"/>
      <point x="-404" y="792"/>
      <point x="-378" y="815"/>
      <point x="-337" y="815" type="curve" smooth="yes"/>
      <point x="-300" y="815"/>
      <point x="-259" y="799"/>
      <point x="-198" y="747" type="curve"/>
    </contour>
  </outline>
</glyph>
<glyph name="uni17BA" format="2">
  <unicode hex="17BA"/>
  <note>
uni17BA
</note>
  <outline>
    <contour>
      <point x="-176" y="903" type="line"/>
      <point x="-176" y="684" type="line"/>
      <point x="-120" y="684" type="line"/>
      <point x="-120" y="903" type="line"/>
    </contour>
    <contour>
      <point x="-265" y="928" type="line"/>
      <point x="-265" y="828" type="line"/>
      <point x="-209" y="828" type="line"/>
      <point x="-209" y="928" type="line"/>
    </contour>
    <contour>
      <point x="-411" y="684" type="curve" smooth="yes"/>
      <point x="-120" y="684" type="line"/>
      <point x="-120" y="757" type="line"/>
      <point x="-179" y="822"/>
      <point x="-259" y="879"/>
      <point x="-339" y="879" type="curve" smooth="yes"/>
      <point x="-421" y="879"/>
      <point x="-466" y="822"/>
      <point x="-466" y="757" type="curve" smooth="yes"/>
      <point x="-466" y="708"/>
      <point x="-453" y="684"/>
    </contour>
    <contour>
      <point x="-404" y="747" type="line"/>
      <point x="-404" y="792"/>
      <point x="-378" y="815"/>
      <point x="-337" y="815" type="curve" smooth="yes"/>
      <point x="-300" y="815"/>
      <point x="-259" y="799"/>
      <point x="-198" y="747" type="curve"/>
    </contour>
  </outline>
</glyph>
<glyph name="uni17BB" format="2">
  <unicode hex="17BB"/>
  <note>
uni17BB
</note>
  <outline>
    <contour>
      <point x="-314" y="-244" type="line"/>
      <point x="-237" y="-244" type="line"/>
      <point x="-237" y="-34" type="line"/>
      <point x="-357" y="-34" type="line"/>
      <point x="-357" y="-92" type="line"/>
      <point x="-314" y="-92" type="line"/>
    </contour>
  </outline>
</glyph>
<glyph name="uni17BD" format="2">
  <unicode hex="17BD"/>
  <note>
uni17BD
</note>
  <outline>
    <contour>
      <point x="-429" y="-244" type="line"/>
      <point x="-347" y="-244" type="line"/>
      <point x="-297" y="-191" type="line"/>
      <point x="-246" y="-244" type="line"/>
      <point x="-165" y="-244" type="line"/>
      <point x="-165" y="-34" type="line"/>
      <point x="-237" y="-34" type="line"/>
      <point x="-237" y="-186" type="line"/>
      <point x="-297" y="-122" type="line"/>
      <point x="-357" y="-187" type="line"/>
      <point x="-357" y="-34" type="line"/>
      <point x="-429" y="-34" type="line"/>
    </contour>
  </outline>
</glyph>
<glyph name="uni17BE" format="2">
  <unicode hex="17BE"/>
  <note>
uni17BE
</note>
  <outline>
    <contour>
      <point x="682" y="684" type="line"/>
      <point x="682" y="903" type="line"/>
      <point x="626" y="903" type="line"/>
      <point x="626" y="684" type="line"/>
    </contour>
    <contour>
      <point x="391" y="684" type="curve" smooth="yes"/>
      <point x="682" y="684" type="line"/>
      <point x="682" y="757" type="line"/>
      <point x="623" y="822"/>
      <point x="543" y="879"/>
      <point x="463" y="879" type="curve" smooth="yes"/>
      <point x="381" y="879"/>
      <point x="336" y="822"/>
      <point x="336" y="757" type="curve" smooth="yes"/>
      <point x="336" y="708"/>
      <point x="349" y="684"/>
    </contour>
    <contour>
      <point x="398" y="747" type="line"/>
      <point x="398" y="792"/>
      <point x="424" y="815"/>
      <point x="465" y="815" type="curve" smooth="yes"/>
      <point x="502" y="815"/>
      <point x="543" y="799"/>
      <point x="604" y="747" type="curve"/>
    </contour>
    <contour>
      <point x="165" y="377" type="line"/>
      <point x="88" y="377" type="line"/>
      <point x="88" y="50" type="line" smooth="yes"/>
      <point x="88" y="17"/>
      <point x="109" y="0"/>
      <point x="150" y="0" type="curve" smooth="yes"/>
      <point x="231" y="0" type="line"/>
      <point x="231" y="67" type="line"/>
      <point x="191" y="67" type="line" smooth="yes"/>
      <point x="171" y="67"/>
      <point x="165" y="75"/>
      <point x="165" y="102" type="curve" smooth="yes"/>
    </contour>
    <contour>
      <point x="88" y="356" type="line"/>
      <point x="165" y="356" type="line"/>
      <point x="165" y="410" type="line"/>
      <point x="83" y="518" type="line"/>
      <point x="83" y="519" type="line"/>
      <point x="184" y="519" type="line"/>
      <point x="184" y="586" type="line"/>
      <point x="83" y="586" type="line"/>
      <point x="38" y="515"/>
      <point x="30" y="502"/>
      <point x="30" y="491" type="curve" smooth="yes"/>
      <point x="30" y="478"/>
      <point x="35" y="471"/>
      <point x="88" y="394" type="curve"/>
    </contour>
    <contour>
      <point x="339.992" y="267" type="curve" smooth="yes"/>
      <point x="350.821" y="267"/>
      <point x="359.984" y="278"/>
      <point x="359.984" y="291" type="curve" smooth="yes"/>
      <point x="359.984" y="304"/>
      <point x="350.821" y="315"/>
      <point x="339.992" y="315" type="curve" smooth="yes"/>
      <point x="329.163" y="315"/>
      <point x="320" y="304"/>
      <point x="320" y="291" type="curve" smooth="yes"/>
      <point x="320" y="278"/>
      <point x="329.163" y="267"/>
    </contour>
    <contour>
      <point x="360.992" y="368" type="curve" smooth="yes"/>
      <point x="371.821" y="368"/>
      <point x="380.984" y="379"/>
      <point x="380.984" y="392" type="curve" smooth="yes"/>
      <point x="380.984" y="405"/>
      <point x="371.821" y="416"/>
      <point x="360.992" y="416" type="curve" smooth="yes"/>
      <point x="350.163" y="416"/>
      <point x="341" y="405"/>
      <point x="341" y="392" type="curve" smooth="yes"/>
      <point x="341" y="379"/>
      <point x="350.163" y="368"/>
    </contour>
    <contour>
      <point x="419.992" y="438" type="curve" smooth="yes"/>
      <point x="430.821" y="438"/>
      <point x="439.984" y="449"/>
      <point x="439.984" y="462" type="curve" smooth="yes"/>
      <point x="439.984" y="475"/>
      <point x="430.821" y="486"/>
      <point x="419.992" y="486" type="curve" smooth="yes"/>
      <point x="409.163" y="486"/>
      <point x="400" y="475"/>
      <point x="400" y="462" type="curve" smooth="yes"/>
      <point x="400" y="449"/>
      <point x="409.163" y="438"/>
    </contour>
    <contour>
      <point x="500.992" y="462" type="curve" smooth="yes"/>
      <point x="511.821" y="462"/>
      <point x="520.984" y="473"/>
      <point x="520.984" y="486" type="curve" smooth="yes"/>
      <point x="520.984" y="499"/>
      <point x="511.821" y="510"/>
      <point x="500.992" y="510" type="curve" smooth="yes"/>
      <point x="490.163" y="510"/>
      <point x="481" y="499"/>
      <point x="481" y="486" type="curve" smooth="yes"/>
      <point x="481" y="473"/>
      <point x="490.163" y="462"/>
    </contour>
    <contour>
      <point x="581.992" y="438" type="curve" smooth="yes"/>
      <point x="592.821" y="438"/>
      <point x="601.984" y="449"/>
      <point x="601.984" y="462" type="curve" smooth="yes"/>
      <point x="601.984" y="475"/>
      <point x="592.821" y="486"/>
      <point x="581.992" y="486" type="curve" smooth="yes"/>
      <point x="571.163" y="486"/>
      <point x="562" y="475"/>
      <point x="562" y="462" type="curve" smooth="yes"/>
      <point x="562" y="449"/>
      <point x="571.163" y="438"/>
    </contour>
    <contour>
      <point x="639.992" y="366" type="curve" smooth="yes"/>
      <point x="650.821" y="366"/>
      <point x="659.984" y="377"/>
      <point x="659.984" y="390" type="curve" smooth="yes"/>
      <point x="659.984" y="403"/>
      <point x="650.821" y="414"/>
      <point x="639.992" y="414" type="curve" smooth="yes"/>
      <point x="629.163" y="414"/>
      <point x="620" y="403"/>
      <point x="620" y="390" type="curve" smooth="yes"/>
      <point x="620" y="377"/>
      <point x="629.163" y="366"/>
    </contour>
    <contour>
      <point x="664.992" y="267" type="curve" smooth="yes"/>
      <point x="675.821" y="267"/>
      <point x="684.984" y="278"/>
      <point x="684.984" y="291" type="curve" smooth="yes"/>
      <point x="684.984" y="304"/>
      <point x="675.821" y="315"/>
      <point x="664.992" y="315" type="curve" smooth="yes"/>
      <point x="654.163" y="315"/>
      <point x="645" y="304"/>
      <point x="645" y="291" type="curve" smooth="yes"/>
      <point x="645" y="278"/>
      <point x="654.163" y="267"/>
    </contour>
    <contour>
      <point x="641.992" y="173" type="curve" smooth="yes"/>
      <point x="652.821" y="173"/>
      <point x="661.984" y="184"/>
      <point x="661.984" y="197" type="curve" smooth="yes"/>
      <point x="661.984" y="210"/>
      <point x="652.821" y="221"/>
      <point x="641.992" y="221" type="curve" smooth="yes"/>
      <point x="631.163" y="221"/>
      <point x="622" y="210"/>
      <point x="622" y="197" type="curve" smooth="yes"/>
      <point x="622" y="184"/>
      <point x="631.163" y="173"/>
    </contour>
    <contour>
      <point x="582.992" y="101" type="curve" smooth="yes"/>
      <point x="593.821" y="101"/>
      <point x="602.984" y="112"/>
      <point x="602.984" y="125" type="curve" smooth="yes"/>
      <point x="602.984" y="138"/>
      <point x="593.821" y="149"/>
      <point x="582.992" y="149" type="curve" smooth="yes"/>
      <point x="572.163" y="149"/>
      <point x="563" y="138"/>
      <point x="563" y="125" type="curve" smooth="yes"/>
      <point x="563" y="112"/>
      <point x="572.163" y="101"/>
    </contour>
    <contour>
      <point x="500.992" y="73" type="curve" smooth="yes"/>
      <point x="511.821" y="73"/>
      <point x="520.984" y="84"/>
      <point x="520.984" y="97" type="curve" smooth="yes"/>
      <point x="520.984" y="110"/>
      <point x="511.821" y="121"/>
      <point x="500.992" y="121" type="curve" smooth="yes"/>
      <point x="490.163" y="121"/>
      <point x="481" y="110"/>
      <point x="481" y="97" type="curve" smooth="yes"/>
      <point x="481" y="84"/>
      <point x="490.163" y="73"/>
    </contour>
    <contour>
      <point x="419.992" y="100" type="curve" smooth="yes"/>
      <point x="430.821" y="100"/>
      <point x="439.984" y="111"/>
      <point x="439.984" y="124" type="curve" smooth="yes"/>
      <point x="439.984" y="137"/>
      <point x="430.821" y="148"/>
      <point x="419.992" y="148" type="curve" smooth="yes"/>
      <point x="409.163" y="148"/>
      <point x="400" y="137"/>
      <point x="400" y="124" type="curve" smooth="yes"/>
      <point x="400" y="111"/>
      <point x="409.163" y="100"/>
    </contour>
    <contour>
      <point x="359.992" y="172" type="curve" smooth="yes"/>
      <point x="370.821" y="172"/>
      <point x="379.984" y="183"/>
      <point x="379.984" y="196" type="curve" smooth="yes"/>
      <point x="379.984" y="209"/>
      <point x="370.821" y="220"/>
      <point x="359.992" y="220" type="curve" smooth="yes"/>
      <point x="349.163" y="220"/>
      <point x="340" y="209"/>
      <point x="340" y="196" type="curve" smooth="yes"/>
      <point x="340" y="183"/>
      <point x="349.163" y="172"/>
    </contour>
  </outline>
</glyph>
<glyph name="uni17BF" format="2">
  <advance width="1012"/>
  <unicode hex="17BF"/>
  <note>
uni17BF
</note>
  <outline>
    <contour>
      <point x="165" y="377" type="line"/>
      <point x="88" y="377" type="line"/>
      <point x="88" y="50" type="line" smooth="yes"/>
      <point x="88" y="17"/>
      <point x="109" y="0"/>
      <point x="150" y="0" type="curve" smooth="yes"/>
      <point x="231" y="0" type="line"/>
      <point x="231" y="67" type="line"/>
      <point x="191" y="67" type="line" smooth="yes"/>
      <point x="171" y="67"/>
      <point x="165" y="75"/>
      <point x="165" y="102" type="curve" smooth="yes"/>
    </contour>
    <contour>
      <point x="88" y="356" type="line"/>
      <point x="165" y="356" type="line"/>
      <point x="165" y="410" type="line"/>
      <point x="83" y="518" type="line"/>
      <point x="83" y="519" type="line"/>
      <point x="184" y="519" type="line"/>
      <point x="184" y="586" type="line"/>
      <point x="83" y="586" type="line"/>
      <point x="38" y="515"/>
      <point x="30" y="502"/>
      <point x="30" y="491" type="curve" smooth="yes"/>
      <point x="30" y="478"/>
      <point x="35" y="471"/>
      <point x="88" y="394" type="curve"/>
    </contour>
    <contour>
      <point x="352.992" y="267" type="curve" smooth="yes"/>
      <point x="363.821" y="267"/>
      <point x="372.984" y="278"/>
      <point x="372.984" y="291" type="curve" smooth="yes"/>
      <point x="372.984" y="304"/>
      <point x="363.821" y="315"/>
      <point x="352.992" y="315" type="curve" smooth="yes"/>
      <point x="342.163" y="315"/>
      <point x="333" y="304"/>
      <point x="333" y="291" type="curve" smooth="yes"/>
      <point x="333" y="278"/>
      <point x="342.163" y="267"/>
    </contour>
    <contour>
      <point x="373.992" y="368" type="curve" smooth="yes"/>
      <point x="384.821" y="368"/>
      <point x="393.984" y="379"/>
      <point x="393.984" y="392" type="curve" smooth="yes"/>
      <point x="393.984" y="405"/>
      <point x="384.821" y="416"/>
      <point x="373.992" y="416" type="curve" smooth="yes"/>
      <point x="363.163" y="416"/>
      <point x="354" y="405"/>
      <point x="354" y="392" type="curve" smooth="yes"/>
      <point x="354" y="379"/>
      <point x="363.163" y="368"/>
    </contour>
    <contour>
      <point x="432.992" y="438" type="curve" smooth="yes"/>
      <point x="443.821" y="438"/>
      <point x="452.984" y="449"/>
      <point x="452.984" y="462" type="curve" smooth="yes"/>
      <point x="452.984" y="475"/>
      <point x="443.821" y="486"/>
      <point x="432.992" y="486" type="curve" smooth="yes"/>
      <point x="422.163" y="486"/>
      <point x="413" y="475"/>
      <point x="413" y="462" type="curve" smooth="yes"/>
      <point x="413" y="449"/>
      <point x="422.163" y="438"/>
    </contour>
    <contour>
      <point x="513.992" y="462" type="curve" smooth="yes"/>
      <point x="524.821" y="462"/>
      <point x="533.984" y="473"/>
      <point x="533.984" y="486" type="curve" smooth="yes"/>
      <point x="533.984" y="499"/>
      <point x="524.821" y="510"/>
      <point x="513.992" y="510" type="curve" smooth="yes"/>
      <point x="503.163" y="510"/>
      <point x="494" y="499"/>
      <point x="494" y="486" type="curve" smooth="yes"/>
      <point x="494" y="473"/>
      <point x="503.163" y="462"/>
    </contour>
    <contour>
      <point x="594.992" y="438" type="curve" smooth="yes"/>
      <point x="605.821" y="438"/>
      <point x="614.984" y="449"/>
      <point x="614.984" y="462" type="curve" smooth="yes"/>
      <point x="614.984" y="475"/>
      <point x="605.821" y="486"/>
      <point x="594.992" y="486" type="curve" smooth="yes"/>
      <point x="584.163" y="486"/>
      <point x="575" y="475"/>
      <point x="575" y="462" type="curve" smooth="yes"/>
      <point x="575" y="449"/>
      <point x="584.163" y="438"/>
    </contour>
    <contour>
      <point x="652.992" y="366" type="curve" smooth="yes"/>
      <point x="663.821" y="366"/>
      <point x="672.984" y="377"/>
      <point x="672.984" y="390" type="curve" smooth="yes"/>
      <point x="672.984" y="403"/>
      <point x="663.821" y="414"/>
      <point x="652.992" y="414" type="curve" smooth="yes"/>
      <point x="642.163" y="414"/>
      <point x="633" y="403"/>
      <point x="633" y="390" type="curve" smooth="yes"/>
      <point x="633" y="377"/>
      <point x="642.163" y="366"/>
    </contour>
    <contour>
      <point x="677.992" y="267" type="curve" smooth="yes"/>
      <point x="688.821" y="267"/>
      <point x="697.984" y="278"/>
      <point x="697.984" y="291" type="curve" smooth="yes"/>
      <point x="697.984" y="304"/>
      <point x="688.821" y="315"/>
      <point x="677.992" y="315" type="curve" smooth="yes"/>
      <point x="667.163" y="315"/>
      <point x="658" y="304"/>
      <point x="658" y="291" type="curve" smooth="yes"/>
      <point x="658" y="278"/>
      <point x="667.163" y="267"/>
    </contour>
    <contour>
      <point x="654.992" y="173" type="curve" smooth="yes"/>
      <point x="665.821" y="173"/>
      <point x="674.984" y="184"/>
      <point x="674.984" y="197" type="curve" smooth="yes"/>
      <point x="674.984" y="210"/>
      <point x="665.821" y="221"/>
      <point x="654.992" y="221" type="curve" smooth="yes"/>
      <point x="644.163" y="221"/>
      <point x="635" y="210"/>
      <point x="635" y="197" type="curve" smooth="yes"/>
      <point x="635" y="184"/>
      <point x="644.163" y="173"/>
    </contour>
    <contour>
      <point x="595.992" y="101" type="curve" smooth="yes"/>
      <point x="606.821" y="101"/>
      <point x="615.984" y="112"/>
      <point x="615.984" y="125" type="curve" smooth="yes"/>
      <point x="615.984" y="138"/>
      <point x="606.821" y="149"/>
      <point x="595.992" y="149" type="curve" smooth="yes"/>
      <point x="585.163" y="149"/>
      <point x="576" y="138"/>
      <point x="576" y="125" type="curve" smooth="yes"/>
      <point x="576" y="112"/>
      <point x="585.163" y="101"/>
    </contour>
    <contour>
      <point x="513.992" y="73" type="curve" smooth="yes"/>
      <point x="524.821" y="73"/>
      <point x="533.984" y="84"/>
      <point x="533.984" y="97" type="curve" smooth="yes"/>
      <point x="533.984" y="110"/>
      <point x="524.821" y="121"/>
      <point x="513.992" y="121" type="curve" smooth="yes"/>
      <point x="503.163" y="121"/>
      <point x="494" y="110"/>
      <point x="494" y="97" type="curve" smooth="yes"/>
      <point x="494" y="84"/>
      <point x="503.163" y="73"/>
    </contour>
    <contour>
      <point x="432.992" y="100" type="curve" smooth="yes"/>
      <point x="443.821" y="100"/>
      <point x="452.984" y="111"/>
      <point x="452.984" y="124" type="curve" smooth="yes"/>
      <point x="452.984" y="137"/>
      <point x="443.821" y="148"/>
      <point x="432.992" y="148" type="curve" smooth="yes"/>
      <point x="422.163" y="148"/>
      <point x="413" y="137"/>
      <point x="413" y="124" type="curve" smooth="yes"/>
      <point x="413" y="111"/>
      <point x="422.163" y="100"/>
    </contour>
    <contour>
      <point x="372.992" y="172" type="curve" smooth="yes"/>
      <point x="383.821" y="172"/>
      <point x="392.984" y="183"/>
      <point x="392.984" y="196" type="curve" smooth="yes"/>
      <point x="392.984" y="209"/>
      <point x="383.821" y="220"/>
      <point x="372.992" y="220" type="curve" smooth="yes"/>
      <point x="362.163" y="220"/>
      <point x="353" y="209"/>
      <point x="353" y="196" type="curve" smooth="yes"/>
      <point x="353" y="183"/>
      <point x="362.163" y="172"/>
    </contour>
    <contour>
      <point x="934" y="559" type="line"/>
      <point x="857" y="559" type="line"/>
      <point x="857" y="-127" type="line" smooth="yes"/>
      <point x="857" y="-160"/>
      <point x="830" y="-177"/>
      <point x="776" y="-177" type="curve" smooth="yes"/>
      <point x="722" y="-177"/>
      <point x="694" y="-160"/>
      <point x="694" y="-127" type="curve" smooth="yes"/>
      <point x="694" y="-107" type="line"/>
      <point x="715" y="-107" type="line"/>
      <point x="715" y="-49" type="line"/>
      <point x="618" y="-49" type="line"/>
      <point x="618" y="-127" type="line" smooth="yes"/>
      <point x="618" y="-205"/>
      <point x="671" y="-244"/>
      <point x="776" y="-244" type="curve" smooth="yes"/>
      <point x="881" y="-244"/>
      <point x="934" y="-205"/>
      <point x="934" y="-127" type="curve" smooth="yes"/>
    </contour>
    <contour>
      <point x="857" y="550" type="line"/>
      <point x="934" y="550" type="line"/>
      <point x="934" y="630" type="line" smooth="yes"/>
      <point x="934" y="703"/>
      <point x="906" y="774"/>
      <point x="833" y="832" type="curve" smooth="yes"/>
      <point x="749" y="899"/>
      <point x="715" y="918"/>
      <point x="668" y="918" type="curve" smooth="yes"/>
      <point x="596" y="918"/>
      <point x="564" y="855"/>
      <point x="564" y="804" type="curve" smooth="yes"/>
      <point x="564" y="750"/>
      <point x="577" y="723"/>
      <point x="623" y="723" type="curve" smooth="yes"/>
      <point x="776" y="723" type="line" smooth="yes"/>
      <point x="830" y="723"/>
      <point x="857" y="692"/>
      <point x="857" y="630" type="curve" smooth="yes"/>
    </contour>
    <contour>
      <point x="625" y="786" type="line"/>
      <point x="625" y="831"/>
      <point x="646" y="854"/>
      <point x="674" y="854" type="curve" smooth="yes"/>
      <point x="708" y="854"/>
      <point x="746" y="825"/>
      <point x="781" y="786" type="curve"/>
    </contour>
    <contour>
      <point x="767" y="863" type="line"/>
      <point x="767" y="967" type="line"/>
      <point x="712" y="967" type="line"/>
      <point x="712" y="894" type="line"/>
    </contour>
    <contour>
      <point x="857" y="802" type="line"/>
      <point x="857" y="942" type="line"/>
      <point x="801" y="942" type="line"/>
      <point x="801" y="839" type="line"/>
    </contour>
  </outline>
</glyph>
<glyph name="uni17C0" format="2">
  <advance width="1021"/>
  <unicode hex="17C0"/>
  <note>
uni17C0
</note>
  <outline>
    <contour>
      <point x="165" y="377" type="line"/>
      <point x="88" y="377" type="line"/>
      <point x="88" y="50" type="line" smooth="yes"/>
      <point x="88" y="17"/>
      <point x="109" y="0"/>
      <point x="150" y="0" type="curve" smooth="yes"/>
      <point x="231" y="0" type="line"/>
      <point x="231" y="67" type="line"/>
      <point x="191" y="67" type="line" smooth="yes"/>
      <point x="171" y="67"/>
      <point x="165" y="75"/>
      <point x="165" y="102" type="curve" smooth="yes"/>
    </contour>
    <contour>
      <point x="88" y="356" type="line"/>
      <point x="165" y="356" type="line"/>
      <point x="165" y="410" type="line"/>
      <point x="83" y="518" type="line"/>
      <point x="83" y="519" type="line"/>
      <point x="184" y="519" type="line"/>
      <point x="184" y="586" type="line"/>
      <point x="83" y="586" type="line"/>
      <point x="38" y="515"/>
      <point x="30" y="502"/>
      <point x="30" y="491" type="curve" smooth="yes"/>
      <point x="30" y="478"/>
      <point x="35" y="471"/>
      <point x="88" y="394" type="curve"/>
    </contour>
    <contour>
      <point x="361.992" y="267" type="curve" smooth="yes"/>
      <point x="372.821" y="267"/>
      <point x="381.984" y="278"/>
      <point x="381.984" y="291" type="curve" smooth="yes"/>
      <point x="381.984" y="304"/>
      <point x="372.821" y="315"/>
      <point x="361.992" y="315" type="curve" smooth="yes"/>
      <point x="351.163" y="315"/>
      <point x="342" y="304"/>
      <point x="342" y="291" type="curve" smooth="yes"/>
      <point x="342" y="278"/>
      <point x="351.163" y="267"/>
    </contour>
    <contour>
      <point x="382.992" y="368" type="curve" smooth="yes"/>
      <point x="393.821" y="368"/>
      <point x="402.984" y="379"/>
      <point x="402.984" y="392" type="curve" smooth="yes"/>
      <point x="402.984" y="405"/>
      <point x="393.821" y="416"/>
      <point x="382.992" y="416" type="curve" smooth="yes"/>
      <point x="372.163" y="416"/>
      <point x="363" y="405"/>
      <point x="363" y="392" type="curve" smooth="yes"/>
      <point x="363" y="379"/>
      <point x="372.163" y="368"/>
    </contour>
    <contour>
      <point x="441.992" y="438" type="curve" smooth="yes"/>
      <point x="452.821" y="438"/>
      <point x="461.984" y="449"/>
      <point x="461.984" y="462" type="curve" smooth="yes"/>
      <point x="461.984" y="475"/>
      <point x="452.821" y="486"/>
      <point x="441.992" y="486" type="curve" smooth="yes"/>
      <point x="431.163" y="486"/>
      <point x="422" y="475"/>
      <point x="422" y="462" type="curve" smooth="yes"/>
      <point x="422" y="449"/>
      <point x="431.163" y="438"/>
    </contour>
    <contour>
      <point x="522.992" y="462" type="curve" smooth="yes"/>
      <point x="533.821" y="462"/>
      <point x="542.984" y="473"/>
      <point x="542.984" y="486" type="curve" smooth="yes"/>
      <point x="542.984" y="499"/>
      <point x="533.821" y="510"/>
      <point x="522.992" y="510" type="curve" smooth="yes"/>
      <point x="512.163" y="510"/>
      <point x="503" y="499"/>
      <point x="503" y="486" type="curve" smooth="yes"/>
      <point x="503" y="473"/>
      <point x="512.163" y="462"/>
    </contour>
    <contour>
      <point x="603.992" y="438" type="curve" smooth="yes"/>
      <point x="614.821" y="438"/>
      <point x="623.984" y="449"/>
      <point x="623.984" y="462" type="curve" smooth="yes"/>
      <point x="623.984" y="475"/>
      <point x="614.821" y="486"/>
      <point x="603.992" y="486" type="curve" smooth="yes"/>
      <point x="593.163" y="486"/>
      <point x="584" y="475"/>
      <point x="584" y="462" type="curve" smooth="yes"/>
      <point x="584" y="449"/>
      <point x="593.163" y="438"/>
    </contour>
    <contour>
      <point x="661.992" y="366" type="curve" smooth="yes"/>
      <point x="672.821" y="366"/>
      <point x="681.984" y="377"/>
      <point x="681.984" y="390" type="curve" smooth="yes"/>
      <point x="681.984" y="403"/>
      <point x="672.821" y="414"/>
      <point x="661.992" y="414" type="curve" smooth="yes"/>
      <point x="651.163" y="414"/>
      <point x="642" y="403"/>
      <point x="642" y="390" type="curve" smooth="yes"/>
      <point x="642" y="377"/>
      <point x="651.163" y="366"/>
    </contour>
    <contour>
      <point x="686.992" y="267" type="curve" smooth="yes"/>
      <point x="697.821" y="267"/>
      <point x="706.984" y="278"/>
      <point x="706.984" y="291" type="curve" smooth="yes"/>
      <point x="706.984" y="304"/>
      <point x="697.821" y="315"/>
      <point x="686.992" y="315" type="curve" smooth="yes"/>
      <point x="676.163" y="315"/>
      <point x="667" y="304"/>
      <point x="667" y="291" type="curve" smooth="yes"/>
      <point x="667" y="278"/>
      <point x="676.163" y="267"/>
    </contour>
    <contour>
      <point x="663.992" y="173" type="curve" smooth="yes"/>
      <point x="674.821" y="173"/>
      <point x="683.984" y="184"/>
      <point x="683.984" y="197" type="curve" smooth="yes"/>
      <point x="683.984" y="210"/>
      <point x="674.821" y="221"/>
      <point x="663.992" y="221" type="curve" smooth="yes"/>
      <point x="653.163" y="221"/>
      <point x="644" y="210"/>
      <point x="644" y="197" type="curve" smooth="yes"/>
      <point x="644" y="184"/>
      <point x="653.163" y="173"/>
    </contour>
    <contour>
      <point x="604.992" y="101" type="curve" smooth="yes"/>
      <point x="615.821" y="101"/>
      <point x="624.984" y="112"/>
      <point x="624.984" y="125" type="curve" smooth="yes"/>
      <point x="624.984" y="138"/>
      <point x="615.821" y="149"/>
      <point x="604.992" y="149" type="curve" smooth="yes"/>
      <point x="594.163" y="149"/>
      <point x="585" y="138"/>
      <point x="585" y="125" type="curve" smooth="yes"/>
      <point x="585" y="112"/>
      <point x="594.163" y="101"/>
    </contour>
    <contour>
      <point x="522.992" y="73" type="curve" smooth="yes"/>
      <point x="533.821" y="73"/>
      <point x="542.984" y="84"/>
      <point x="542.984" y="97" type="curve" smooth="yes"/>
      <point x="542.984" y="110"/>
      <point x="533.821" y="121"/>
      <point x="522.992" y="121" type="curve" smooth="yes"/>
      <point x="512.163" y="121"/>
      <point x="503" y="110"/>
      <point x="503" y="97" type="curve" smooth="yes"/>
      <point x="503" y="84"/>
      <point x="512.163" y="73"/>
    </contour>
    <contour>
      <point x="441.992" y="100" type="curve" smooth="yes"/>
      <point x="452.821" y="100"/>
      <point x="461.984" y="111"/>
      <point x="461.984" y="124" type="curve" smooth="yes"/>
      <point x="461.984" y="137"/>
      <point x="452.821" y="148"/>
      <point x="441.992" y="148" type="curve" smooth="yes"/>
      <point x="431.163" y="148"/>
      <point x="422" y="137"/>
      <point x="422" y="124" type="curve" smooth="yes"/>
      <point x="422" y="111"/>
      <point x="431.163" y="100"/>
    </contour>
    <contour>
      <point x="381.992" y="172" type="curve" smooth="yes"/>
      <point x="392.821" y="172"/>
      <point x="401.984" y="183"/>
      <point x="401.984" y="196" type="curve" smooth="yes"/>
      <point x="401.984" y="209"/>
      <point x="392.821" y="220"/>
      <point x="381.992" y="220" type="curve" smooth="yes"/>
      <point x="371.163" y="220"/>
      <point x="362" y="209"/>
      <point x="362" y="196" type="curve" smooth="yes"/>
      <point x="362" y="183"/>
      <point x="371.163" y="172"/>
    </contour>
    <contour>
      <point x="943" y="575" type="line"/>
      <point x="866" y="575" type="line"/>
      <point x="866" y="-127" type="line" smooth="yes"/>
      <point x="866" y="-160"/>
      <point x="839" y="-177"/>
      <point x="784" y="-177" type="curve" smooth="yes"/>
      <point x="730" y="-177"/>
      <point x="703" y="-160"/>
      <point x="703" y="-127" type="curve" smooth="yes"/>
      <point x="703" y="-107" type="line"/>
      <point x="724" y="-107" type="line"/>
      <point x="724" y="-49" type="line"/>
      <point x="627" y="-49" type="line"/>
      <point x="627" y="-127" type="line" smooth="yes"/>
      <point x="627" y="-205"/>
      <point x="679" y="-244"/>
      <point x="784" y="-244" type="curve" smooth="yes"/>
      <point x="890" y="-244"/>
      <point x="943" y="-205"/>
      <point x="943" y="-127" type="curve" smooth="yes"/>
    </contour>
    <contour>
      <point x="866" y="547" type="line"/>
      <point x="943" y="547" type="line"/>
      <point x="943" y="649" type="line" smooth="yes"/>
      <point x="943" y="767"/>
      <point x="893" y="825"/>
      <point x="791" y="825" type="curve" smooth="yes"/>
      <point x="752" y="825"/>
      <point x="724" y="813"/>
      <point x="703" y="797" type="curve"/>
      <point x="703" y="967" type="line"/>
      <point x="627" y="967" type="line"/>
      <point x="627" y="723" type="line"/>
      <point x="703" y="723" type="line"/>
      <point x="719" y="748"/>
      <point x="744" y="762"/>
      <point x="777" y="762" type="curve" smooth="yes"/>
      <point x="831" y="762"/>
      <point x="866" y="724"/>
      <point x="866" y="649" type="curve" smooth="yes"/>
    </contour>
  </outline>
</glyph>
<glyph name="uni17C1" format="2">
  <advance width="238"/>
  <unicode hex="17C1"/>
  <note>
uni17C1
</note>
  <outline>
    <contour>
      <point x="165" y="377" type="line"/>
      <point x="88" y="377" type="line"/>
      <point x="88" y="50" type="line" smooth="yes"/>
      <point x="88" y="17"/>
      <point x="109" y="0"/>
      <point x="150" y="0" type="curve" smooth="yes"/>
      <point x="231" y="0" type="line"/>
      <point x="231" y="67" type="line"/>
      <point x="191" y="67" type="line" smooth="yes"/>
      <point x="171" y="67"/>
      <point x="165" y="75"/>
      <point x="165" y="102" type="curve" smooth="yes"/>
    </contour>
    <contour>
      <point x="88" y="356" type="line"/>
      <point x="165" y="356" type="line"/>
      <point x="165" y="410" type="line"/>
      <point x="83" y="518" type="line"/>
      <point x="83" y="519" type="line"/>
      <point x="184" y="519" type="line"/>
      <point x="184" y="586" type="line"/>
      <point x="83" y="586" type="line"/>
      <point x="38" y="515"/>
      <point x="30" y="502"/>
      <point x="30" y="491" type="curve" smooth="yes"/>
      <point x="30" y="478"/>
      <point x="35" y="471"/>
      <point x="88" y="394" type="curve"/>
    </contour>
  </outline>
</glyph>
<glyph name="uni17C2" format="2">
  <advance width="238"/>
  <unicode hex="17C2"/>
  <note>
uni17C2
</note>
  <outline>
    <contour>
      <point x="97" y="635" type="curve" smooth="yes"/>
      <point x="171" y="635"/>
      <point x="236" y="705"/>
      <point x="236" y="854" type="curve"/>
      <point x="173" y="854" type="line"/>
      <point x="173" y="750"/>
      <point x="142" y="698"/>
      <point x="93" y="698" type="curve" smooth="yes"/>
      <point x="71" y="698"/>
      <point x="61" y="709"/>
      <point x="61" y="723" type="curve" smooth="yes"/>
      <point x="61" y="741"/>
      <point x="77" y="752"/>
      <point x="108" y="752" type="curve"/>
      <point x="108" y="815" type="line"/>
      <point x="44" y="815"/>
      <point x="0" y="782"/>
      <point x="0" y="724" type="curve" smooth="yes"/>
      <point x="0" y="662"/>
      <point x="51" y="635"/>
    </contour>
    <contour>
      <point x="165" y="377" type="line"/>
      <point x="88" y="377" type="line"/>
      <point x="88" y="50" type="line" smooth="yes"/>
      <point x="88" y="17"/>
      <point x="109" y="0"/>
      <point x="150" y="0" type="curve" smooth="yes"/>
      <point x="231" y="0" type="line"/>
      <point x="231" y="67" type="line"/>
      <point x="191" y="67" type="line" smooth="yes"/>
      <point x="171" y="67"/>
      <point x="165" y="75"/>
      <point x="165" y="102" type="curve" smooth="yes"/>
    </contour>
    <contour>
      <point x="88" y="356" type="line"/>
      <point x="165" y="356" type="line"/>
      <point x="165" y="410" type="line"/>
      <point x="83" y="518" type="line"/>
      <point x="83" y="519" type="line"/>
      <point x="184" y="519" type="line"/>
      <point x="184" y="586" type="line"/>
      <point x="83" y="586" type="line"/>
      <point x="38" y="515"/>
      <point x="30" y="502"/>
      <point x="30" y="491" type="curve" smooth="yes"/>
      <point x="30" y="478"/>
      <point x="35" y="471"/>
      <point x="88" y="394" type="curve"/>
    </contour>
  </outline>
</glyph>
<glyph name="uni17C3" format="2">
  <advance width="238"/>
  <unicode hex="17C3"/>
  <note>
uni17C3
</note>
  <outline>
    <contour>
      <point x="20" y="635" type="line"/>
      <point x="110" y="635" type="line" smooth="yes"/>
      <point x="167" y="635"/>
      <point x="220" y="674"/>
      <point x="220" y="744" type="curve" smooth="yes"/>
      <point x="220" y="797"/>
      <point x="188" y="836"/>
      <point x="136" y="836" type="curve" smooth="yes"/>
      <point x="111" y="836"/>
      <point x="92" y="827"/>
      <point x="82" y="816" type="curve"/>
      <point x="82" y="879" type="line" smooth="yes"/>
      <point x="82" y="913"/>
      <point x="73" y="928"/>
      <point x="40" y="928" type="curve" smooth="yes"/>
      <point x="0" y="928" type="line"/>
      <point x="0" y="864" type="line"/>
      <point x="13" y="864"/>
      <point x="20" y="858"/>
      <point x="20" y="842" type="curve" smooth="yes"/>
      <point x="20" y="747" type="line"/>
      <point x="82" y="747" type="line"/>
      <point x="89" y="764"/>
      <point x="100" y="775"/>
      <point x="121" y="775" type="curve" smooth="yes"/>
      <point x="145" y="775"/>
      <point x="157" y="762"/>
      <point x="157" y="740" type="curve" smooth="yes"/>
      <point x="157" y="717"/>
      <point x="143" y="698"/>
      <point x="100" y="698" type="curve" smooth="yes"/>
      <point x="20" y="698" type="line"/>
    </contour>
    <contour>
      <point x="165" y="377" type="line"/>
      <point x="88" y="377" type="line"/>
      <point x="88" y="50" type="line" smooth="yes"/>
      <point x="88" y="17"/>
      <point x="109" y="0"/>
      <point x="150" y="0" type="curve" smooth="yes"/>
      <point x="231" y="0" type="line"/>
      <point x="231" y="67" type="line"/>
      <point x="191" y="67" type="line" smooth="yes"/>
      <point x="171" y="67"/>
      <point x="165" y="75"/>
      <point x="165" y="102" type="curve" smooth="yes"/>
    </contour>
    <contour>
      <point x="88" y="356" type="line"/>
      <point x="165" y="356" type="line"/>
      <point x="165" y="410" type="line"/>
      <point x="83" y="518" type="line"/>
      <point x="83" y="519" type="line"/>
      <point x="184" y="519" type="line"/>
      <point x="184" y="586" type="line"/>
      <point x="83" y="586" type="line"/>
      <point x="38" y="515"/>
      <point x="30" y="502"/>
      <point x="30" y="491" type="curve" smooth="yes"/>
      <point x="30" y="478"/>
      <point x="35" y="471"/>
      <point x="88" y="394" type="curve"/>
    </contour>
  </outline>
</glyph>
<glyph name="uni17C4" format="2">
  <advance width="963"/>
  <unicode hex="17C4"/>
  <note>
uni17C4
</note>
  <outline>
    <contour>
      <point x="808" y="0" type="line"/>
      <point x="885" y="0" type="line"/>
      <point x="885" y="458" type="line" smooth="yes"/>
      <point x="885" y="543"/>
      <point x="863" y="586"/>
      <point x="767" y="586" type="curve" smooth="yes"/>
      <point x="662" y="586" type="line"/>
      <point x="662" y="519" type="line"/>
      <point x="743" y="519" type="line" smooth="yes"/>
      <point x="792" y="519"/>
      <point x="808" y="504"/>
      <point x="808" y="458" type="curve" smooth="yes"/>
    </contour>
    <contour>
      <point x="165" y="377" type="line"/>
      <point x="88" y="377" type="line"/>
      <point x="88" y="50" type="line" smooth="yes"/>
      <point x="88" y="17"/>
      <point x="109" y="0"/>
      <point x="150" y="0" type="curve" smooth="yes"/>
      <point x="231" y="0" type="line"/>
      <point x="231" y="67" type="line"/>
      <point x="191" y="67" type="line" smooth="yes"/>
      <point x="171" y="67"/>
      <point x="165" y="75"/>
      <point x="165" y="102" type="curve" smooth="yes"/>
    </contour>
    <contour>
      <point x="88" y="356" type="line"/>
      <point x="165" y="356" type="line"/>
      <point x="165" y="410" type="line"/>
      <point x="83" y="518" type="line"/>
      <point x="83" y="519" type="line"/>
      <point x="184" y="519" type="line"/>
      <point x="184" y="586" type="line"/>
      <point x="83" y="586" type="line"/>
      <point x="38" y="515"/>
      <point x="30" y="502"/>
      <point x="30" y="491" type="curve" smooth="yes"/>
      <point x="30" y="478"/>
      <point x="35" y="471"/>
      <point x="88" y="394" type="curve"/>
    </contour>
    <contour>
      <point x="322.992" y="267" type="curve" smooth="yes"/>
      <point x="333.821" y="267"/>
      <point x="342.984" y="278"/>
      <point x="342.984" y="291" type="curve" smooth="yes"/>
      <point x="342.984" y="304"/>
      <point x="333.821" y="315"/>
      <point x="322.992" y="315" type="curve" smooth="yes"/>
      <point x="312.163" y="315"/>
      <point x="303" y="304"/>
      <point x="303" y="291" type="curve" smooth="yes"/>
      <point x="303" y="278"/>
      <point x="312.163" y="267"/>
    </contour>
    <contour>
      <point x="343.992" y="368" type="curve" smooth="yes"/>
      <point x="354.821" y="368"/>
      <point x="363.984" y="379"/>
      <point x="363.984" y="392" type="curve" smooth="yes"/>
      <point x="363.984" y="405"/>
      <point x="354.821" y="416"/>
      <point x="343.992" y="416" type="curve" smooth="yes"/>
      <point x="333.163" y="416"/>
      <point x="324" y="405"/>
      <point x="324" y="392" type="curve" smooth="yes"/>
      <point x="324" y="379"/>
      <point x="333.163" y="368"/>
    </contour>
    <contour>
      <point x="402.992" y="438" type="curve" smooth="yes"/>
      <point x="413.821" y="438"/>
      <point x="422.984" y="449"/>
      <point x="422.984" y="462" type="curve" smooth="yes"/>
      <point x="422.984" y="475"/>
      <point x="413.821" y="486"/>
      <point x="402.992" y="486" type="curve" smooth="yes"/>
      <point x="392.163" y="486"/>
      <point x="383" y="475"/>
      <point x="383" y="462" type="curve" smooth="yes"/>
      <point x="383" y="449"/>
      <point x="392.163" y="438"/>
    </contour>
    <contour>
      <point x="483.992" y="462" type="curve" smooth="yes"/>
      <point x="494.821" y="462"/>
      <point x="503.984" y="473"/>
      <point x="503.984" y="486" type="curve" smooth="yes"/>
      <point x="503.984" y="499"/>
      <point x="494.821" y="510"/>
      <point x="483.992" y="510" type="curve" smooth="yes"/>
      <point x="473.163" y="510"/>
      <point x="464" y="499"/>
      <point x="464" y="486" type="curve" smooth="yes"/>
      <point x="464" y="473"/>
      <point x="473.163" y="462"/>
    </contour>
    <contour>
      <point x="564.992" y="438" type="curve" smooth="yes"/>
      <point x="575.821" y="438"/>
      <point x="584.984" y="449"/>
      <point x="584.984" y="462" type="curve" smooth="yes"/>
      <point x="584.984" y="475"/>
      <point x="575.821" y="486"/>
      <point x="564.992" y="486" type="curve" smooth="yes"/>
      <point x="554.163" y="486"/>
      <point x="545" y="475"/>
      <point x="545" y="462" type="curve" smooth="yes"/>
      <point x="545" y="449"/>
      <point x="554.163" y="438"/>
    </contour>
    <contour>
      <point x="622.992" y="366" type="curve" smooth="yes"/>
      <point x="633.821" y="366"/>
      <point x="642.984" y="377"/>
      <point x="642.984" y="390" type="curve" smooth="yes"/>
      <point x="642.984" y="403"/>
      <point x="633.821" y="414"/>
      <point x="622.992" y="414" type="curve" smooth="yes"/>
      <point x="612.163" y="414"/>
      <point x="603" y="403"/>
      <point x="603" y="390" type="curve" smooth="yes"/>
      <point x="603" y="377"/>
      <point x="612.163" y="366"/>
    </contour>
    <contour>
      <point x="647.992" y="267" type="curve" smooth="yes"/>
      <point x="658.821" y="267"/>
      <point x="667.984" y="278"/>
      <point x="667.984" y="291" type="curve" smooth="yes"/>
      <point x="667.984" y="304"/>
      <point x="658.821" y="315"/>
      <point x="647.992" y="315" type="curve" smooth="yes"/>
      <point x="637.163" y="315"/>
      <point x="628" y="304"/>
      <point x="628" y="291" type="curve" smooth="yes"/>
      <point x="628" y="278"/>
      <point x="637.163" y="267"/>
    </contour>
    <contour>
      <point x="624.992" y="173" type="curve" smooth="yes"/>
      <point x="635.821" y="173"/>
      <point x="644.984" y="184"/>
      <point x="644.984" y="197" type="curve" smooth="yes"/>
      <point x="644.984" y="210"/>
      <point x="635.821" y="221"/>
      <point x="624.992" y="221" type="curve" smooth="yes"/>
      <point x="614.163" y="221"/>
      <point x="605" y="210"/>
      <point x="605" y="197" type="curve" smooth="yes"/>
      <point x="605" y="184"/>
      <point x="614.163" y="173"/>
    </contour>
    <contour>
      <point x="565.992" y="101" type="curve" smooth="yes"/>
      <point x="576.821" y="101"/>
      <point x="585.984" y="112"/>
      <point x="585.984" y="125" type="curve" smooth="yes"/>
      <point x="585.984" y="138"/>
      <point x="576.821" y="149"/>
      <point x="565.992" y="149" type="curve" smooth="yes"/>
      <point x="555.163" y="149"/>
      <point x="546" y="138"/>
      <point x="546" y="125" type="curve" smooth="yes"/>
      <point x="546" y="112"/>
      <point x="555.163" y="101"/>
    </contour>
    <contour>
      <point x="483.992" y="73" type="curve" smooth="yes"/>
      <point x="494.821" y="73"/>
      <point x="503.984" y="84"/>
      <point x="503.984" y="97" type="curve" smooth="yes"/>
      <point x="503.984" y="110"/>
      <point x="494.821" y="121"/>
      <point x="483.992" y="121" type="curve" smooth="yes"/>
      <point x="473.163" y="121"/>
      <point x="464" y="110"/>
      <point x="464" y="97" type="curve" smooth="yes"/>
      <point x="464" y="84"/>
      <point x="473.163" y="73"/>
    </contour>
    <contour>
      <point x="402.992" y="100" type="curve" smooth="yes"/>
      <point x="413.821" y="100"/>
      <point x="422.984" y="111"/>
      <point x="422.984" y="124" type="curve" smooth="yes"/>
      <point x="422.984" y="137"/>
      <point x="413.821" y="148"/>
      <point x="402.992" y="148" type="curve" smooth="yes"/>
      <point x="392.163" y="148"/>
      <point x="383" y="137"/>
      <point x="383" y="124" type="curve" smooth="yes"/>
      <point x="383" y="111"/>
      <point x="392.163" y="100"/>
    </contour>
    <contour>
      <point x="342.992" y="172" type="curve" smooth="yes"/>
      <point x="353.821" y="172"/>
      <point x="362.984" y="183"/>
      <point x="362.984" y="196" type="curve" smooth="yes"/>
      <point x="362.984" y="209"/>
      <point x="353.821" y="220"/>
      <point x="342.992" y="220" type="curve" smooth="yes"/>
      <point x="332.163" y="220"/>
      <point x="323" y="209"/>
      <point x="323" y="196" type="curve" smooth="yes"/>
      <point x="323" y="183"/>
      <point x="332.163" y="172"/>
    </contour>
  </outline>
</glyph>
<glyph name="uni17C5" format="2">
  <advance width="964"/>
  <unicode hex="17C5"/>
  <note>
uni17C5
</note>
  <outline>
    <contour>
      <point x="165" y="377" type="line"/>
      <point x="88" y="377" type="line"/>
      <point x="88" y="50" type="line" smooth="yes"/>
      <point x="88" y="17"/>
      <point x="109" y="0"/>
      <point x="150" y="0" type="curve" smooth="yes"/>
      <point x="231" y="0" type="line"/>
      <point x="231" y="67" type="line"/>
      <point x="191" y="67" type="line" smooth="yes"/>
      <point x="171" y="67"/>
      <point x="165" y="75"/>
      <point x="165" y="102" type="curve" smooth="yes"/>
    </contour>
    <contour>
      <point x="88" y="356" type="line"/>
      <point x="165" y="356" type="line"/>
      <point x="165" y="410" type="line"/>
      <point x="83" y="518" type="line"/>
      <point x="83" y="519" type="line"/>
      <point x="184" y="519" type="line"/>
      <point x="184" y="586" type="line"/>
      <point x="83" y="586" type="line"/>
      <point x="38" y="515"/>
      <point x="30" y="502"/>
      <point x="30" y="491" type="curve" smooth="yes"/>
      <point x="30" y="478"/>
      <point x="35" y="471"/>
      <point x="88" y="394" type="curve"/>
    </contour>
    <contour>
      <point x="320.992" y="267" type="curve" smooth="yes"/>
      <point x="331.821" y="267"/>
      <point x="340.984" y="278"/>
      <point x="340.984" y="291" type="curve" smooth="yes"/>
      <point x="340.984" y="304"/>
      <point x="331.821" y="315"/>
      <point x="320.992" y="315" type="curve" smooth="yes"/>
      <point x="310.163" y="315"/>
      <point x="301" y="304"/>
      <point x="301" y="291" type="curve" smooth="yes"/>
      <point x="301" y="278"/>
      <point x="310.163" y="267"/>
    </contour>
    <contour>
      <point x="341.992" y="368" type="curve" smooth="yes"/>
      <point x="352.821" y="368"/>
      <point x="361.984" y="379"/>
      <point x="361.984" y="392" type="curve" smooth="yes"/>
      <point x="361.984" y="405"/>
      <point x="352.821" y="416"/>
      <point x="341.992" y="416" type="curve" smooth="yes"/>
      <point x="331.163" y="416"/>
      <point x="322" y="405"/>
      <point x="322" y="392" type="curve" smooth="yes"/>
      <point x="322" y="379"/>
      <point x="331.163" y="368"/>
    </contour>
    <contour>
      <point x="400.992" y="438" type="curve" smooth="yes"/>
      <point x="411.821" y="438"/>
      <point x="420.984" y="449"/>
      <point x="420.984" y="462" type="curve" smooth="yes"/>
      <point x="420.984" y="475"/>
      <point x="411.821" y="486"/>
      <point x="400.992" y="486" type="curve" smooth="yes"/>
      <point x="390.163" y="486"/>
      <point x="381" y="475"/>
      <point x="381" y="462" type="curve" smooth="yes"/>
      <point x="381" y="449"/>
      <point x="390.163" y="438"/>
    </contour>
    <contour>
      <point x="481.992" y="462" type="curve" smooth="yes"/>
      <point x="492.821" y="462"/>
      <point x="501.984" y="473"/>
      <point x="501.984" y="486" type="curve" smooth="yes"/>
      <point x="501.984" y="499"/>
      <point x="492.821" y="510"/>
      <point x="481.992" y="510" type="curve" smooth="yes"/>
      <point x="471.163" y="510"/>
      <point x="462" y="499"/>
      <point x="462" y="486" type="curve" smooth="yes"/>
      <point x="462" y="473"/>
      <point x="471.163" y="462"/>
    </contour>
    <contour>
      <point x="562.992" y="438" type="curve" smooth="yes"/>
      <point x="573.821" y="438"/>
      <point x="582.984" y="449"/>
      <point x="582.984" y="462" type="curve" smooth="yes"/>
      <point x="582.984" y="475"/>
      <point x="573.821" y="486"/>
      <point x="562.992" y="486" type="curve" smooth="yes"/>
      <point x="552.163" y="486"/>
      <point x="543" y="475"/>
      <point x="543" y="462" type="curve" smooth="yes"/>
      <point x="543" y="449"/>
      <point x="552.163" y="438"/>
    </contour>
    <contour>
      <point x="620.992" y="366" type="curve" smooth="yes"/>
      <point x="631.821" y="366"/>
      <point x="640.984" y="377"/>
      <point x="640.984" y="390" type="curve" smooth="yes"/>
      <point x="640.984" y="403"/>
      <point x="631.821" y="414"/>
      <point x="620.992" y="414" type="curve" smooth="yes"/>
      <point x="610.163" y="414"/>
      <point x="601" y="403"/>
      <point x="601" y="390" type="curve" smooth="yes"/>
      <point x="601" y="377"/>
      <point x="610.163" y="366"/>
    </contour>
    <contour>
      <point x="645.992" y="267" type="curve" smooth="yes"/>
      <point x="656.821" y="267"/>
      <point x="665.984" y="278"/>
      <point x="665.984" y="291" type="curve" smooth="yes"/>
      <point x="665.984" y="304"/>
      <point x="656.821" y="315"/>
      <point x="645.992" y="315" type="curve" smooth="yes"/>
      <point x="635.163" y="315"/>
      <point x="626" y="304"/>
      <point x="626" y="291" type="curve" smooth="yes"/>
      <point x="626" y="278"/>
      <point x="635.163" y="267"/>
    </contour>
    <contour>
      <point x="622.992" y="173" type="curve" smooth="yes"/>
      <point x="633.821" y="173"/>
      <point x="642.984" y="184"/>
      <point x="642.984" y="197" type="curve" smooth="yes"/>
      <point x="642.984" y="210"/>
      <point x="633.821" y="221"/>
      <point x="622.992" y="221" type="curve" smooth="yes"/>
      <point x="612.163" y="221"/>
      <point x="603" y="210"/>
      <point x="603" y="197" type="curve" smooth="yes"/>
      <point x="603" y="184"/>
      <point x="612.163" y="173"/>
    </contour>
    <contour>
      <point x="563.992" y="101" type="curve" smooth="yes"/>
      <point x="574.821" y="101"/>
      <point x="583.984" y="112"/>
      <point x="583.984" y="125" type="curve" smooth="yes"/>
      <point x="583.984" y="138"/>
      <point x="574.821" y="149"/>
      <point x="563.992" y="149" type="curve" smooth="yes"/>
      <point x="553.163" y="149"/>
      <point x="544" y="138"/>
      <point x="544" y="125" type="curve" smooth="yes"/>
      <point x="544" y="112"/>
      <point x="553.163" y="101"/>
    </contour>
    <contour>
      <point x="481.992" y="73" type="curve" smooth="yes"/>
      <point x="492.821" y="73"/>
      <point x="501.984" y="84"/>
      <point x="501.984" y="97" type="curve" smooth="yes"/>
      <point x="501.984" y="110"/>
      <point x="492.821" y="121"/>
      <point x="481.992" y="121" type="curve" smooth="yes"/>
      <point x="471.163" y="121"/>
      <point x="462" y="110"/>
      <point x="462" y="97" type="curve" smooth="yes"/>
      <point x="462" y="84"/>
      <point x="471.163" y="73"/>
    </contour>
    <contour>
      <point x="400.992" y="100" type="curve" smooth="yes"/>
      <point x="411.821" y="100"/>
      <point x="420.984" y="111"/>
      <point x="420.984" y="124" type="curve" smooth="yes"/>
      <point x="420.984" y="137"/>
      <point x="411.821" y="148"/>
      <point x="400.992" y="148" type="curve" smooth="yes"/>
      <point x="390.163" y="148"/>
      <point x="381" y="137"/>
      <point x="381" y="124" type="curve" smooth="yes"/>
      <point x="381" y="111"/>
      <point x="390.163" y="100"/>
    </contour>
    <contour>
      <point x="340.992" y="172" type="curve" smooth="yes"/>
      <point x="351.821" y="172"/>
      <point x="360.984" y="183"/>
      <point x="360.984" y="196" type="curve" smooth="yes"/>
      <point x="360.984" y="209"/>
      <point x="351.821" y="220"/>
      <point x="340.992" y="220" type="curve" smooth="yes"/>
      <point x="330.163" y="220"/>
      <point x="321" y="209"/>
      <point x="321" y="196" type="curve" smooth="yes"/>
      <point x="321" y="183"/>
      <point x="330.163" y="172"/>
    </contour>
    <contour>
      <point x="883" y="605" type="line"/>
      <point x="883" y="750" type="line" smooth="yes"/>
      <point x="883" y="816"/>
      <point x="881" y="854"/>
      <point x="824" y="854" type="curve" smooth="yes"/>
      <point x="737" y="854" type="line"/>
      <point x="737" y="787" type="line"/>
      <point x="763" y="787" type="line" smooth="yes"/>
      <point x="792" y="787"/>
      <point x="802" y="778"/>
      <point x="802" y="743" type="curve" smooth="yes"/>
      <point x="802" y="605" type="line"/>
    </contour>
    <contour>
      <point x="809" y="0" type="line"/>
      <point x="886" y="0" type="line"/>
      <point x="886" y="458" type="line" smooth="yes"/>
      <point x="886" y="543"/>
      <point x="864" y="586"/>
      <point x="768" y="586" type="curve" smooth="yes"/>
      <point x="663" y="586" type="line"/>
      <point x="663" y="519" type="line"/>
      <point x="744" y="519" type="line" smooth="yes"/>
      <point x="793" y="519"/>
      <point x="809" y="504"/>
      <point x="809" y="458" type="curve" smooth="yes"/>
    </contour>
  </outline>
</glyph>
<glyph name="uni17C6" format="2">
  <unicode hex="17C6"/>
  <note>
uni17C6
</note>
  <outline>
    <contour>
      <point x="-296" y="684" type="curve" smooth="yes"/>
      <point x="-240" y="684"/>
      <point x="-193" y="731"/>
      <point x="-193" y="787" type="curve" smooth="yes"/>
      <point x="-193" y="843"/>
      <point x="-240" y="890"/>
      <point x="-296" y="890" type="curve" smooth="yes"/>
      <point x="-352" y="890"/>
      <point x="-399" y="843"/>
      <point x="-399" y="787" type="curve" smooth="yes"/>
      <point x="-399" y="731"/>
      <point x="-352" y="684"/>
    </contour>
    <contour>
      <point x="-297" y="740" type="curve" smooth="yes"/>
      <point x="-322" y="740"/>
      <point x="-344" y="761"/>
      <point x="-344" y="787" type="curve" smooth="yes"/>
      <point x="-344" y="815"/>
      <point x="-323" y="836"/>
      <point x="-297" y="836" type="curve" smooth="yes"/>
      <point x="-270" y="836"/>
      <point x="-249" y="813"/>
      <point x="-249" y="787" type="curve" smooth="yes"/>
      <point x="-249" y="760"/>
      <point x="-271" y="740"/>
    </contour>
  </outline>
</glyph>
<glyph name="uni17C7" format="2">
  <advance width="351"/>
  <unicode hex="17C7"/>
  <note>
uni17C7
</note>
  <outline>
    <contour>
      <point x="176" y="373" type="curve" smooth="yes"/>
      <point x="232" y="373"/>
      <point x="279" y="420"/>
      <point x="279" y="476" type="curve" smooth="yes"/>
      <point x="279" y="532"/>
      <point x="232" y="579"/>
      <point x="176" y="579" type="curve" smooth="yes"/>
      <point x="120" y="579"/>
      <point x="73" y="532"/>
      <point x="73" y="476" type="curve" smooth="yes"/>
      <point x="73" y="420"/>
      <point x="120" y="373"/>
    </contour>
    <contour>
      <point x="175" y="429" type="curve" smooth="yes"/>
      <point x="150" y="429"/>
      <point x="128" y="450"/>
      <point x="128" y="476" type="curve" smooth="yes"/>
      <point x="128" y="504"/>
      <point x="149" y="525"/>
      <point x="175" y="525" type="curve" smooth="yes"/>
      <point x="202" y="525"/>
      <point x="223" y="502"/>
      <point x="223" y="476" type="curve" smooth="yes"/>
      <point x="223" y="449"/>
      <point x="201" y="429"/>
    </contour>
    <contour>
      <point x="176" y="7" type="curve" smooth="yes"/>
      <point x="232" y="7"/>
      <point x="279" y="54"/>
      <point x="279" y="110" type="curve" smooth="yes"/>
      <point x="279" y="166"/>
      <point x="232" y="213"/>
      <point x="176" y="213" type="curve" smooth="yes"/>
      <point x="120" y="213"/>
      <point x="73" y="166"/>
      <point x="73" y="110" type="curve" smooth="yes"/>
      <point x="73" y="54"/>
      <point x="120" y="7"/>
    </contour>
    <contour>
      <point x="175" y="63" type="curve" smooth="yes"/>
      <point x="150" y="63"/>
      <point x="128" y="84"/>
      <point x="128" y="110" type="curve" smooth="yes"/>
      <point x="128" y="138"/>
      <point x="149" y="159"/>
      <point x="175" y="159" type="curve" smooth="yes"/>
      <point x="202" y="159"/>
      <point x="223" y="136"/>
      <point x="223" y="110" type="curve" smooth="yes"/>
      <point x="223" y="83"/>
      <point x="201" y="63"/>
    </contour>
  </outline>
</glyph>
<glyph name="uni17C8" format="2">
  <advance width="242"/>
  <unicode hex="17C8"/>
  <note>
uni17C8
</note>
  <outline>
    <contour>
      <point x="122" y="426" type="curve" smooth="yes"/>
      <point x="143" y="426"/>
      <point x="167" y="443"/>
      <point x="167" y="470" type="curve" smooth="yes"/>
      <point x="167" y="495"/>
      <point x="147" y="515"/>
      <point x="122" y="515" type="curve" smooth="yes"/>
      <point x="97" y="515"/>
      <point x="77" y="495"/>
      <point x="77" y="470" type="curve" smooth="yes"/>
      <point x="77" y="449"/>
      <point x="96" y="426"/>
    </contour>
    <contour>
      <point x="122" y="57" type="curve" smooth="yes"/>
      <point x="143" y="57"/>
      <point x="167" y="74"/>
      <point x="167" y="102" type="curve" smooth="yes"/>
      <point x="167" y="126"/>
      <point x="147" y="146"/>
      <point x="122" y="146" type="curve" smooth="yes"/>
      <point x="97" y="146"/>
      <point x="77" y="126"/>
      <point x="77" y="102" type="curve" smooth="yes"/>
      <point x="77" y="81"/>
      <point x="96" y="57"/>
    </contour>
  </outline>
</glyph>
<glyph name="uni17CA" format="2">
  <unicode hex="17CA"/>
  <note>
uni17CA
</note>
  <outline>
    <contour>
      <point x="-481" y="684" type="line"/>
      <point x="-114" y="684" type="line"/>
      <point x="-114" y="751" type="line"/>
      <point x="-261" y="751" type="line"/>
      <point x="-298" y="698" type="line"/>
      <point x="-334" y="751" type="line"/>
      <point x="-481" y="751" type="line"/>
    </contour>
  </outline>
</glyph>
<glyph name="uni17CB" format="2">
  <unicode hex="17CB"/>
  <note>
uni17CB
</note>
  <outline>
    <contour>
      <point x="-328" y="684" type="line"/>
      <point x="-267" y="684" type="line"/>
      <point x="-267" y="879" type="line"/>
      <point x="-328" y="879" type="line"/>
    </contour>
  </outline>
</glyph>
<glyph name="uni17CC" format="2">
  <unicode hex="17CC"/>
  <note>
uni17CC
</note>
  <outline>
    <contour>
      <point x="-413" y="695" type="line"/>
      <point x="-374" y="732"/>
      <point x="-349" y="748"/>
      <point x="-311" y="748" type="curve" smooth="yes"/>
      <point x="-272" y="748"/>
      <point x="-235" y="737"/>
      <point x="-203" y="691" type="curve"/>
      <point x="-157" y="735" type="line"/>
      <point x="-192" y="788"/>
      <point x="-242" y="808"/>
      <point x="-299" y="799" type="curve"/>
      <point x="-277" y="835"/>
      <point x="-264" y="859"/>
      <point x="-239" y="919" type="curve"/>
      <point x="-288" y="938" type="line"/>
      <point x="-304" y="877"/>
      <point x="-364" y="808"/>
      <point x="-446" y="747" type="curve"/>
    </contour>
  </outline>
</glyph>
<glyph name="uni17CD" format="2">
  <unicode hex="17CD"/>
  <note>
uni17CD
</note>
  <outline>
    <contour>
      <point x="-347" y="684" type="curve" smooth="yes"/>
      <point x="-320" y="684" type="line"/>
      <point x="-320" y="741" type="line"/>
      <point x="-343" y="741" type="line" smooth="yes"/>
      <point x="-372" y="741"/>
      <point x="-385" y="749"/>
      <point x="-385" y="767" type="curve" smooth="yes"/>
      <point x="-385" y="784"/>
      <point x="-367" y="791"/>
      <point x="-343" y="791" type="curve" smooth="yes"/>
      <point x="-286" y="791" type="line" smooth="yes"/>
      <point x="-206" y="791"/>
      <point x="-147" y="844"/>
      <point x="-147" y="928" type="curve"/>
      <point x="-219" y="928" type="line"/>
      <point x="-219" y="879"/>
      <point x="-233" y="855"/>
      <point x="-295" y="855" type="curve" smooth="yes"/>
      <point x="-337" y="855" type="line" smooth="yes"/>
      <point x="-406" y="855"/>
      <point x="-446" y="817"/>
      <point x="-446" y="767" type="curve" smooth="yes"/>
      <point x="-446" y="708"/>
      <point x="-413" y="684"/>
    </contour>
  </outline>
</glyph>
<glyph name="uni17CE" format="2">
  <unicode hex="17CE"/>
  <note>
uni17CE
</note>
  <outline>
    <contour>
      <point x="-327" y="684" type="line"/>
      <point x="-267" y="684" type="line"/>
      <point x="-267" y="775" type="line"/>
      <point x="-183" y="775" type="line"/>
      <point x="-183" y="843" type="line"/>
      <point x="-267" y="843" type="line"/>
      <point x="-267" y="934" type="line"/>
      <point x="-327" y="934" type="line"/>
      <point x="-327" y="843" type="line"/>
      <point x="-411" y="843" type="line"/>
      <point x="-411" y="775" type="line"/>
      <point x="-327" y="775" type="line"/>
    </contour>
  </outline>
</glyph>
<glyph name="uni17CF" format="2">
  <unicode hex="17CF"/>
  <note>
uni17CF
</note>
  <outline>
    <contour>
      <point x="-459" y="684" type="line"/>
      <point x="-390" y="684" type="line"/>
      <point x="-297" y="735" type="line"/>
      <point x="-198" y="684" type="line"/>
      <point x="-133" y="684" type="line"/>
      <point x="-133" y="787" type="line"/>
      <point x="-194" y="787" type="line"/>
      <point x="-194" y="739" type="line"/>
      <point x="-296" y="792" type="line"/>
      <point x="-397" y="740" type="line"/>
      <point x="-397" y="790" type="line" smooth="yes"/>
      <point x="-397" y="810"/>
      <point x="-392" y="824"/>
      <point x="-372" y="824" type="curve" smooth="yes"/>
      <point x="-246" y="824" type="line" smooth="yes"/>
      <point x="-176" y="824"/>
      <point x="-133" y="868"/>
      <point x="-133" y="909" type="curve" smooth="yes"/>
      <point x="-133" y="928" type="line"/>
      <point x="-194" y="928" type="line"/>
      <point x="-194" y="897"/>
      <point x="-230" y="881"/>
      <point x="-302" y="881" type="curve" smooth="yes"/>
      <point x="-357" y="881" type="line" smooth="yes"/>
      <point x="-425" y="881"/>
      <point x="-459" y="848"/>
      <point x="-459" y="782" type="curve" smooth="yes"/>
    </contour>
  </outline>
</glyph>
<glyph name="uni17D0" format="2">
  <unicode hex="17D0"/>
  <note>
uni17D0
</note>
  <outline>
    <contour>
      <point x="-309.2" y="682" type="curve" smooth="yes"/>
      <point x="-194.9" y="682"/>
      <point x="-137.3" y="770"/>
      <point x="-137.3" y="902" type="curve"/>
      <point x="-200.3" y="902" type="line"/>
      <point x="-200.3" y="798"/>
      <point x="-235.4" y="745"/>
      <point x="-303.8" y="745" type="curve" smooth="yes"/>
      <point x="-349.7" y="745"/>
      <point x="-369.5" y="759"/>
      <point x="-369.5" y="783" type="curve" smooth="yes"/>
      <point x="-369.5" y="809"/>
      <point x="-346.1" y="821"/>
      <point x="-300.2" y="821" type="curve"/>
      <point x="-300.2" y="880" type="line"/>
      <point x="-381.2" y="880"/>
      <point x="-430.7" y="847"/>
      <point x="-430.7" y="779" type="curve" smooth="yes"/>
      <point x="-430.7" y="716"/>
      <point x="-376.7" y="682"/>
    </contour>
  </outline>
</glyph>
<glyph name="uni17D1" format="2">
  <unicode hex="17D1"/>
  <note>
uni17D1
</note>
  <outline>
    <contour>
      <point x="-471" y="684" type="line"/>
      <point x="-124" y="684" type="line"/>
      <point x="-124" y="751" type="line"/>
      <point x="-471" y="751" type="line"/>
    </contour>
  </outline>
</glyph>
<glyph name="uni17D2" format="2">
  <unicode hex="17D2"/>
  <note>
uni17D2
</note>
  <outline>
    <contour>
      <point x="-327" y="-244" type="line"/>
      <point x="-267" y="-244" type="line"/>
      <point x="-267" y="-164" type="line"/>
      <point x="-185" y="-164" type="line"/>
      <point x="-185" y="-104" type="line"/>
      <point x="-267" y="-104" type="line"/>
      <point x="-267" y="-24" type="line"/>
      <point x="-327" y="-24" type="line"/>
      <point x="-327" y="-104" type="line"/>
      <point x="-409" y="-104" type="line"/>
      <point x="-409" y="-164" type="line"/>
      <point x="-327" y="-164" type="line"/>
    </contour>
  </outline>
</glyph>
<glyph name="uni17D3" format="2">
  <unicode hex="17D3"/>
  <note>
uni17D3
</note>
  <outline>
    <contour>
      <point x="-297" y="685" type="curve" smooth="yes"/>
      <point x="-210" y="685"/>
      <point x="-135" y="728"/>
      <point x="-135" y="807" type="curve" smooth="yes"/>
      <point x="-135" y="882"/>
      <point x="-210" y="929"/>
      <point x="-297" y="929" type="curve" smooth="yes"/>
      <point x="-384" y="929"/>
      <point x="-460" y="884"/>
      <point x="-460" y="807" type="curve" smooth="yes"/>
      <point x="-460" y="733"/>
      <point x="-384" y="685"/>
    </contour>
    <contour>
      <point x="-297" y="750" type="curve" smooth="yes"/>
      <point x="-344" y="750"/>
      <point x="-385" y="771"/>
      <point x="-385" y="807" type="curve" smooth="yes"/>
      <point x="-385" y="841"/>
      <point x="-346" y="864"/>
      <point x="-297" y="864" type="curve" smooth="yes"/>
      <point x="-249" y="864"/>
      <point x="-209" y="844"/>
      <point x="-209" y="807" type="curve" smooth="yes"/>
      <point x="-209" y="772"/>
      <point x="-245" y="750"/>
    </contour>
  </outline>
</glyph>
<glyph name="uni17D4" format="2">
  <advance width="477"/>
  <unicode hex="17D4"/>
  <note>
uni17D4
</note>
  <outline>
    <contour>
      <point x="325" y="0" type="line"/>
      <point x="402" y="0" type="line"/>
      <point x="402" y="586" type="line"/>
      <point x="325" y="586" type="line"/>
      <point x="277" y="488"/>
      <point x="245" y="455"/>
      <point x="190" y="455" type="curve" smooth="yes"/>
      <point x="164" y="455"/>
      <point x="153" y="471"/>
      <point x="153" y="489" type="curve" smooth="yes"/>
      <point x="153" y="505"/>
      <point x="164" y="519"/>
      <point x="184" y="519" type="curve" smooth="yes"/>
      <point x="197" y="519" type="line"/>
      <point x="197" y="586" type="line"/>
      <point x="175" y="586" type="line" smooth="yes"/>
      <point x="126" y="586"/>
      <point x="77" y="557"/>
      <point x="77" y="488" type="curve" smooth="yes"/>
      <point x="77" y="436"/>
      <point x="126" y="388"/>
      <point x="191" y="388" type="curve" smooth="yes"/>
      <point x="250" y="388"/>
      <point x="296" y="415"/>
      <point x="325" y="462" type="curve"/>
    </contour>
  </outline>
</glyph>
<glyph name="uni17D6" format="2">
  <advance width="409"/>
  <unicode hex="17D6"/>
  <note>
uni17D6
</note>
  <outline>
    <contour>
      <point x="73" y="257" type="line"/>
      <point x="337" y="257" type="line"/>
      <point x="337" y="325" type="line"/>
      <point x="73" y="325" type="line"/>
    </contour>
    <contour>
      <point x="206" y="7" type="curve" smooth="yes"/>
      <point x="262" y="7"/>
      <point x="309" y="54"/>
      <point x="309" y="110" type="curve" smooth="yes"/>
      <point x="309" y="166"/>
      <point x="262" y="213"/>
      <point x="206" y="213" type="curve" smooth="yes"/>
      <point x="150" y="213"/>
      <point x="103" y="166"/>
      <point x="103" y="110" type="curve" smooth="yes"/>
      <point x="103" y="54"/>
      <point x="150" y="7"/>
    </contour>
    <contour>
      <point x="205" y="63" type="curve" smooth="yes"/>
      <point x="180" y="63"/>
      <point x="158" y="84"/>
      <point x="158" y="110" type="curve" smooth="yes"/>
      <point x="158" y="138"/>
      <point x="179" y="159"/>
      <point x="205" y="159" type="curve" smooth="yes"/>
      <point x="232" y="159"/>
      <point x="253" y="136"/>
      <point x="253" y="110" type="curve" smooth="yes"/>
      <point x="253" y="83"/>
      <point x="231" y="63"/>
    </contour>
    <contour>
      <point x="206" y="372" type="curve" smooth="yes"/>
      <point x="262" y="372"/>
      <point x="309" y="419"/>
      <point x="309" y="475" type="curve" smooth="yes"/>
      <point x="309" y="531"/>
      <point x="262" y="578"/>
      <point x="206" y="578" type="curve" smooth="yes"/>
      <point x="150" y="578"/>
      <point x="103" y="531"/>
      <point x="103" y="475" type="curve" smooth="yes"/>
      <point x="103" y="419"/>
      <point x="150" y="372"/>
    </contour>
    <contour>
      <point x="205" y="428" type="curve" smooth="yes"/>
      <point x="180" y="428"/>
      <point x="158" y="449"/>
      <point x="158" y="475" type="curve" smooth="yes"/>
      <point x="158" y="503"/>
      <point x="179" y="524"/>
      <point x="205" y="524" type="curve" smooth="yes"/>
      <point x="232" y="524"/>
      <point x="253" y="501"/>
      <point x="253" y="475" type="curve" smooth="yes"/>
      <point x="253" y="448"/>
      <point x="231" y="428"/>
    </contour>
  </outline>
</glyph>
<glyph name="uni17D7" format="2">
  <advance width="522"/>
  <unicode hex="17D7"/>
  <note>
uni17D7
</note>
  <outline>
    <contour>
      <point x="240" y="-195" type="line"/>
      <point x="261" y="-195" type="line" smooth="yes"/>
      <point x="372" y="-195"/>
      <point x="422" y="-141"/>
      <point x="422" y="-39" type="curve" smooth="yes"/>
      <point x="422" y="586" type="line"/>
      <point x="346" y="586" type="line"/>
      <point x="316" y="533"/>
      <point x="293" y="506"/>
      <point x="272" y="506" type="curve" smooth="yes"/>
      <point x="246" y="506"/>
      <point x="234" y="586"/>
      <point x="168" y="586" type="curve" smooth="yes"/>
      <point x="117" y="586"/>
      <point x="77" y="540"/>
      <point x="77" y="476" type="curve" smooth="yes"/>
      <point x="77" y="420"/>
      <point x="113" y="375"/>
      <point x="173" y="375" type="curve" smooth="yes"/>
      <point x="194" y="375" type="line"/>
      <point x="194" y="446" type="line"/>
      <point x="187" y="446" type="line" smooth="yes"/>
      <point x="164" y="446"/>
      <point x="153" y="462"/>
      <point x="153" y="481" type="curve" smooth="yes"/>
      <point x="153" y="497"/>
      <point x="161" y="513"/>
      <point x="180" y="513" type="curve" smooth="yes"/>
      <point x="213" y="513"/>
      <point x="216" y="441"/>
      <point x="270" y="441" type="curve" smooth="yes"/>
      <point x="293" y="441"/>
      <point x="317" y="456"/>
      <point x="345" y="485" type="curve"/>
      <point x="346" y="485" type="line"/>
      <point x="346" y="-39" type="line" smooth="yes"/>
      <point x="346" y="-96"/>
      <point x="327" y="-128"/>
      <point x="246" y="-128" type="curve" smooth="yes"/>
      <point x="240" y="-128" type="line"/>
    </contour>
  </outline>
</glyph>
<glyph name="uni17D8" format="2">
  <advance width="1717"/>
  <unicode hex="17D8"/>
  <note>
uni17D8
</note>
  <outline>
    <contour>
      <point x="325" y="0" type="line"/>
      <point x="402" y="0" type="line"/>
      <point x="402" y="586" type="line"/>
      <point x="325" y="586" type="line"/>
      <point x="277" y="488"/>
      <point x="245" y="455"/>
      <point x="190" y="455" type="curve" smooth="yes"/>
      <point x="164" y="455"/>
      <point x="153" y="471"/>
      <point x="153" y="489" type="curve" smooth="yes"/>
      <point x="153" y="505"/>
      <point x="164" y="519"/>
      <point x="184" y="519" type="curve" smooth="yes"/>
      <point x="197" y="519" type="line"/>
      <point x="197" y="586" type="line"/>
      <point x="175" y="586" type="line" smooth="yes"/>
      <point x="126" y="586"/>
      <point x="77" y="557"/>
      <point x="77" y="488" type="curve" smooth="yes"/>
      <point x="77" y="436"/>
      <point x="126" y="388"/>
      <point x="191" y="388" type="curve" smooth="yes"/>
      <point x="250" y="388"/>
      <point x="296" y="415"/>
      <point x="325" y="462" type="curve"/>
    </contour>
    <contour>
      <point x="1169" y="370" type="line"/>
      <point x="1092" y="370" type="line"/>
      <point x="1092" y="158" type="line" smooth="yes"/>
      <point x="1092" y="98"/>
      <point x="1062" y="67"/>
      <point x="998" y="67" type="curve" smooth="yes"/>
      <point x="936" y="67"/>
      <point x="905" y="98"/>
      <point x="905" y="158" type="curve" smooth="yes"/>
      <point x="905" y="428" type="line" smooth="yes"/>
      <point x="905" y="533"/>
      <point x="847" y="586"/>
      <point x="732" y="586" type="curve" smooth="yes"/>
      <point x="617" y="586"/>
      <point x="558" y="533"/>
      <point x="558" y="428" type="curve" smooth="yes"/>
      <point x="558" y="245" type="line"/>
      <point x="635" y="245" type="line"/>
      <point x="635" y="428" type="line" smooth="yes"/>
      <point x="635" y="488"/>
      <point x="667" y="519"/>
      <point x="732" y="519" type="curve" smooth="yes"/>
      <point x="796" y="519"/>
      <point x="828" y="488"/>
      <point x="828" y="428" type="curve" smooth="yes"/>
      <point x="828" y="158" type="line" smooth="yes"/>
      <point x="828" y="53"/>
      <point x="885" y="0"/>
      <point x="998" y="0" type="curve" smooth="yes"/>
      <point x="1112" y="0"/>
      <point x="1169" y="53"/>
      <point x="1169" y="158" type="curve" smooth="yes"/>
    </contour>
    <contour>
      <point x="558" y="260" type="line"/>
      <point x="558" y="60" type="line" smooth="yes"/>
      <point x="558" y="20"/>
      <point x="584" y="0"/>
      <point x="624" y="0" type="curve" smooth="yes"/>
      <point x="640" y="0" type="line" smooth="yes"/>
      <point x="693" y="0"/>
      <point x="736" y="44"/>
      <point x="736" y="113" type="curve" smooth="yes"/>
      <point x="736" y="187"/>
      <point x="686" y="219"/>
      <point x="635" y="219" type="curve"/>
      <point x="635" y="260" type="line" smooth="yes"/>
    </contour>
    <contour>
      <point x="635" y="67" type="curve"/>
      <point x="635" y="151" type="line"/>
      <point x="660" y="150"/>
      <point x="673" y="138"/>
      <point x="673" y="111" type="curve" smooth="yes"/>
      <point x="673" y="83"/>
      <point x="660" y="67"/>
    </contour>
    <contour>
      <point x="1092" y="356" type="line"/>
      <point x="1169" y="356" type="line"/>
      <point x="1169" y="410" type="line"/>
      <point x="1087" y="518" type="line"/>
      <point x="1087" y="519" type="line"/>
      <point x="1188" y="519" type="line"/>
      <point x="1188" y="586" type="line"/>
      <point x="1087" y="586" type="line"/>
      <point x="1042" y="515"/>
      <point x="1034" y="502"/>
      <point x="1034" y="491" type="curve" smooth="yes"/>
      <point x="1034" y="478"/>
      <point x="1039" y="471"/>
      <point x="1092" y="394" type="curve"/>
    </contour>
    <contour>
      <point x="1541" y="0" type="line"/>
      <point x="1618" y="0" type="line"/>
      <point x="1618" y="586" type="line"/>
      <point x="1541" y="586" type="line"/>
      <point x="1493" y="488"/>
      <point x="1461" y="455"/>
      <point x="1406" y="455" type="curve" smooth="yes"/>
      <point x="1380" y="455"/>
      <point x="1369" y="471"/>
      <point x="1369" y="489" type="curve" smooth="yes"/>
      <point x="1369" y="505"/>
      <point x="1380" y="519"/>
      <point x="1400" y="519" type="curve" smooth="yes"/>
      <point x="1413" y="519" type="line"/>
      <point x="1413" y="586" type="line"/>
      <point x="1391" y="586" type="line" smooth="yes"/>
      <point x="1342" y="586"/>
      <point x="1293" y="557"/>
      <point x="1293" y="488" type="curve" smooth="yes"/>
      <point x="1293" y="436"/>
      <point x="1342" y="388"/>
      <point x="1407" y="388" type="curve" smooth="yes"/>
      <point x="1466" y="388"/>
      <point x="1512" y="415"/>
      <point x="1541" y="462" type="curve"/>
    </contour>
  </outline>
</glyph>
<glyph name="uni17D9" format="2">
  <advance width="600"/>
  <unicode hex="17D9"/>
  <note>
uni17D9
</note>
  <outline>
    <contour>
      <point x="299" y="0" type="curve" smooth="yes"/>
      <point x="449" y="0"/>
      <point x="524" y="98"/>
      <point x="524" y="293" type="curve" smooth="yes"/>
      <point x="524" y="488"/>
      <point x="449" y="586"/>
      <point x="299" y="586" type="curve" smooth="yes"/>
      <point x="150" y="586"/>
      <point x="76" y="488"/>
      <point x="76" y="293" type="curve" smooth="yes"/>
      <point x="76" y="98"/>
      <point x="150" y="0"/>
    </contour>
    <contour>
      <point x="299" y="49" type="curve" smooth="yes"/>
      <point x="188" y="49"/>
      <point x="132" y="130"/>
      <point x="132" y="293" type="curve" smooth="yes"/>
      <point x="132" y="456"/>
      <point x="188" y="537"/>
      <point x="299" y="537" type="curve" smooth="yes"/>
      <point x="411" y="537"/>
      <point x="468" y="456"/>
      <point x="468" y="293" type="curve" smooth="yes"/>
      <point x="468" y="130"/>
      <point x="411" y="49"/>
    </contour>
    <contour>
      <point x="299" y="98" type="curve" smooth="yes"/>
      <point x="374" y="98"/>
      <point x="411" y="163"/>
      <point x="411" y="293" type="curve" smooth="yes"/>
      <point x="411" y="423"/>
      <point x="374" y="488"/>
      <point x="299" y="488" type="curve" smooth="yes"/>
      <point x="225" y="488"/>
      <point x="188" y="423"/>
      <point x="188" y="293" type="curve" smooth="yes"/>
      <point x="188" y="163"/>
      <point x="225" y="98"/>
    </contour>
    <contour>
      <point x="299" y="146" type="curve" smooth="yes"/>
      <point x="263" y="146"/>
      <point x="244" y="195"/>
      <point x="244" y="293" type="curve" smooth="yes"/>
      <point x="244" y="391"/>
      <point x="263" y="439"/>
      <point x="299" y="439" type="curve" smooth="yes"/>
      <point x="337" y="439"/>
      <point x="356" y="391"/>
      <point x="356" y="293" type="curve" smooth="yes"/>
      <point x="356" y="195"/>
      <point x="337" y="146"/>
    </contour>
  </outline>
</glyph>
<glyph name="uni17DA" format="2">
  <advance width="1195"/>
  <unicode hex="17DA"/>
  <note>
uni17DA
</note>
  <outline>
    <contour>
      <point x="283" y="0" type="curve" smooth="yes"/>
      <point x="394" y="0"/>
      <point x="436" y="87"/>
      <point x="512" y="265" type="curve" smooth="yes"/>
      <point x="593" y="454" type="line"/>
      <point x="699" y="53" type="line"/>
      <point x="766" y="53" type="line"/>
      <point x="850" y="403" type="line"/>
      <point x="918" y="106" type="line"/>
      <point x="979" y="106" type="line"/>
      <point x="1029" y="255" type="line"/>
      <point x="1105" y="255" type="line"/>
      <point x="1105" y="319" type="line"/>
      <point x="999" y="319" type="line"/>
      <point x="952" y="199" type="line"/>
      <point x="884" y="478" type="line"/>
      <point x="816" y="478" type="line"/>
      <point x="732" y="143" type="line"/>
      <point x="629" y="531" type="line"/>
      <point x="562" y="531" type="line"/>
      <point x="463" y="292" type="line" smooth="yes"/>
      <point x="394" y="127"/>
      <point x="351" y="63"/>
      <point x="283" y="63" type="curve" smooth="yes"/>
      <point x="224" y="63"/>
      <point x="152" y="109"/>
      <point x="152" y="295" type="curve" smooth="yes"/>
      <point x="152" y="463"/>
      <point x="203" y="523"/>
      <point x="270" y="523" type="curve" smooth="yes"/>
      <point x="331" y="523"/>
      <point x="352" y="487"/>
      <point x="352" y="447" type="curve" smooth="yes"/>
      <point x="352" y="400"/>
      <point x="334" y="357"/>
      <point x="284" y="357" type="curve"/>
      <point x="284" y="297" type="line"/>
      <point x="369" y="297"/>
      <point x="429" y="350"/>
      <point x="429" y="447" type="curve" smooth="yes"/>
      <point x="429" y="528"/>
      <point x="374" y="586"/>
      <point x="277" y="586" type="curve" smooth="yes"/>
      <point x="193" y="586"/>
      <point x="76" y="533"/>
      <point x="76" y="296" type="curve" smooth="yes"/>
      <point x="76" y="121"/>
      <point x="145" y="0"/>
    </contour>
  </outline>
</glyph>
<glyph name="uni17DB" format="2">
  <advance width="293"/>
  <unicode hex="17DB"/>
  <note>
uni17DB
</note>
  <outline>
    <contour>
      <point x="75" y="259" type="line"/>
      <point x="253" y="259" type="line"/>
      <point x="253" y="327" type="line"/>
      <point x="75" y="327" type="line"/>
    </contour>
    <contour>
      <point x="137" y="356" type="line"/>
      <point x="214" y="356" type="line"/>
      <point x="214" y="410" type="line"/>
      <point x="132" y="518" type="line"/>
      <point x="132" y="519" type="line"/>
      <point x="233" y="519" type="line"/>
      <point x="233" y="586" type="line"/>
      <point x="132" y="586" type="line"/>
      <point x="87" y="515"/>
      <point x="79" y="502"/>
      <point x="79" y="491" type="curve" smooth="yes"/>
      <point x="79" y="478"/>
      <point x="84" y="471"/>
      <point x="137" y="394" type="curve"/>
    </contour>
    <contour>
      <point x="214" y="375" type="line"/>
      <point x="137" y="375" type="line"/>
      <point x="137" y="219" type="line"/>
      <point x="86" y="219"/>
      <point x="40" y="176"/>
      <point x="40" y="108" type="curve" smooth="yes"/>
      <point x="40" y="35"/>
      <point x="82" y="0"/>
      <point x="141" y="0" type="curve" smooth="yes"/>
      <point x="156" y="0" type="line" smooth="yes"/>
      <point x="193" y="0"/>
      <point x="214" y="25"/>
      <point x="214" y="69" type="curve" smooth="yes"/>
    </contour>
    <contour>
      <point x="137" y="67" type="line"/>
      <point x="119" y="67"/>
      <point x="96" y="82"/>
      <point x="96" y="109" type="curve" smooth="yes"/>
      <point x="96" y="139"/>
      <point x="124" y="151"/>
      <point x="137" y="151" type="curve"/>
    </contour>
  </outline>
</glyph>
<glyph name="uni17DC" format="2">
  <advance width="624"/>
  <unicode hex="17DC"/>
  <note>
uni17DC
</note>
  <outline>
    <contour>
      <point x="310" y="0" type="curve" smooth="yes"/>
      <point x="449" y="0"/>
      <point x="512" y="77"/>
      <point x="512" y="186" type="curve" smooth="yes"/>
      <point x="512" y="293"/>
      <point x="447" y="346"/>
      <point x="318" y="381" type="curve" smooth="yes"/>
      <point x="230" y="405"/>
      <point x="193" y="423"/>
      <point x="193" y="504" type="curve" smooth="yes"/>
      <point x="193" y="581"/>
      <point x="243" y="618"/>
      <point x="320" y="618" type="curve" smooth="yes"/>
      <point x="389" y="618"/>
      <point x="435" y="589"/>
      <point x="435" y="545" type="curve" smooth="yes"/>
      <point x="435" y="515"/>
      <point x="423" y="505"/>
      <point x="408" y="503" type="curve"/>
      <point x="408" y="439" type="line"/>
      <point x="457" y="439"/>
      <point x="505" y="473"/>
      <point x="505" y="550" type="curve" smooth="yes"/>
      <point x="505" y="618"/>
      <point x="446" y="684"/>
      <point x="317" y="684" type="curve" smooth="yes"/>
      <point x="198" y="684"/>
      <point x="115" y="614"/>
      <point x="115" y="499" type="curve" smooth="yes"/>
      <point x="115" y="375"/>
      <point x="191" y="338"/>
      <point x="301" y="308" type="curve" smooth="yes"/>
      <point x="413" y="277"/>
      <point x="434" y="230"/>
      <point x="434" y="181" type="curve" smooth="yes"/>
      <point x="434" y="111"/>
      <point x="394" y="66"/>
      <point x="313" y="66" type="curve" smooth="yes"/>
      <point x="245" y="66"/>
      <point x="194" y="87"/>
      <point x="194" y="131" type="curve" smooth="yes"/>
      <point x="194" y="177"/>
      <point x="219" y="191"/>
      <point x="235" y="191" type="curve"/>
      <point x="235" y="254" type="line"/>
      <point x="168" y="254"/>
      <point x="115" y="211"/>
      <point x="115" y="135" type="curve" smooth="yes"/>
      <point x="115" y="50"/>
      <point x="195" y="0"/>
    </contour>
  </outline>
</glyph>
<glyph name="uni17DD" format="2">
  <unicode hex="17DD"/>
  <note>
uni17DD
</note>
  <outline>
    <contour>
      <point x="-473" y="685" type="curve"/>
      <point x="-411" y="685" type="line"/>
      <point x="-411" y="765"/>
      <point x="-358" y="798"/>
      <point x="-303" y="798" type="curve" smooth="yes"/>
      <point x="-248" y="798"/>
      <point x="-194" y="765"/>
      <point x="-194" y="685" type="curve"/>
      <point x="-132" y="685" type="line"/>
      <point x="-132" y="796"/>
      <point x="-206" y="856"/>
      <point x="-303" y="856" type="curve" smooth="yes"/>
      <point x="-400" y="856"/>
      <point x="-473" y="796"/>
    </contour>
  </outline>
</glyph>
<glyph name="uni17E0" format="2">
  <advance width="522"/>
  <unicode hex="17E0"/>
  <note>
uni17E0
</note>
  <outline>
    <contour>
      <point x="261" y="0" type="curve" smooth="yes"/>
      <point x="383" y="0"/>
      <point x="444" y="62"/>
      <point x="444" y="186" type="curve" smooth="yes"/>
      <point x="444" y="400" type="line" smooth="yes"/>
      <point x="444" y="524"/>
      <point x="383" y="586"/>
      <point x="261" y="586" type="curve" smooth="yes"/>
      <point x="139" y="586"/>
      <point x="78" y="524"/>
      <point x="78" y="400" type="curve" smooth="yes"/>
      <point x="78" y="186" type="line" smooth="yes"/>
      <point x="78" y="62"/>
      <point x="139" y="0"/>
    </contour>
    <contour>
      <point x="261" y="67" type="curve" smooth="yes"/>
      <point x="190" y="67"/>
      <point x="154" y="107"/>
      <point x="154" y="186" type="curve" smooth="yes"/>
      <point x="154" y="400" type="line" smooth="yes"/>
      <point x="154" y="479"/>
      <point x="190" y="519"/>
      <point x="261" y="519" type="curve" smooth="yes"/>
      <point x="332" y="519"/>
      <point x="367" y="479"/>
      <point x="367" y="400" type="curve" smooth="yes"/>
      <point x="367" y="186" type="line" smooth="yes"/>
      <point x="367" y="107"/>
      <point x="332" y="67"/>
    </contour>
  </outline>
</glyph>
<glyph name="uni17E1" format="2">
  <advance width="522"/>
  <unicode hex="17E1"/>
  <note>
uni17E1
</note>
  <outline>
    <contour>
      <point x="261" y="0" type="curve" smooth="yes"/>
      <point x="383" y="0"/>
      <point x="444" y="52"/>
      <point x="444" y="156" type="curve" smooth="yes"/>
      <point x="444" y="430" type="line" smooth="yes"/>
      <point x="444" y="534"/>
      <point x="383" y="586"/>
      <point x="261" y="586" type="curve" smooth="yes"/>
      <point x="139" y="586"/>
      <point x="78" y="534"/>
      <point x="78" y="430" type="curve" smooth="yes"/>
      <point x="78" y="371" type="line" smooth="yes"/>
      <point x="78" y="293"/>
      <point x="121" y="254"/>
      <point x="206" y="254" type="curve" smooth="yes"/>
      <point x="261" y="254" type="line"/>
      <point x="261" y="332" type="line"/>
      <point x="206" y="332" type="line" smooth="yes"/>
      <point x="171" y="332"/>
      <point x="154" y="345"/>
      <point x="154" y="371" type="curve" smooth="yes"/>
      <point x="154" y="430" type="line" smooth="yes"/>
      <point x="154" y="489"/>
      <point x="190" y="519"/>
      <point x="261" y="519" type="curve" smooth="yes"/>
      <point x="332" y="519"/>
      <point x="367" y="489"/>
      <point x="367" y="430" type="curve" smooth="yes"/>
      <point x="367" y="156" type="line" smooth="yes"/>
      <point x="367" y="97"/>
      <point x="332" y="67"/>
      <point x="261" y="67" type="curve" smooth="yes"/>
      <point x="190" y="67"/>
      <point x="154" y="97"/>
      <point x="154" y="156" type="curve"/>
      <point x="78" y="156" type="line"/>
      <point x="78" y="52"/>
      <point x="139" y="0"/>
    </contour>
  </outline>
</glyph>
<glyph name="uni17E2" format="2">
  <advance width="630"/>
  <unicode hex="17E2"/>
  <note>
uni17E2
</note>
  <outline>
    <contour>
      <point x="320" y="0" type="curve" smooth="yes"/>
      <point x="475" y="0"/>
      <point x="552" y="65"/>
      <point x="552" y="195" type="curve" smooth="yes"/>
      <point x="552" y="586" type="line"/>
      <point x="476" y="586" type="line"/>
      <point x="392" y="501" type="line"/>
      <point x="308" y="586" type="line"/>
      <point x="232" y="586" type="line"/>
      <point x="232" y="293" type="line"/>
      <point x="329" y="293" type="line"/>
      <point x="329" y="360" type="line"/>
      <point x="308" y="360" type="line"/>
      <point x="308" y="504" type="line"/>
      <point x="392" y="419" type="line"/>
      <point x="476" y="504" type="line"/>
      <point x="476" y="195" type="line" smooth="yes"/>
      <point x="476" y="110"/>
      <point x="424" y="67"/>
      <point x="320" y="67" type="curve" smooth="yes"/>
      <point x="216" y="67"/>
      <point x="165" y="110"/>
      <point x="165" y="195" type="curve" smooth="yes"/>
      <point x="165" y="662" type="line" smooth="yes"/>
      <point x="165" y="695"/>
      <point x="162" y="708"/>
      <point x="127" y="708" type="curve" smooth="yes"/>
      <point x="48" y="708" type="line"/>
      <point x="48" y="641" type="line"/>
      <point x="89" y="641" type="line"/>
      <point x="89" y="195" type="line" smooth="yes"/>
      <point x="89" y="65"/>
      <point x="166" y="0"/>
    </contour>
  </outline>
</glyph>
<glyph name="uni17E3" format="2">
  <advance width="711"/>
  <unicode hex="17E3"/>
  <note>
uni17E3
</note>
  <outline>
    <contour>
      <point x="78" y="0" type="line"/>
      <point x="195" y="0" type="line"/>
      <point x="195" y="67" type="line"/>
      <point x="155" y="67" type="line"/>
      <point x="155" y="410" type="line" smooth="yes"/>
      <point x="155" y="482"/>
      <point x="181" y="519"/>
      <point x="236" y="519" type="curve" smooth="yes"/>
      <point x="290" y="519"/>
      <point x="317" y="482"/>
      <point x="317" y="425" type="curve" smooth="yes"/>
      <point x="317" y="0" type="line"/>
      <point x="394" y="0" type="line"/>
      <point x="394" y="425" type="line" smooth="yes"/>
      <point x="394" y="482"/>
      <point x="421" y="519"/>
      <point x="475" y="519" type="curve" smooth="yes"/>
      <point x="529" y="519"/>
      <point x="556" y="482"/>
      <point x="556" y="410" type="curve" smooth="yes"/>
      <point x="556" y="0" type="line"/>
      <point x="633" y="0" type="line"/>
      <point x="633" y="410" type="line" smooth="yes"/>
      <point x="633" y="527"/>
      <point x="581" y="586"/>
      <point x="475" y="586" type="curve" smooth="yes"/>
      <point x="421" y="586"/>
      <point x="381" y="571"/>
      <point x="355" y="542" type="curve"/>
      <point x="329" y="571"/>
      <point x="290" y="586"/>
      <point x="236" y="586" type="curve" smooth="yes"/>
      <point x="131" y="586"/>
      <point x="78" y="529"/>
      <point x="78" y="415" type="curve" smooth="yes"/>
    </contour>
  </outline>
</glyph>
<glyph name="uni17E4" format="2">
  <advance width="533"/>
  <unicode hex="17E4"/>
  <note>
uni17E4
</note>
  <outline>
    <contour>
      <point x="271" y="0" type="curve" smooth="yes"/>
      <point x="435" y="0" type="line"/>
      <point x="455" y="67" type="line"/>
      <point x="369" y="243" type="line"/>
      <point x="369" y="391" type="line"/>
      <point x="455" y="391" type="line"/>
      <point x="455" y="458" type="line"/>
      <point x="373" y="458" type="line" smooth="yes"/>
      <point x="320" y="458"/>
      <point x="292" y="439"/>
      <point x="292" y="391" type="curve" smooth="yes"/>
      <point x="292" y="219" type="line"/>
      <point x="402" y="67" type="line"/>
      <point x="271" y="67" type="line" smooth="yes"/>
      <point x="201" y="67"/>
      <point x="165" y="110"/>
      <point x="165" y="195" type="curve" smooth="yes"/>
      <point x="165" y="672" type="line" smooth="yes"/>
      <point x="165" y="699"/>
      <point x="160" y="713"/>
      <point x="126" y="713" type="curve" smooth="yes"/>
      <point x="48" y="713" type="line"/>
      <point x="48" y="646" type="line"/>
      <point x="89" y="646" type="line"/>
      <point x="89" y="195" type="line" smooth="yes"/>
      <point x="89" y="65"/>
      <point x="150" y="0"/>
    </contour>
  </outline>
</glyph>
<glyph name="uni17E5" format="2">
  <advance width="498"/>
  <unicode hex="17E5"/>
  <note>
uni17E5
</note>
  <outline>
    <contour>
      <point x="260" y="0" type="curve" smooth="yes"/>
      <point x="423" y="0" type="line"/>
      <point x="444" y="67" type="line"/>
      <point x="357" y="194" type="line"/>
      <point x="357" y="323" type="line"/>
      <point x="444" y="323" type="line"/>
      <point x="444" y="391" type="line"/>
      <point x="358" y="391" type="line" smooth="yes"/>
      <point x="310" y="391"/>
      <point x="281" y="342"/>
      <point x="281" y="293" type="curve" smooth="yes"/>
      <point x="281" y="180" type="line"/>
      <point x="383" y="67" type="line"/>
      <point x="260" y="67" type="line" smooth="yes"/>
      <point x="190" y="67"/>
      <point x="154" y="99"/>
      <point x="154" y="161" type="curve" smooth="yes"/>
      <point x="154" y="418" type="line" smooth="yes"/>
      <point x="154" y="457"/>
      <point x="170" y="477"/>
      <point x="193" y="493" type="curve"/>
      <point x="232" y="473"/>
      <point x="270" y="461"/>
      <point x="312" y="461" type="curve" smooth="yes"/>
      <point x="387" y="461"/>
      <point x="444" y="507"/>
      <point x="444" y="590" type="curve" smooth="yes"/>
      <point x="444" y="714" type="line"/>
      <point x="367" y="714" type="line"/>
      <point x="367" y="590" type="line" smooth="yes"/>
      <point x="367" y="558"/>
      <point x="346" y="529"/>
      <point x="309" y="529" type="curve" smooth="yes"/>
      <point x="289" y="529"/>
      <point x="275" y="530"/>
      <point x="248" y="539" type="curve"/>
      <point x="263" y="558"/>
      <point x="271" y="576"/>
      <point x="271" y="602" type="curve" smooth="yes"/>
      <point x="271" y="638"/>
      <point x="244" y="671"/>
      <point x="196" y="671" type="curve" smooth="yes"/>
      <point x="151" y="671"/>
      <point x="121" y="641"/>
      <point x="121" y="598" type="curve" smooth="yes"/>
      <point x="121" y="574"/>
      <point x="129" y="557"/>
      <point x="141" y="540" type="curve"/>
      <point x="97" y="515"/>
      <point x="78" y="485"/>
      <point x="78" y="419" type="curve" smooth="yes"/>
      <point x="78" y="161" type="line" smooth="yes"/>
      <point x="78" y="54"/>
      <point x="139" y="0"/>
    </contour>
  </outline>
</glyph>
<glyph name="uni17E6" format="2">
  <advance width="522"/>
  <unicode hex="17E6"/>
  <note>
uni17E6
</note>
  <outline>
    <contour>
      <point x="261" y="0" type="curve" smooth="yes"/>
      <point x="383" y="0"/>
      <point x="444" y="65"/>
      <point x="444" y="195" type="curve" smooth="yes"/>
      <point x="444" y="391" type="line" smooth="yes"/>
      <point x="444" y="521"/>
      <point x="383" y="586"/>
      <point x="261" y="586" type="curve" smooth="yes"/>
      <point x="225" y="586"/>
      <point x="189" y="577"/>
      <point x="154" y="560" type="curve"/>
      <point x="154" y="714" type="line"/>
      <point x="78" y="714" type="line"/>
      <point x="78" y="420" type="line"/>
      <point x="154" y="420" type="line"/>
      <point x="154" y="486"/>
      <point x="190" y="519"/>
      <point x="261" y="519" type="curve" smooth="yes"/>
      <point x="332" y="519"/>
      <point x="367" y="476"/>
      <point x="367" y="391" type="curve" smooth="yes"/>
      <point x="367" y="195" type="line" smooth="yes"/>
      <point x="367" y="110"/>
      <point x="332" y="67"/>
      <point x="261" y="67" type="curve" smooth="yes"/>
      <point x="190" y="67"/>
      <point x="154" y="102"/>
      <point x="154" y="171" type="curve" smooth="yes"/>
      <point x="154" y="240"/>
      <point x="176" y="275"/>
      <point x="221" y="275" type="curve" smooth="yes"/>
      <point x="281" y="275" type="line"/>
      <point x="281" y="342" type="line"/>
      <point x="221" y="342" type="line" smooth="yes"/>
      <point x="126" y="342"/>
      <point x="78" y="285"/>
      <point x="78" y="171" type="curve" smooth="yes"/>
      <point x="78" y="57"/>
      <point x="139" y="0"/>
    </contour>
  </outline>
</glyph>
<glyph name="uni17E7" format="2">
  <advance width="644"/>
  <unicode hex="17E7"/>
  <note>
uni17E7
</note>
  <outline>
    <contour>
      <point x="78" y="0" type="line"/>
      <point x="220" y="0" type="line"/>
      <point x="220" y="67" type="line"/>
      <point x="154" y="67" type="line"/>
      <point x="154" y="451" type="line" smooth="yes"/>
      <point x="154" y="492"/>
      <point x="162" y="513"/>
      <point x="178" y="513" type="curve" smooth="yes"/>
      <point x="190" y="513"/>
      <point x="207" y="498"/>
      <point x="228" y="467" type="curve" smooth="yes"/>
      <point x="235" y="457"/>
      <point x="242" y="452"/>
      <point x="250" y="452" type="curve" smooth="yes"/>
      <point x="259" y="452"/>
      <point x="266" y="457"/>
      <point x="274" y="467" type="curve" smooth="yes"/>
      <point x="295" y="497"/>
      <point x="310" y="513"/>
      <point x="324" y="513" type="curve" smooth="yes"/>
      <point x="340" y="513"/>
      <point x="348" y="492"/>
      <point x="348" y="451" type="curve" smooth="yes"/>
      <point x="348" y="120" type="line" smooth="yes"/>
      <point x="348" y="38"/>
      <point x="385" y="0"/>
      <point x="457" y="0" type="curve" smooth="yes"/>
      <point x="529" y="0"/>
      <point x="566" y="38"/>
      <point x="566" y="120" type="curve" smooth="yes"/>
      <point x="566" y="714" type="line"/>
      <point x="490" y="714" type="line"/>
      <point x="490" y="100" type="line" smooth="yes"/>
      <point x="490" y="79"/>
      <point x="474" y="67"/>
      <point x="457" y="67" type="curve" smooth="yes"/>
      <point x="440" y="67"/>
      <point x="424" y="79"/>
      <point x="424" y="100" type="curve" smooth="yes"/>
      <point x="424" y="451" type="line" smooth="yes"/>
      <point x="424" y="524"/>
      <point x="390" y="586"/>
      <point x="336" y="586" type="curve" smooth="yes"/>
      <point x="306" y="586"/>
      <point x="280" y="566"/>
      <point x="250" y="525" type="curve"/>
      <point x="222" y="566"/>
      <point x="199" y="586"/>
      <point x="166" y="586" type="curve" smooth="yes"/>
      <point x="106" y="586"/>
      <point x="78" y="524"/>
      <point x="78" y="451" type="curve" smooth="yes"/>
    </contour>
  </outline>
</glyph>
<glyph name="uni17E8" format="2">
  <advance width="522"/>
  <unicode hex="17E8"/>
  <note>
uni17E8
</note>
  <outline>
    <contour>
      <point x="78" y="0" type="line"/>
      <point x="167" y="0" type="line"/>
      <point x="261" y="103" type="line"/>
      <point x="356" y="0" type="line"/>
      <point x="444" y="0" type="line"/>
      <point x="444" y="313" type="line" smooth="yes"/>
      <point x="444" y="353"/>
      <point x="427" y="366"/>
      <point x="398" y="366" type="curve" smooth="yes"/>
      <point x="273" y="366" type="line"/>
      <point x="273" y="299" type="line"/>
      <point x="346" y="299" type="line" smooth="yes"/>
      <point x="361" y="299"/>
      <point x="367" y="292"/>
      <point x="367" y="275" type="curve" smooth="yes"/>
      <point x="367" y="82" type="line"/>
      <point x="261" y="198" type="line"/>
      <point x="154" y="81" type="line"/>
      <point x="154" y="430" type="line" smooth="yes"/>
      <point x="154" y="489"/>
      <point x="190" y="519"/>
      <point x="261" y="519" type="curve" smooth="yes"/>
      <point x="332" y="519"/>
      <point x="367" y="489"/>
      <point x="367" y="430" type="curve"/>
      <point x="444" y="430" type="line"/>
      <point x="444" y="714" type="line"/>
      <point x="367" y="714" type="line"/>
      <point x="367" y="560" type="line"/>
      <point x="333" y="577"/>
      <point x="297" y="586"/>
      <point x="261" y="586" type="curve" smooth="yes"/>
      <point x="139" y="586"/>
      <point x="78" y="534"/>
      <point x="78" y="430" type="curve" smooth="yes"/>
    </contour>
  </outline>
</glyph>
